<svg xmlns="http://www.w3.org/2000/svg" xmlns:xlink="http://www.w3.org/1999/xlink" version="1.1" x="0px" y="0px" viewBox="0 0 100 125" enable-background="new 0 0 100 100" xml:space="preserve"><path d="M85,24H15c-2.075,0-6,1.254-6,6v15c0,0.36,0.469,36,41,36s41-35.64,41-36V30C91,25.254,87.075,24,85,24z M89,30v14.033  c-1.148,0.03-2.256,0.105-3.317,0.231C84.926,43.498,84.245,42.4,83.647,41H85c0.552,0,1-0.448,1-1V30c0-0.552-0.448-1-1-1h-3.817  c-0.096-1.25-0.141-2.29-0.163-3h3.975C85.405,26.003,89,26.147,89,30z M67.08,36.667c0.367-0.457,0.586-1.037,0.586-1.667  s-0.22-1.21-0.586-1.667c0.367-0.457,0.586-1.037,0.586-1.667c0-0.23-0.029-0.454-0.084-0.667H84v8H67.582  c0.055-0.213,0.084-0.437,0.084-0.667C67.667,37.703,67.447,37.124,67.08,36.667z M15,26h3.979c-0.021,0.71-0.067,1.75-0.163,3H15  c-0.552,0-1,0.448-1,1v10c0,0.552,0.448,1,1,1h1.353c-0.597,1.4-1.278,2.498-2.035,3.264c-1.062-0.126-2.169-0.202-3.317-0.231V30  C11,26.147,14.595,26.003,15,26z M32.92,33.333C32.553,33.79,32.333,34.37,32.333,35s0.22,1.21,0.586,1.667  c-0.367,0.457-0.586,1.037-0.586,1.667c0,0.23,0.029,0.454,0.084,0.667H16v-8h16.418c-0.055,0.213-0.084,0.437-0.084,0.667  C32.333,32.297,32.553,32.876,32.92,33.333z M11.038,46.035c23.637,0.686,27.303,24.409,27.864,31.9  C14.085,72.888,11.335,51.126,11.038,46.035z M40.931,78.306c-0.424-6.692-3.42-29.652-24.308-33.685  c0.706-0.967,1.327-2.192,1.871-3.621H35c0.552,0,1-0.448,1-1s-0.448-1-1-1c-0.368,0-0.667-0.299-0.667-0.667  s0.299-0.667,0.667-0.667c0.552,0,1-0.448,1-1s-0.448-1-1-1c-0.368,0-0.667-0.299-0.667-0.667s0.299-0.667,0.667-0.667  c0.552,0,1-0.448,1-1s-0.448-1-1-1c-0.368,0-0.667-0.299-0.667-0.667S34.632,31,35,31c0.552,0,1-0.448,1-1s-0.448-1-1-1H20.823  c0.094-1.259,0.138-2.294,0.158-3h58.037c0.021,0.706,0.064,1.741,0.158,3H65c-0.552,0-1,0.448-1,1s0.448,1,1,1  c0.368,0,0.667,0.299,0.667,0.667S65.368,32.333,65,32.333c-0.552,0-1,0.448-1,1s0.448,1,1,1c0.368,0,0.667,0.299,0.667,0.667  S65.368,35.667,65,35.667c-0.552,0-1,0.448-1,1s0.448,1,1,1c0.368,0,0.667,0.299,0.667,0.667S65.368,39,65,39c-0.552,0-1,0.448-1,1  s0.448,1,1,1h16.506c0.544,1.429,1.165,2.653,1.871,3.621C62.478,48.655,59.49,71.639,59.069,78.318C56.23,78.766,53.212,79,50,79  C46.699,79,43.697,78.745,40.931,78.306z M61.097,77.959c0.555-7.462,4.2-31.231,27.855-31.924  c-0.172,2.511-0.984,9.256-4.82,15.969C79.273,70.506,71.547,75.845,61.097,77.959z"/><text x="0" y="115" fill="#000000" font-size="5px" font-weight="bold" font-family="'Helvetica Neue', Helvetica, Arial-Unicode, Arial, Sans-serif">Created by Anniken &amp; Andreas</text><text x="0" y="120" fill="#000000" font-size="5px" font-weight="bold" font-family="'Helvetica Neue', Helvetica, Arial-Unicode, Arial, Sans-serif">from the Noun Project</text></svg>