<svg xmlns="http://www.w3.org/2000/svg" xmlns:xlink="http://www.w3.org/1999/xlink" version="1.1" x="0px" y="0px" viewBox="0 0 100 125" enable-background="new 0 0 100 100" xml:space="preserve"><path d="M84.986,49.746c-0.006-0.021-0.012-0.042-0.019-0.063c-0.353-1.171-0.876-2.402-1.654-3.593  c-0.705-1.067-1.745-1.682-2.751-2.276c-0.938-0.555-1.822-1.078-2.4-1.939c-0.793-1.181-0.51-3.347-0.236-5.442  c0.204-1.56,0.415-3.172,0.233-4.628c-0.347-2.657-1.009-4.376-2.084-5.409c-5.216-5.01-18.185-8.5-26.562-8.5  c-2.111,0-3.925,0.215-5.387,0.638c-2.007,0.578-4.364,1.854-7.01,3.796c-1.487,1.099-2.409,2.99-3.301,4.818  c-0.662,1.359-1.348,2.765-2.193,3.66c-1.116,1.178-2.475,2.034-3.789,2.861c-1.788,1.127-3.638,2.291-4.688,4.223  c-0.854,1.563-1.452,3.011-1.781,4.309c-0.007,0.022-0.013,0.045-0.019,0.068c0,0.003-0.001,0.006-0.002,0.008  c-0.363,1.485-0.34,3.499,0.066,5.982c0.314,1.942,1.736,3.494,3.111,4.994c1.139,1.242,2.315,2.525,2.812,3.969  c0.125,0.359-0.377,1.52-0.677,2.213c-0.58,1.338-1.179,2.725-0.698,3.959c1.916,4.955,3.792,9.039,4.207,9.932  c0.053,0.229,0.167,0.395,0.344,0.539c0.139,0.137,0.305,0.23,0.484,0.289c0.205,0.1,0.447,0.199,0.736,0.318  c0.533,0.217,1.305,0.527,2.26,0.898c1.74,0.68,4.453,1.703,7.486,2.729c7.864,2.66,13.877,4.008,17.873,4.008  c1.209,0,2.259-0.127,3.111-0.377c6.891-1.975,16.668-11.674,20.806-19.025c0.589-1.045,0.151-2.217-0.271-3.352  c-0.284-0.762-0.606-1.623-0.558-2.309c0.235-0.805,0.65-0.959,1.323-1.211c0.635-0.236,1.956-0.73,1.865-2.33  C85.57,52.461,85.4,51.148,84.986,49.746z M79.287,45.972c0.83,0.491,1.548,0.915,1.932,1.495c0.314,0.482,0.575,0.975,0.797,1.467  l-22.792,1.709L75.1,29.534c0.219,0.606,0.424,1.438,0.573,2.588c0.141,1.131-0.04,2.518-0.232,3.985  c-0.335,2.557-0.681,5.2,0.64,7.166C76.975,44.605,78.203,45.331,79.287,45.972z M49.561,43.513  c-0.11-0.093-0.236-0.166-0.372-0.216c-0.353-0.131-0.7-0.104-0.954-0.084l-0.064,0.006c-2.521-0.094-7.028-0.408-11.561-0.754  c2.551-3.254,6.8-8.279,9.166-9.486c1.896,0.762,4.795,3.599,6.211,4.986l0.173,0.168c0.001,0,0.002,0.002,0.003,0.003l0.023,0.027  c0.154,0.181,0.439,0.516,0.885,0.617c3.104,0.823,9.676-1.206,14.033-2.786L56.797,49.7C53.959,47.251,51.398,45.057,49.561,43.513  z M25.347,39.09c0.739-1.358,2.168-2.259,3.823-3.301c1.378-0.867,2.939-1.851,4.273-3.26c1.111-1.175,1.881-2.756,2.627-4.284  c0.759-1.557,1.544-3.167,2.533-3.897c2.369-1.739,4.52-2.918,6.219-3.406c1.236-0.358,2.815-0.54,4.691-0.54  c8.07,0,19.215,3.351,23.99,7.083l-3.553,4.724c-4.77,1.975-12.877,4.69-15.969,4.204c-0.024-0.026-0.049-0.051-0.07-0.072  l-0.172-0.167c-2.373-2.323-5.09-4.863-7.326-5.631c-0.392-0.146-0.965-0.175-1.422,0.036c-3.542,1.533-9.612,9.33-11.369,11.656  c-3.874-0.306-7.437-0.604-9.393-0.769C24.515,40.727,24.887,39.934,25.347,39.09z M28.958,60.428  c0.585-1.35,1.188-2.746,0.746-4.023c-0.664-1.936-2.083-3.482-3.334-4.848c-1.178-1.283-2.29-2.497-2.484-3.701  c-0.253-1.545-0.339-2.875-0.261-3.925c4.276,0.362,19.04,1.595,24.493,1.795c0.053,0.001,0.107,0,0.176-0.003  c2.802,2.361,7.086,6.056,11.467,9.857c0.948,3.109,2.956,10.176,3.458,13.928c-3.027-0.537-7.137-1.756-11.126-2.939  c-4.476-1.326-8.702-2.578-11.764-3.029c-0.013-0.002-0.035-0.006-0.048-0.008c-0.269-0.045-0.98-0.164-1.507,0.428  c-0.82,0.949-0.213,2.104,0.231,2.945c0.055,0.102,0.125,0.236,0.189,0.365c-2.116,0.814-5.45,2.779-7.263,3.887  c-0.769-1.699-2.188-4.928-3.633-8.666C28.205,62.166,28.695,61.035,28.958,60.428z M61.764,79.32  c-0.63,0.184-1.443,0.277-2.414,0.277c-7.084,0-19.975-4.793-25.189-6.855c2.194-1.307,5.123-2.949,6.463-3.313  c0.622-0.16,0.887-0.689,1.018-0.955c0.417-0.725,0.189-1.492-0.133-2.178c2.772,0.572,6.371,1.639,9.871,2.676  c4.625,1.371,9.406,2.789,12.725,3.207c0.23,0.037,0.93,0.15,1.432-0.43c0.196-0.227,0.305-0.518,0.305-0.818  c0-2.617-1.473-8.355-2.582-12.313c5.263,4.58,10.125,8.836,12.104,10.568C70.917,74.072,65.529,78.24,61.764,79.32z M82.883,53.484  c-0.816,0.305-2.335,0.873-2.896,3.012c-0.015,0.057-0.025,0.113-0.032,0.172c-0.152,1.299,0.315,2.553,0.691,3.561  c0.158,0.426,0.395,1.059,0.399,1.309c-1.072,1.893-2.466,3.855-4.04,5.758c-2.391-2.094-8.952-7.836-15.365-13.402H61.64  c-0.325-0.283-0.649-0.564-0.973-0.844l22.154-1.662c0.158,0.73,0.245,1.414,0.286,2.012C83.034,53.428,82.953,53.457,82.883,53.484  z"/><text x="0" y="115" fill="#000000" font-size="5px" font-weight="bold" font-family="'Helvetica Neue', Helvetica, Arial-Unicode, Arial, Sans-serif">Created by S. Salinas</text><text x="0" y="120" fill="#000000" font-size="5px" font-weight="bold" font-family="'Helvetica Neue', Helvetica, Arial-Unicode, Arial, Sans-serif">from the Noun Project</text></svg>