<svg xmlns="http://www.w3.org/2000/svg" xmlns:xlink="http://www.w3.org/1999/xlink" version="1.1" x="0px" y="0px" viewBox="0 0 198.819 125.0025" enable-background="new 0 0 198.819 100.002" xml:space="preserve"><g display="none"><path display="inline" d="M99.848,27.337c-0.554,0-1.064-0.364-1.225-0.923c-0.312-1.085-0.47-2.212-0.47-3.351   c0-3.135,1.194-6.109,3.361-8.374c0.486-0.509,1.296-0.525,1.803-0.039c0.509,0.486,0.526,1.293,0.04,1.802   c-1.712,1.788-2.654,4.135-2.654,6.611c0,0.9,0.124,1.791,0.371,2.646c0.194,0.677-0.195,1.382-0.873,1.577   C100.083,27.32,99.964,27.337,99.848,27.337z"/><path display="inline" d="M120.387,20.462c-0.514,0-0.996-0.312-1.19-0.819c-1.158-3.021-3.842-5.3-7.005-5.948   c-0.689-0.141-1.135-0.814-0.993-1.504c0.141-0.69,0.818-1.135,1.504-0.993c4.008,0.82,7.408,3.707,8.874,7.533   c0.253,0.657-0.075,1.395-0.734,1.646C120.693,20.435,120.539,20.462,120.387,20.462z"/><path display="inline" d="M115.402,33.577c-0.521,0-1.009-0.321-1.197-0.837c-0.242-0.661,0.098-1.393,0.759-1.635   c0.979-0.358,1.941-0.849,2.861-1.458c3.985-2.637,5.511-6.366,4.389-8.064c-0.492-0.741-1.377-1.026-2.032-1.135   c-0.694-0.115-1.165-0.772-1.049-1.466c0.114-0.695,0.772-1.162,1.465-1.05c1.656,0.274,2.949,1.05,3.741,2.244   c2.12,3.207-0.123,8.3-5.105,11.598c-1.086,0.719-2.228,1.3-3.393,1.727C115.696,33.551,115.547,33.577,115.402,33.577z"/><path display="inline" d="M119.066,53.782c-0.218,0-0.439-0.057-0.642-0.175c-0.608-0.354-0.812-1.136-0.458-1.743   c1.199-2.053,1.859-4.69,1.859-7.427c0-4.84-2.106-9.222-5.122-10.656c-0.637-0.302-0.906-1.062-0.604-1.699   c0.304-0.635,1.061-0.909,1.699-0.604c3.933,1.871,6.576,7.079,6.576,12.958c0,3.182-0.785,6.275-2.208,8.712   C119.931,53.555,119.504,53.782,119.066,53.782z"/><path display="inline" d="M84.28,62.886c-0.63,0-1.179-0.469-1.262-1.11c-0.108-0.836-0.164-1.689-0.164-2.539   c0-6.972,3.702-13.245,9.432-15.98c0.633-0.305,1.396-0.036,1.7,0.601c0.303,0.635,0.034,1.396-0.602,1.7   c-4.848,2.314-7.98,7.684-7.98,13.68c0,0.739,0.048,1.482,0.143,2.21c0.091,0.698-0.401,1.338-1.1,1.428   C84.391,62.882,84.335,62.886,84.28,62.886z"/><path display="inline" d="M92.777,45.712c-0.384,0-0.763-0.172-1.014-0.5c-0.428-0.56-0.32-1.359,0.238-1.787   c3.344-2.556,5.898-13.561,6.599-17.586c0.122-0.692,0.779-1.152,1.476-1.037c0.694,0.122,1.157,0.782,1.036,1.475   c-0.275,1.582-2.831,15.556-7.562,19.174C93.319,45.627,93.046,45.712,92.777,45.712z"/><path display="inline" d="M102.44,16.85c-0.268,0-0.536-0.083-0.767-0.257c-0.562-0.424-0.673-1.223-0.25-1.786   c0.61-0.808,2.007-3.181,3.356-5.475c3.091-5.251,4.094-6.847,4.777-7.303c0.413-0.277,0.93-0.321,1.386-0.116   c0.595,0.266,1.59,0.712,2.959,10.404c0.099,0.697-0.388,1.342-1.085,1.441c-0.698,0.1-1.342-0.388-1.44-1.084   c-0.358-2.535-0.879-5.429-1.32-7.187c-0.87,1.385-2.136,3.535-3.079,5.138c-1.45,2.464-2.819,4.792-3.517,5.717   C103.208,16.675,102.828,16.85,102.44,16.85z"/><path display="inline" d="M108.353,101.786c-0.031,0-0.063-0.001-0.095-0.004c-12.248-0.901-20.411-4.651-24.263-11.146   c-3.819-6.438-2.036-13.61-1.026-15.831c1.18-2.597,0.384-10.794-0.023-13.733c-0.097-0.697,0.391-1.341,1.088-1.437   c0.691-0.103,1.341,0.39,1.438,1.087c0.16,1.156,1.515,11.403-0.182,15.139c-0.798,1.757-2.348,8.003,0.898,13.475   c3.402,5.735,10.89,9.068,22.257,9.905c0.702,0.051,1.23,0.662,1.178,1.364C109.574,101.275,109.014,101.786,108.353,101.786z"/><path display="inline" d="M108.352,101.786c-0.705,0-1.275-0.57-1.275-1.275c0-0.704,0.57-1.274,1.275-1.274   c3.308,0,5.513-1.133,5.948-1.734c-0.272-0.201-1.223-0.707-3.985-0.812c-1,0.105-7.864,0.65-15.315-3.682   c-4.733-2.752-7.395-5.801-7.912-9.062c-0.526-3.319,1.426-5.545,1.509-5.639c0.241-0.27,0.587-0.425,0.95-0.425h21.307   c-1.373-2.003-4.979-2.452-5.876-2.534c-0.204-0.009-0.331-0.027-0.357-0.032c-0.665-0.109-1.13-0.72-1.059-1.39   c0.07-0.671,0.617-1.173,1.323-1.142c0.035,0.001,0.154,0.008,0.339,0.023c0.521-0.008,2.037-0.21,3.333-2.206   c1.122-1.727,1.413-3.55,1.484-4.567c-0.006-0.546,0.01-0.891,0.012-0.958c0.03-0.673,0.58-1.207,1.254-1.218   c0.008,0,0.014,0,0.02,0c0.667,0,1.221,0.514,1.271,1.178c0.004,0.048,0.03,0.434-0.005,1.045c0.026,2.16,0.354,7.69,2.945,10.398   c0.953,0.994,2.105,1.479,3.522,1.479c1.252,0,1.901-0.123,2.219-0.222c-0.485-0.695-2.075-1.958-3.688-2.896   c-0.197-0.113-0.36-0.279-0.471-0.477c-3.023-5.374,0.308-20.445,0.697-22.146c0.156-0.686,0.841-1.112,1.527-0.957   c0.686,0.157,1.114,0.841,0.957,1.527c-0.974,4.252-3.014,15.928-1.106,20.04c2.52,1.507,5.241,3.652,4.698,5.667   c-0.48,1.784-2.836,2.013-4.834,2.013c-2.07,0-3.841-0.727-5.263-2.161c0.049,0.218,0.085,0.444,0.109,0.68   c0.036,0.358-0.081,0.717-0.322,0.984c-0.241,0.269-0.585,0.421-0.946,0.421H90.204c-0.344,0.577-0.834,1.702-0.59,3.16   c0.407,2.418,2.712,4.913,6.667,7.212c7.149,4.157,13.752,3.353,13.817,3.345c0.07-0.011,0.145-0.017,0.209-0.011   c5.499,0.189,6.625,1.923,6.6,3.343C116.866,99.855,113.029,101.786,108.352,101.786z M109.243,73.709   c0.84,0.321,1.686,0.755,2.426,1.336c-0.422-0.989-0.736-2.034-0.97-3.06c0,0.001-0.002,0.002-0.003,0.005   C110.233,72.702,109.74,73.264,109.243,73.709z"/></g><g display="none"><path display="inline" d="M100.727,83.282c-17.012,0-36.348-0.611-37.568-0.651c0,0-0.006,0-0.006,0   c-21.277,0.002-32.639-3.867-34.688-11.824c-3.872-15.033,29.831-37.512,36.194-41.022c0.981-0.542,2.094-1.179,3.325-1.883   c10.086-5.768,28.858-16.504,48.487-16.504c0.952,0,1.723,0.771,1.723,1.723c0,0.952-0.771,1.723-1.723,1.723   c-18.713,0-36.969,10.44-46.776,16.049c-1.249,0.714-2.377,1.359-3.372,1.909c-7.858,4.335-37.538,25.436-34.521,37.146   c1.086,4.216,7.417,9.241,31.414,9.241c0.506,0.015,45.317,1.425,58.896,0.01c0.982-0.109,1.793,0.587,1.893,1.532   c0.099,0.947-0.587,1.796-1.532,1.893C117.751,83.117,109.551,83.282,100.727,83.282z"/><path display="inline" d="M122.542,82.582c-0.782,0-1.492-0.536-1.676-1.332c-0.215-0.927,0.36-1.853,1.287-2.067   c13.169-3.062,22.728-16.455,22.728-31.846c0-17.917-12.745-32.494-28.41-32.494c-0.952,0-1.723-0.771-1.723-1.723   c0-0.951,0.771-1.723,1.723-1.723c17.564,0,31.855,16.122,31.855,35.939c0,16.978-10.68,31.781-25.393,35.2   C122.802,82.568,122.671,82.582,122.542,82.582z"/><path display="inline" d="M132.157,111.397c-3.251,0-6.463-0.459-9.548-1.367c-0.912-0.268-1.436-1.225-1.166-2.139   c0.27-0.91,1.216-1.439,2.138-1.166c2.77,0.814,5.654,1.227,8.576,1.227c16.551,0,30.014-13.286,30.014-29.619   c0-11.228-6.309-21.358-16.464-26.438c-0.852-0.426-1.196-1.46-0.771-2.312c0.427-0.851,1.46-1.192,2.312-0.771   c11.33,5.669,18.368,16.981,18.368,29.521C165.616,96.565,150.607,111.397,132.157,111.397z"/><path display="inline" d="M75.438,63.453c-0.554,0-1.097-0.266-1.43-0.759c-0.532-0.789-0.324-1.86,0.465-2.393   c2.778-1.874,4.437-4.991,4.436-8.335c0-5.542-4.508-10.049-10.048-10.049c-4.239,0-8.043,2.682-9.468,6.673   c-0.319,0.896-1.306,1.368-2.201,1.043c-0.896-0.32-1.363-1.304-1.044-2.201c1.912-5.359,7.021-8.96,12.713-8.96   c7.441,0,13.494,6.054,13.494,13.495c0.001,4.491-2.225,8.675-5.955,11.191C76.104,63.357,75.769,63.453,75.438,63.453z"/><path display="inline" d="M40.402,52.216c-0.404,0-0.812-0.141-1.139-0.431c-2.904-2.562-4.569-6.251-4.568-10.119   c0-7.441,6.054-13.495,13.495-13.495c3.869,0,7.558,1.665,10.119,4.566c0.63,0.713,0.562,1.802-0.151,2.431   c-0.713,0.631-1.803,0.562-2.431-0.151c-1.907-2.161-4.655-3.401-7.536-3.401c-5.542,0-10.049,4.508-10.049,10.049   c-0.001,2.881,1.24,5.628,3.402,7.536c0.713,0.629,0.782,1.717,0.152,2.431C41.354,52.02,40.879,52.216,40.402,52.216z"/><path display="inline" d="M52.117,65.222c-3.431,0-6.222-2.791-6.222-6.223s2.791-6.223,6.222-6.223   c3.431,0,6.223,2.791,6.223,6.223S55.547,65.222,52.117,65.222z M52.117,56.222c-1.531,0-2.777,1.246-2.777,2.777   s1.246,2.777,2.777,2.777c1.532,0,2.777-1.246,2.777-2.777S53.648,56.222,52.117,56.222z"/></g><g><path d="M105.302,100.002c-0.705,0-1.417-0.227-2.019-0.693C88.183,87.68,79.521,70.091,79.521,51.051   c0-20.255,10.034-39.128,26.838-50.483c1.515-1.024,3.579-0.623,4.602,0.89c1.022,1.518,0.628,3.577-0.894,4.601   C95.091,16.18,86.147,33,86.147,51.051c0,16.966,7.72,32.643,21.182,43.01c1.45,1.12,1.715,3.197,0.602,4.646   C107.278,99.555,106.294,100.002,105.302,100.002z"/><path d="M148.527,83.662c-0.705,0-1.417-0.227-2.02-0.692c-10.102-7.785-15.894-19.554-15.894-32.288   c0-13.553,6.711-26.178,17.958-33.775c1.521-1.023,3.579-0.625,4.602,0.891c1.022,1.516,0.628,3.576-0.894,4.6   c-9.416,6.363-15.039,16.938-15.039,28.285c0,10.661,4.854,20.516,13.312,27.04c1.449,1.119,1.722,3.196,0.602,4.646   C150.5,83.215,149.523,83.662,148.527,83.662z"/><path d="M127.009,93c-0.705,0-1.417-0.226-2.02-0.692c-12.962-9.979-20.393-25.076-20.393-41.413   c0-17.382,8.608-33.579,23.033-43.323c1.515-1.022,3.579-0.624,4.602,0.89c1.022,1.518,0.628,3.577-0.894,4.601   c-12.593,8.51-20.113,22.653-20.113,37.832c0,14.266,6.491,27.448,17.81,36.165c1.45,1.12,1.715,3.197,0.602,4.646   C128.983,92.553,128,93,127.009,93z"/><path d="M154.901,54.364H57.155c-1.83,0-3.313-1.483-3.313-3.313c0-1.83,1.483-3.313,3.313-3.313h97.746   c1.831,0,3.313,1.483,3.313,3.313C158.214,52.88,156.732,54.364,154.901,54.364z"/><path d="M56.049,93.938c-0.001,0-0.001,0-0.003,0C47.84,93.938,0,59.465,0,50.514C0,42.515,45.688,5.473,55.552,5.473   c2.894,0,4.917,1.992,4.917,4.844v79.371c0,1.313-0.527,2.472-1.485,3.261C58.437,93.401,57.485,93.938,56.049,93.938z    M6.779,50.486c3.613,6.52,36.688,31.667,47.063,36.146V12.517C44.237,16.199,10.435,43.23,6.779,50.486z"/><path d="M192.085,88.645c-3.437,0-8.348-1.761-15.014-5.391c-9.468-5.146-25.484-17.726-25.484-32.204   c0-14.188,15.467-26.282,27.103-34.145c3.21-2.648,6.354-4.083,9.105-4.083c3.08,0,5.52,1.728,6.685,4.74   c2.725,7.026-1.922,21.483-13.991,33.669c6.445,7.398,21.343,25.765,17.79,33.802C197.683,86.379,196.085,88.645,192.085,88.645z    M187.795,19.449c-0.414,0-2.02,0.199-5.151,2.765c-6.226,4.226-24.43,16.526-24.43,28.836c0,10.57,13.169,21.571,22.022,26.385   c7.72,4.2,11.008,4.641,12.023,4.582c0.116-2.841-5.041-13.603-18.818-28.736c-1.229-1.353-1.133-3.446,0.22-4.679   C186.145,37.211,189.827,23.9,188.3,19.958C188.106,19.449,188.015,19.449,187.795,19.449z"/><path d="M38.882,53.021c-6.596,0-11.961-5.365-11.961-11.96c0-6.596,5.365-11.961,11.961-11.961   c6.596,0,11.961,5.365,11.961,11.961C50.843,47.656,45.478,53.021,38.882,53.021z M38.882,35.727c-2.941,0-5.334,2.393-5.334,5.334   s2.393,5.334,5.334,5.334s5.334-2.393,5.334-5.334S41.823,35.727,38.882,35.727z"/></g><text x="0" y="115.002" fill="#000000" font-size="5px" font-weight="bold" font-family="'Helvetica Neue', Helvetica, Arial-Unicode, Arial, Sans-serif">Created by Claire Skelly</text><text x="0" y="120.002" fill="#000000" font-size="5px" font-weight="bold" font-family="'Helvetica Neue', Helvetica, Arial-Unicode, Arial, Sans-serif">from the Noun Project</text></svg>