<svg xmlns="http://www.w3.org/2000/svg" xmlns:xlink="http://www.w3.org/1999/xlink" version="1.1" x="0px" y="0px" viewBox="0 0 100 125" enable-background="new 0 0 100 100" xml:space="preserve"><g><path fill="none" d="M66.636,68.718c-0.595-0.607-1.61-0.734-2.357-0.734c-1.228,0-2.322,0.332-2.333,0.335   c-0.12,0.037-0.249,0.06-0.374,0.064c-0.018,0.001-0.098,0.002-0.117,0.002c-0.544,0-3.341-0.115-4.897-2.392   c-1.286-1.881-1.298-4.584-0.037-8.041c-0.034-0.13-0.07-0.273-0.105-0.408c-0.024-0.092-0.047-0.183-0.071-0.276   c-0.063-0.247-0.127-0.501-0.192-0.762c-0.032-0.127-0.063-0.252-0.095-0.382c-0.06-0.244-0.12-0.493-0.181-0.746   c-0.036-0.152-0.072-0.302-0.109-0.457c-0.058-0.245-0.115-0.496-0.173-0.749c-0.039-0.171-0.078-0.341-0.117-0.516   c-0.056-0.252-0.112-0.508-0.168-0.767c-0.039-0.18-0.078-0.359-0.116-0.543c-0.055-0.26-0.108-0.524-0.162-0.789   c-0.038-0.189-0.077-0.377-0.114-0.569c-0.052-0.266-0.103-0.535-0.153-0.805c-0.036-0.194-0.073-0.386-0.108-0.582   c-0.05-0.275-0.097-0.552-0.144-0.829c-0.033-0.193-0.066-0.385-0.098-0.579c-0.046-0.283-0.089-0.567-0.132-0.851   c-0.029-0.191-0.059-0.381-0.086-0.571c-0.042-0.292-0.079-0.584-0.117-0.876c-0.023-0.181-0.048-0.362-0.07-0.543   c-0.037-0.305-0.068-0.607-0.1-0.91c-0.018-0.168-0.037-0.336-0.053-0.503c-0.03-0.316-0.054-0.628-0.077-0.941   c-0.011-0.15-0.026-0.302-0.035-0.451c-0.022-0.331-0.036-0.656-0.049-0.981c-0.005-0.127-0.014-0.257-0.018-0.383   c-0.011-0.347-0.013-0.686-0.013-1.024c0-0.099-0.004-0.201-0.003-0.299c0.003-0.389,0.016-0.768,0.035-1.141   c0.002-0.042,0.002-0.087,0.004-0.129c0.023-0.414,0.057-0.818,0.101-1.208c0.009-0.078,0.016-0.158,0.025-0.236   c0.032-0.291,0.063-0.584,0.092-0.882c0.014-0.149,0.026-0.301,0.04-0.452c0.021-0.233,0.041-0.467,0.06-0.703   c0.013-0.164,0.024-0.33,0.036-0.495c0.016-0.223,0.032-0.446,0.046-0.671c0.011-0.175,0.021-0.35,0.031-0.525   c0.012-0.219,0.024-0.439,0.035-0.659c0.009-0.179,0.017-0.359,0.025-0.538c0.009-0.213,0.018-0.427,0.026-0.64   c0.007-0.189,0.014-0.377,0.019-0.566c0.006-0.2,0.012-0.399,0.017-0.598c0.005-0.201,0.01-0.401,0.015-0.601   c0.004-0.18,0.007-0.359,0.01-0.538c0.004-0.217,0.007-0.434,0.01-0.649c0.002-0.139,0.002-0.276,0.003-0.415   c0.002-0.255,0.004-0.51,0.005-0.761c0-0.017,0-0.033,0-0.049c0.006-2.51-0.057-4.844-0.13-6.688l-0.07-0.008l-0.211-0.024   c-0.07,0.191-0.141,0.384-0.216,0.59c-0.014,0.038-0.027,0.074-0.041,0.113c-0.099,0.274-0.204,0.566-0.31,0.864   c-0.021,0.06-0.042,0.116-0.063,0.177c-0.116,0.326-0.235,0.667-0.357,1.016c-0.011,0.033-0.022,0.063-0.034,0.096   c-0.133,0.384-0.269,0.781-0.407,1.188c-0.031,0.091-0.062,0.187-0.093,0.279c-0.104,0.31-0.209,0.623-0.314,0.944   c-0.056,0.17-0.112,0.346-0.168,0.519c-0.081,0.251-0.162,0.501-0.244,0.756c-0.061,0.192-0.122,0.388-0.183,0.583   c-0.077,0.246-0.154,0.492-0.23,0.742c-0.061,0.201-0.122,0.403-0.182,0.605c-0.074,0.246-0.147,0.492-0.219,0.74   c-0.061,0.207-0.12,0.416-0.179,0.624c-0.07,0.246-0.14,0.493-0.208,0.74c-0.058,0.208-0.114,0.416-0.17,0.625   c-0.067,0.248-0.132,0.496-0.196,0.744c-0.053,0.206-0.106,0.412-0.157,0.617c-0.062,0.248-0.121,0.494-0.18,0.74   c-0.048,0.201-0.095,0.401-0.141,0.6c-0.057,0.251-0.11,0.499-0.163,0.746c-0.04,0.189-0.081,0.378-0.119,0.564   c-0.052,0.258-0.098,0.51-0.145,0.763c-0.031,0.168-0.064,0.339-0.092,0.505c-0.048,0.28-0.088,0.552-0.128,0.823   c-0.019,0.13-0.042,0.264-0.059,0.391c-0.053,0.395-0.097,0.78-0.129,1.15c0,0.002,0,0.005-0.001,0.007   c-0.255,2.944-0.284,6.135-0.284,9.489c0.026,1.556,0.075,3.018,0.121,4.359c0.076,2.16,0.14,4.027,0.084,5.618   c-0.005,0.13-0.026,0.261-0.066,0.386c-0.047,0.149-0.11,0.335-0.182,0.537c0.002,8.528,2.197,11.156,4.056,11.841   c1.193,0.439,2.286,0.662,3.25,0.662c1.6,0,2.648-0.594,3.662-1.17c0.84-0.476,1.71-0.969,2.749-0.969   c0.579,0,1.148,0.156,1.689,0.464c2.513,1.433,2.443,4.019,2.398,5.732c-0.018,0.676-0.045,1.697,0.181,1.856   c1.061,0.743,1.843,1.181,2.406,1.439c-0.862-1.462-1.6-4.073-1.513-8.734C67.328,69.976,67.102,69.193,66.636,68.718z"/><path fill="none" d="M48.993,25.943c0.208-0.648,0.417-1.282,0.626-1.901c0.038-0.113,0.075-0.222,0.113-0.334   c0.213-0.627,0.425-1.241,0.631-1.826c-1.832,1.545-4.307,4.138-5.441,7.579c-0.916,2.776-1.389,6.396-1.847,9.898   c-0.588,4.492-1.143,8.734-2.608,11.385c-0.537,0.971-0.894,2.125-1.239,3.243c-0.855,2.764-1.92,6.205-6.266,6.205   c-1.196,0-2.569-0.266-4.196-0.812c-1.37-0.459-2.576-0.874-3.651-1.243c-4.26-1.462-6.398-2.195-8.31-2.195   c-0.546,0-1.093,0.056-1.723,0.176c-1.812,0.345-3.687,1.357-5.086,2.366c2.908,0.109,6.721,0.748,9.971,2.945   c1.157,0.783,2.277,1.685,3.462,2.64c3.153,2.541,6.412,5.169,10.148,5.169c1.361,0,2.709-0.337,4.121-1.032   c4.788-2.355,6.981-6.626,7.825-8.795c0-0.045,0-0.098,0.001-0.137c-0.035-0.133-0.051-0.274-0.046-0.419   c0.096-2.771,0.094-5.562,0.09-8.26c-0.001-0.524,0.001-1.033,0.001-1.549c-0.048-2.931-0.012-6.21,0.296-9.763   c0-0.003,0-0.006,0.001-0.008c0.05-0.571,0.129-1.176,0.22-1.793c0.018-0.123,0.035-0.244,0.055-0.369   c0.096-0.605,0.208-1.225,0.336-1.86c0.023-0.113,0.048-0.227,0.072-0.341c0.126-0.6,0.262-1.209,0.41-1.827   c0.02-0.083,0.038-0.165,0.058-0.248c0.163-0.666,0.338-1.337,0.521-2.01c0.04-0.147,0.08-0.293,0.121-0.44   c0.186-0.67,0.377-1.339,0.575-2.004c0.022-0.074,0.045-0.145,0.067-0.219c0.19-0.631,0.384-1.254,0.58-1.87   C48.919,26.176,48.956,26.06,48.993,25.943z"/><path fill="none" d="M82.844,61.745c-0.617-0.047-1.228-0.071-1.814-0.071c-1.163,0-2.08,0.091-2.888,0.171   c-0.647,0.063-1.206,0.119-1.772,0.119c-2.306,0-3.953-0.977-6.777-4.023c-5.457-5.882-8.269-10.191-9.707-14.871   c-1.436-4.671-2.323-15.815-2.36-16.287c-0.003-0.034-0.005-0.07-0.005-0.104c-0.006-0.731-0.112-1.849-0.359-2.914   c0.003,0.121,0.004,0.252,0.006,0.375c0,0.001,0,0.002,0,0.002c0.011,0.6,0.019,1.221,0.023,1.859   c0.002,0.218,0.003,0.436,0.004,0.657c0.001,0.252,0.001,0.504,0,0.76c-0.001,0.297-0.003,0.598-0.006,0.899   c-0.002,0.208-0.003,0.413-0.006,0.622c-0.006,0.472-0.016,0.948-0.028,1.426c-0.005,0.19-0.011,0.38-0.017,0.571   c-0.011,0.367-0.024,0.734-0.039,1.102c-0.007,0.174-0.013,0.347-0.021,0.521c-0.023,0.513-0.05,1.025-0.082,1.534   c-0.008,0.129-0.018,0.256-0.026,0.384c-0.027,0.41-0.058,0.817-0.091,1.221c-0.013,0.16-0.027,0.319-0.041,0.477   c-0.044,0.495-0.092,0.985-0.147,1.466c-0.002,0.02-0.004,0.041-0.006,0.061c-0.008,0.071-0.011,0.147-0.019,0.219   c-0.029,0.285-0.056,0.573-0.072,0.871c-0.01,0.181-0.012,0.371-0.018,0.558c-0.006,0.198-0.015,0.392-0.017,0.595   c-0.002,0.21,0.003,0.426,0.006,0.64c0.003,0.189,0.003,0.375,0.009,0.567c0.007,0.224,0.02,0.452,0.032,0.68   c0.01,0.19,0.018,0.379,0.031,0.572c0.015,0.232,0.035,0.467,0.054,0.701c0.016,0.195,0.031,0.389,0.05,0.585   c0.022,0.235,0.048,0.472,0.074,0.709c0.022,0.201,0.044,0.401,0.068,0.603c0.028,0.236,0.059,0.473,0.091,0.71   c0.027,0.206,0.055,0.412,0.085,0.618c0.033,0.233,0.068,0.465,0.104,0.698c0.033,0.212,0.066,0.424,0.1,0.635   c0.037,0.227,0.075,0.454,0.114,0.681c0.037,0.217,0.076,0.434,0.114,0.65c0.039,0.219,0.079,0.437,0.12,0.654   c0.042,0.223,0.085,0.445,0.128,0.666c0.04,0.205,0.08,0.411,0.121,0.614c0.047,0.232,0.095,0.462,0.143,0.69   c0.039,0.187,0.078,0.374,0.118,0.558c0.053,0.245,0.106,0.485,0.16,0.724c0.036,0.161,0.072,0.325,0.108,0.483   c0.058,0.254,0.116,0.501,0.174,0.748c0.033,0.139,0.065,0.281,0.098,0.417c0.066,0.276,0.131,0.543,0.196,0.808   c0.023,0.095,0.047,0.195,0.07,0.288c0.086,0.345,0.17,0.679,0.253,0.999c0.003,0.01,0.005,0.021,0.008,0.032   c0.002,0.008,0.004,0.015,0.006,0.023c0.084,0.085,0.159,0.181,0.221,0.288c0.05,0.085,5.332,8.829,16.14,9.815   c0.999,0.092,1.95,0.138,2.826,0.138c3.037,0,4.736-0.531,6.234-0.999c1.556-0.486,3.077-0.887,4.975-0.424   C88.022,63.731,85.764,61.968,82.844,61.745z"/><path fill="none" d="M61.325,65.478c0.352-0.093,1.056-0.257,1.908-0.342c-2.004-1.464-3.508-3.012-4.551-4.255   c-0.329,1.529-0.247,2.715,0.271,3.473C59.608,65.312,60.895,65.457,61.325,65.478z"/><path d="M94.882,68.385c-0.157-0.365-3.927-8.934-11.817-9.535c-0.691-0.052-1.375-0.078-2.035-0.078   c-1.307,0-2.343,0.102-3.174,0.185c-0.571,0.056-1.063,0.105-1.486,0.105c-1.042,0-1.986-0.222-4.649-3.094   c-5.136-5.536-7.761-9.52-9.06-13.749c-1.296-4.218-2.171-14.796-2.237-15.612c-0.011-0.982-0.238-7.154-3.953-8.461l-0.133-0.211   c-0.235-0.372-0.626-0.618-1.063-0.668l-2.64-0.303c-0.435-0.052-0.872,0.101-1.185,0.409l-0.448,0.442   c-0.96,0.586-6.722,4.323-8.838,10.738c-1.001,3.036-1.492,6.795-1.968,10.431c-0.526,4.025-1.071,8.188-2.27,10.357   c-0.681,1.232-1.083,2.532-1.472,3.789c-0.954,3.082-1.468,4.16-3.492,4.16c-0.865,0-1.966-0.222-3.272-0.661   c-1.364-0.457-2.564-0.869-3.633-1.237c-5.942-2.038-8.058-2.785-11.519-2.125C10.616,54.013,6,57.382,5.111,59.512   c-0.201,0.483-0.126,1.036,0.195,1.449c0.321,0.414,0.838,0.622,1.358,0.545c0.009-0.001,0.953-0.137,2.37-0.137   c2.583,0,6.294,0.428,9.308,2.466c1.056,0.714,2.128,1.578,3.265,2.494c3.38,2.725,7.21,5.812,11.97,5.812   c1.79,0,3.607-0.448,5.403-1.331c3.149-1.548,5.341-3.787,6.845-5.91c0.693,5.232,2.583,8.454,5.657,9.587   c1.536,0.566,2.928,0.842,4.254,0.842c2.365,0,3.943-0.894,5.094-1.547c0.513-0.291,1.043-0.592,1.317-0.592   c0.031,0,0.105,0,0.251,0.083c0.906,0.517,0.98,1.351,0.933,3.132c-0.039,1.452-0.087,3.259,1.419,4.312   c2.27,1.589,3.946,2.329,5.274,2.329c1.041,0,1.674-0.454,2.021-0.834c0.773-0.849,0.715-1.948,0.697-2.16   c-0.054-0.579-0.447-1.066-0.99-1.245c-0.173-0.131-1.659-1.448-1.541-7.708c0.018-0.948-0.104-1.794-0.36-2.537   c1.649,0.55,3.459,0.956,5.441,1.137c1.087,0.099,2.126,0.149,3.09,0.149c3.481,0,5.572-0.654,7.099-1.131   c0.95-0.297,1.636-0.511,2.376-0.511c0.798,0,2.078,0.226,4.928,1.986c0.235,0.146,0.499,0.216,0.763,0.216   c0.339,0,0.678-0.119,0.948-0.353C94.976,69.642,95.132,68.966,94.882,68.385z M48.235,28.382c-0.199,0.665-0.39,1.334-0.575,2.004   c-0.041,0.147-0.081,0.293-0.121,0.44c-0.183,0.673-0.359,1.345-0.521,2.01c-0.02,0.084-0.038,0.165-0.058,0.248   c-0.148,0.617-0.285,1.226-0.41,1.827c-0.024,0.114-0.049,0.228-0.072,0.341c-0.129,0.635-0.24,1.255-0.336,1.86   c-0.02,0.125-0.037,0.246-0.055,0.369c-0.092,0.618-0.171,1.222-0.22,1.793c0,0.003,0,0.006-0.001,0.008   c-0.308,3.554-0.344,6.833-0.296,9.763c0,0.516-0.001,1.025-0.001,1.549c0.004,2.698,0.007,5.489-0.09,8.26   c-0.005,0.145,0.011,0.285,0.046,0.419c0,0.039-0.001,0.091-0.001,0.137c-0.844,2.169-3.037,6.44-7.825,8.795   c-1.413,0.695-2.761,1.032-4.121,1.032c-3.736,0-6.995-2.628-10.148-5.169c-1.185-0.955-2.305-1.857-3.462-2.64   c-3.25-2.196-7.063-2.836-9.971-2.945c1.4-1.009,3.275-2.021,5.086-2.366c0.629-0.12,1.177-0.176,1.723-0.176   c1.912,0,4.05,0.733,8.31,2.195c1.075,0.369,2.28,0.783,3.651,1.243c1.627,0.546,3.001,0.812,4.196,0.812   c4.345,0,5.41-3.441,6.266-6.205c0.345-1.117,0.702-2.272,1.239-3.243c1.466-2.651,2.021-6.893,2.608-11.385   c0.457-3.501,0.931-7.122,1.847-9.898c1.134-3.441,3.609-6.034,5.441-7.579c-0.206,0.584-0.418,1.198-0.631,1.826   c-0.038,0.112-0.075,0.221-0.113,0.334c-0.209,0.619-0.418,1.253-0.626,1.901c-0.037,0.116-0.074,0.233-0.111,0.35   c-0.196,0.616-0.39,1.24-0.58,1.87C48.28,28.237,48.257,28.309,48.235,28.382z M66.415,78.34c-0.227-0.159-0.199-1.18-0.181-1.856   c0.045-1.712,0.115-4.299-2.398-5.732c-0.541-0.308-1.11-0.464-1.689-0.464c-1.04,0-1.909,0.492-2.749,0.969   c-1.014,0.576-2.062,1.17-3.662,1.17c-0.964,0-2.057-0.223-3.25-0.662c-1.859-0.685-4.053-3.312-4.056-11.841   c0.072-0.202,0.135-0.388,0.182-0.537c0.04-0.125,0.061-0.255,0.066-0.386c0.056-1.591-0.009-3.458-0.084-5.618   c-0.046-1.341-0.095-2.804-0.121-4.359c0.001-3.354,0.03-6.545,0.284-9.489c0-0.002,0-0.005,0.001-0.007   c0.032-0.37,0.076-0.755,0.129-1.15c0.017-0.127,0.04-0.261,0.059-0.391c0.04-0.271,0.08-0.543,0.128-0.823   c0.028-0.166,0.062-0.336,0.092-0.505c0.046-0.252,0.093-0.505,0.145-0.763c0.038-0.186,0.079-0.376,0.119-0.564   c0.053-0.247,0.106-0.495,0.163-0.746c0.045-0.199,0.093-0.399,0.141-0.6c0.058-0.246,0.118-0.492,0.18-0.74   c0.051-0.205,0.104-0.411,0.157-0.617c0.064-0.248,0.129-0.495,0.196-0.744c0.056-0.208,0.112-0.416,0.17-0.625   c0.068-0.247,0.138-0.493,0.208-0.74c0.059-0.208,0.119-0.416,0.179-0.624c0.072-0.248,0.146-0.494,0.219-0.74   c0.061-0.202,0.121-0.405,0.182-0.605c0.076-0.249,0.153-0.495,0.23-0.742c0.061-0.195,0.121-0.391,0.183-0.583   c0.081-0.255,0.162-0.505,0.244-0.756c0.056-0.173,0.112-0.349,0.168-0.519c0.105-0.321,0.21-0.634,0.314-0.944   c0.031-0.092,0.062-0.188,0.093-0.279c0.138-0.407,0.274-0.804,0.407-1.188c0.011-0.033,0.022-0.063,0.034-0.096   c0.122-0.35,0.241-0.69,0.357-1.016c0.022-0.061,0.042-0.117,0.063-0.177c0.106-0.298,0.211-0.59,0.31-0.864   c0.014-0.039,0.027-0.074,0.041-0.113c0.075-0.207,0.146-0.399,0.216-0.59l0.211,0.024l0.07,0.008   c0.073,1.843,0.135,4.178,0.13,6.688c0,0.017,0,0.033,0,0.049c-0.001,0.252-0.003,0.507-0.005,0.761   c-0.001,0.138-0.002,0.276-0.003,0.415c-0.002,0.215-0.006,0.432-0.01,0.649c-0.003,0.179-0.006,0.358-0.01,0.538   c-0.004,0.2-0.009,0.4-0.015,0.601c-0.005,0.199-0.011,0.398-0.017,0.598c-0.006,0.189-0.013,0.377-0.019,0.566   c-0.008,0.213-0.017,0.427-0.026,0.64c-0.008,0.179-0.016,0.359-0.025,0.538c-0.011,0.22-0.023,0.44-0.035,0.659   c-0.01,0.175-0.02,0.351-0.031,0.525c-0.014,0.225-0.03,0.448-0.046,0.671c-0.012,0.165-0.023,0.331-0.036,0.495   c-0.018,0.236-0.039,0.469-0.06,0.703c-0.013,0.151-0.025,0.303-0.04,0.452c-0.028,0.297-0.06,0.59-0.092,0.882   c-0.009,0.078-0.016,0.158-0.025,0.236c-0.045,0.391-0.078,0.794-0.101,1.208c-0.002,0.042-0.002,0.087-0.004,0.129   c-0.019,0.373-0.032,0.752-0.035,1.141c-0.001,0.098,0.003,0.2,0.003,0.299c0,0.338,0.002,0.677,0.013,1.024   c0.004,0.126,0.013,0.256,0.018,0.383c0.014,0.325,0.028,0.65,0.049,0.981c0.01,0.149,0.024,0.301,0.035,0.451   c0.024,0.313,0.047,0.625,0.077,0.941c0.016,0.167,0.035,0.335,0.053,0.503c0.032,0.303,0.063,0.605,0.1,0.91   c0.022,0.181,0.047,0.362,0.07,0.543c0.038,0.292,0.075,0.584,0.117,0.876c0.027,0.191,0.057,0.381,0.086,0.571   c0.043,0.284,0.086,0.568,0.132,0.851c0.032,0.194,0.065,0.386,0.098,0.579c0.047,0.277,0.094,0.554,0.144,0.829   c0.035,0.195,0.072,0.388,0.108,0.582c0.05,0.27,0.101,0.539,0.153,0.805c0.038,0.192,0.076,0.38,0.114,0.569   c0.054,0.265,0.107,0.529,0.162,0.789c0.039,0.183,0.077,0.362,0.116,0.543c0.056,0.258,0.111,0.514,0.168,0.767   c0.039,0.174,0.078,0.344,0.117,0.516c0.058,0.253,0.115,0.503,0.173,0.749c0.037,0.155,0.073,0.306,0.109,0.457   c0.061,0.254,0.121,0.503,0.181,0.746c0.032,0.13,0.063,0.255,0.095,0.382c0.065,0.261,0.129,0.515,0.192,0.762   c0.024,0.094,0.047,0.185,0.071,0.276c0.035,0.135,0.071,0.278,0.105,0.408c-1.261,3.456-1.249,6.16,0.037,8.041   c1.557,2.277,4.353,2.392,4.897,2.392c0.019,0,0.099-0.001,0.117-0.002c0.126-0.005,0.254-0.027,0.374-0.064   c0.011-0.003,1.106-0.335,2.333-0.335c0.747,0,1.762,0.128,2.357,0.734c0.466,0.474,0.693,1.258,0.672,2.327   c-0.087,4.661,0.651,7.272,1.513,8.734C68.257,79.521,67.476,79.083,66.415,78.34z M58.683,60.881   c1.043,1.243,2.547,2.791,4.551,4.255c-0.852,0.085-1.556,0.249-1.908,0.342c-0.431-0.021-1.717-0.165-2.372-1.124   C58.435,63.597,58.354,62.41,58.683,60.881z M84.616,65.947c-1.498,0.468-3.196,0.999-6.234,0.999   c-0.876,0-1.827-0.046-2.826-0.138c-10.808-0.987-16.09-9.73-16.14-9.815c-0.062-0.107-0.137-0.203-0.221-0.288   c-0.002-0.008-0.004-0.015-0.006-0.023c-0.003-0.01-0.005-0.021-0.008-0.032c-0.083-0.321-0.167-0.654-0.253-0.999   c-0.023-0.093-0.047-0.193-0.07-0.288c-0.065-0.265-0.13-0.531-0.196-0.808c-0.033-0.136-0.065-0.279-0.098-0.417   c-0.058-0.247-0.116-0.494-0.174-0.748c-0.036-0.159-0.072-0.322-0.108-0.483c-0.053-0.239-0.107-0.479-0.16-0.724   c-0.04-0.184-0.079-0.372-0.118-0.558c-0.048-0.229-0.096-0.458-0.143-0.69c-0.041-0.203-0.081-0.408-0.121-0.614   c-0.043-0.221-0.086-0.443-0.128-0.666c-0.041-0.217-0.08-0.435-0.12-0.654c-0.039-0.216-0.077-0.432-0.114-0.65   c-0.039-0.226-0.077-0.453-0.114-0.681c-0.034-0.212-0.068-0.423-0.1-0.635c-0.036-0.233-0.07-0.465-0.104-0.698   c-0.03-0.206-0.057-0.412-0.085-0.618c-0.031-0.237-0.062-0.474-0.091-0.71c-0.024-0.202-0.046-0.402-0.068-0.603   c-0.026-0.237-0.052-0.474-0.074-0.709c-0.019-0.196-0.034-0.39-0.05-0.585c-0.019-0.235-0.039-0.47-0.054-0.701   c-0.013-0.193-0.021-0.381-0.031-0.572c-0.012-0.228-0.024-0.456-0.032-0.68c-0.006-0.192-0.007-0.379-0.009-0.567   c-0.003-0.214-0.008-0.431-0.006-0.64c0.002-0.203,0.011-0.397,0.017-0.595c0.006-0.186,0.008-0.376,0.018-0.558   c0.017-0.299,0.043-0.587,0.072-0.871c0.007-0.072,0.01-0.148,0.019-0.219c0.002-0.02,0.004-0.041,0.006-0.061   c0.055-0.481,0.103-0.971,0.147-1.466c0.014-0.158,0.028-0.317,0.041-0.477c0.033-0.404,0.064-0.811,0.091-1.221   c0.009-0.128,0.018-0.255,0.026-0.384c0.032-0.509,0.059-1.021,0.082-1.534c0.008-0.174,0.014-0.347,0.021-0.521   c0.015-0.368,0.028-0.735,0.039-1.102c0.006-0.191,0.012-0.381,0.017-0.571c0.012-0.478,0.022-0.954,0.028-1.426   c0.003-0.21,0.004-0.414,0.006-0.622c0.003-0.302,0.005-0.602,0.006-0.899c0.001-0.256,0.001-0.508,0-0.76   c-0.001-0.222-0.002-0.439-0.004-0.657c-0.004-0.638-0.012-1.259-0.023-1.859c0-0.001,0-0.002,0-0.002   c-0.002-0.123-0.003-0.254-0.006-0.375c0.247,1.065,0.353,2.183,0.359,2.914c0,0.034,0.002,0.07,0.005,0.104   c0.037,0.473,0.924,11.616,2.36,16.287c1.437,4.68,4.25,8.988,9.707,14.871c2.824,3.046,4.471,4.023,6.777,4.023   c0.566,0,1.125-0.056,1.772-0.119c0.808-0.08,1.725-0.171,2.888-0.171c0.586,0,1.196,0.024,1.814,0.071   c2.92,0.222,5.179,1.986,6.747,3.777C87.693,65.06,86.171,65.461,84.616,65.947z"/></g><text x="0" y="115" fill="#000000" font-size="5px" font-weight="bold" font-family="'Helvetica Neue', Helvetica, Arial-Unicode, Arial, Sans-serif">Created by Vladimir Belochkin</text><text x="0" y="120" fill="#000000" font-size="5px" font-weight="bold" font-family="'Helvetica Neue', Helvetica, Arial-Unicode, Arial, Sans-serif">from the Noun Project</text></svg>