<svg xmlns:dc="http://purl.org/dc/elements/1.1/" xmlns:cc="http://creativecommons.org/ns#" xmlns:rdf="http://www.w3.org/1999/02/22-rdf-syntax-ns#" xmlns:svg="http://www.w3.org/2000/svg" xmlns="http://www.w3.org/2000/svg" xmlns:sodipodi="http://sodipodi.sourceforge.net/DTD/sodipodi-0.dtd" xmlns:inkscape="http://www.inkscape.org/namespaces/inkscape" version="1.1" x="0px" y="0px" viewBox="0 0 100 125"><g transform="translate(0,-952.36218)"><path style="font-size:medium;font-style:normal;font-variant:normal;font-weight:normal;font-stretch:normal;text-indent:0;text-align:start;text-decoration:none;line-height:normal;letter-spacing:normal;word-spacing:normal;text-transform:none;direction:ltr;block-progression:tb;writing-mode:lr-tb;text-anchor:start;baseline-shift:baseline;opacity:1;color:#000000;fill:#000000;fill-opacity:1;stroke:none;stroke-width:3.99999881000000010;marker:none;visibility:visible;display:inline;overflow:visible;enable-background:accumulate;font-family:Sans;-inkscape-font-specification:Sans" d="M 27.8125 4 A 2.0001994 2.0001994 0 0 0 26.15625 5.25 C 22.211168 14.9161 20 24.87835 20 34 C 20 42.62933 22.070004 50.6046 26.96875 56.5 C 31.550993 62.014411 38.58023 65.538184 48 65.96875 L 48 84.03125 C 43.393885 84.146366 39.248991 84.653263 36.03125 85.5 C 34.192541 85.9839 32.674915 86.57125 31.4375 87.34375 C 30.200085 88.11615 29 89.2878 29 91 L 29 94 A 2.0001994 2.0001994 0 0 0 31 96 L 69 96 A 2.0001994 2.0001994 0 0 0 71 94 L 71 91 C 71 89.2878 69.799915 88.11615 68.5625 87.34375 C 67.325085 86.57125 65.807459 85.9839 63.96875 85.5 C 60.751009 84.653263 56.606115 84.146366 52 84.03125 L 52 65.96875 C 61.41977 65.538184 68.449007 62.014411 73.03125 56.5 C 77.929996 50.6046 80 42.62933 80 34 C 80 24.87835 77.788832 14.9161 73.84375 5.25 A 2.0001994 2.0001994 0 0 0 72 4 L 59 4 A 2.0001994 2.0001994 0 0 0 57.21875 5.09375 L 51.21875 17.09375 A 2.0001994 2.0001994 0 0 0 53 20 L 59.46875 20 L 47.125 33.46875 L 49.875 25.65625 A 2.0001994 2.0001994 0 0 0 48 23 L 40.71875 23 L 45.90625 6.59375 A 2.0001994 2.0001994 0 0 0 44 4 L 28 4 A 2.0001994 2.0001994 0 0 0 27.8125 4 z M 29.40625 8 L 41.28125 8 L 36.09375 24.40625 A 2.0001994 2.0001994 0 0 0 38 27 L 45.1875 27 L 40.125 41.34375 A 2.0001994 2.0001994 0 0 0 43.46875 43.34375 L 65.46875 19.34375 A 2.0001994 2.0001994 0 0 0 64 16 L 56.25 16 L 60.25 8 L 70.59375 8 C 74.055965 16.86101 76 25.90557 76 34 C 76 41.98299 74.052005 48.9859 69.9375 53.9375 C 65.822995 58.889 59.526056 62 50 62 C 40.473944 62 34.177005 58.889 30.0625 53.9375 C 25.947995 48.9859 24 41.98299 24 34 C 24 25.90557 25.944035 16.86101 29.40625 8 z M 50 88 C 55.121762 88 59.746418 88.5352 62.9375 89.375 C 64.533041 89.7949 65.757103 90.29395 66.4375 90.71875 C 66.947798 91.037275 67.001265 91.222714 67 91.15625 L 67 92 L 33 92 L 33 91.15625 C 32.998735 91.222714 33.052202 91.037275 33.5625 90.71875 C 34.242897 90.29395 35.466959 89.7949 37.0625 89.375 C 40.253582 88.5352 44.878238 88 50 88 z " transform="translate(0,952.36218)"/></g><text x="0" y="115" fill="#000000" font-size="5px" font-weight="bold" font-family="'Helvetica Neue', Helvetica, Arial-Unicode, Arial, Sans-serif">Created by scarlett mckay</text><text x="0" y="120" fill="#000000" font-size="5px" font-weight="bold" font-family="'Helvetica Neue', Helvetica, Arial-Unicode, Arial, Sans-serif">from the Noun Project</text></svg>