<svg xmlns="http://www.w3.org/2000/svg" xmlns:xlink="http://www.w3.org/1999/xlink" version="1.1" x="0px" y="0px" viewBox="0 0 68 85" enable-background="new 0 0 68 68" xml:space="preserve"><g><path d="M22.6,1c-6.1,0-11.1,5-11.1,11.1v43.8c0,6.1,5,11.1,11.1,11.1h22.8c6.1,0,11.1-5,11.1-11.1V12.1C56.5,6,51.5,1,45.4,1H22.6   z M54.5,12.1v43.8c0,5-4.1,9.1-9.1,9.1H22.6c-5,0-9.1-4.1-9.1-9.1V12.1c0-5,4.1-9.1,9.1-9.1h22.8C50.4,3,54.5,7.1,54.5,12.1z"/><path d="M34,18.3c-0.6,0-1,0.4-1,1v29.4c0,0.6,0.4,1,1,1c0.6,0,1-0.4,1-1V19.3C35,18.7,34.6,18.3,34,18.3z"/><path d="M23.7,6.9L18,12.6c-1.5,1.5-1.5,3.8,0,5.3c1.5,1.5,3.8,1.5,5.3,0l5.7-5.7c1.5-1.5,1.5-3.8,0-5.3   C27.5,5.5,25.1,5.5,23.7,6.9z M21.9,16.5c-0.7,0.7-1.8,0.7-2.5,0c-0.7-0.7-0.7-1.8,0-2.5l2.1-2.1l2.4,2.5L21.9,16.5z M27.5,10.8   l-2.1,2.1L23,10.5l2.1-2.1c0.7-0.7,1.8-0.7,2.5,0C28.2,9,28.2,10.1,27.5,10.8z"/><path d="M23.7,21.3L18,27c-1.5,1.5-1.5,3.8,0,5.3c1.5,1.5,3.8,1.5,5.3,0l5.7-5.7c1.5-1.5,1.5-3.8,0-5.3   C27.5,19.9,25.1,19.9,23.7,21.3z M21.9,30.9c-0.7,0.7-1.8,0.7-2.5,0c-0.7-0.7-0.7-1.8,0-2.5l2.1-2.1l2.4,2.5L21.9,30.9z M27.5,25.2   l-2.1,2.1L23,24.9l2.1-2.1c0.7-0.7,1.8-0.7,2.5,0C28.2,23.4,28.2,24.5,27.5,25.2z"/><path d="M23.7,35.7l-2.8,2.8c0,0,0,0,0,0l0,0L18,41.4c-1.5,1.5-1.5,3.8,0,5.3c1.5,1.5,3.8,1.5,5.3,0L29,41c1.5-1.5,1.5-3.8,0-5.3   C27.5,34.3,25.1,34.3,23.7,35.7z M21.9,45.3c-0.7,0.7-1.8,0.7-2.5,0c-0.7-0.7-0.7-1.8,0-2.5l2.1-2.1l2.4,2.5L21.9,45.3z M27.5,39.6   l-2.1,2.1L23,39.3l2.1-2.1c0.7-0.7,1.8-0.7,2.5,0C28.2,37.8,28.2,38.9,27.5,39.6z"/><path d="M23.7,50.1L18,55.8c-1.5,1.5-1.5,3.8,0,5.3c1.5,1.5,3.8,1.5,5.3,0l5.7-5.7c1.5-1.5,1.5-3.8,0-5.3   C27.5,48.7,25.1,48.7,23.7,50.1z M21.9,59.6c-0.7,0.7-1.8,0.7-2.5,0c-0.7-0.7-0.7-1.8,0-2.5l2.1-2.1l2.4,2.5L21.9,59.6z M27.5,54   l-2.1,2.1L23,53.6l2.1-2.1c0.7-0.7,1.8-0.7,2.5,0C28.2,52.2,28.2,53.3,27.5,54z"/><path d="M39,12.6c-1.5,1.5-1.5,3.8,0,5.3c1.5,1.5,3.8,1.5,5.3,0l5.7-5.7c1.5-1.5,1.5-3.8,0-5.3c-1.4-1.4-3.9-1.4-5.3,0L39,12.6z    M42.9,16.5c-0.7,0.7-1.8,0.7-2.5,0c-0.7-0.7-0.7-1.8,0-2.5l2.1-2.1l2.4,2.5L42.9,16.5z M48.6,8.4c0.7,0.7,0.7,1.8,0,2.5l-2.1,2.1   L44,10.5l2.1-2.1C46.8,7.7,47.9,7.7,48.6,8.4z"/><path d="M44.7,21.3L39,27c-1.5,1.5-1.5,3.8,0,5.3c1.5,1.5,3.8,1.5,5.3,0l5.7-5.7c1.5-1.5,1.5-3.8,0-5.3   C48.6,19.9,46.1,19.9,44.7,21.3z M42.9,30.9c-0.7,0.7-1.8,0.7-2.5,0c-0.7-0.7-0.7-1.8,0-2.5l2.1-2.1l2.4,2.5L42.9,30.9z M48.6,25.2   l-2.1,2.1L44,24.9l2.1-2.1c0.7-0.7,1.8-0.7,2.5,0C49.3,23.4,49.3,24.5,48.6,25.2z"/><path d="M44.7,35.7l-2.8,2.8c0,0,0,0,0,0c0,0,0,0,0,0L39,41.4c-1.5,1.5-1.5,3.8,0,5.3c1.5,1.5,3.8,1.5,5.3,0L50,41   c1.5-1.5,1.5-3.8,0-5.3C48.6,34.3,46.1,34.3,44.7,35.7z M42.9,45.3c-0.7,0.7-1.8,0.7-2.5,0c-0.7-0.7-0.7-1.8,0-2.5l2.1-2.1l2.4,2.5   L42.9,45.3z M48.6,39.6l-2.1,2.1L44,39.3l2.1-2.1c0.7-0.7,1.8-0.7,2.5,0C49.3,37.8,49.3,38.9,48.6,39.6z"/><path d="M44.7,50.1L39,55.8c-1.5,1.5-1.5,3.8,0,5.3c1.5,1.5,3.8,1.5,5.3,0l5.7-5.7c1.5-1.5,1.5-3.8,0-5.3   C48.6,48.7,46.1,48.7,44.7,50.1z M42.9,59.6c-0.7,0.7-1.8,0.7-2.5,0c-0.7-0.7-0.7-1.8,0-2.5l2.1-2.1l2.4,2.5L42.9,59.6z M48.6,54   l-2.1,2.1L44,53.6l2.1-2.1c0.7-0.7,1.8-0.7,2.5,0C49.3,52.2,49.3,53.3,48.6,54z"/></g><text x="0" y="83" fill="#000000" font-size="5px" font-weight="bold" font-family="'Helvetica Neue', Helvetica, Arial-Unicode, Arial, Sans-serif">Created by ProSymbols</text><text x="0" y="88" fill="#000000" font-size="5px" font-weight="bold" font-family="'Helvetica Neue', Helvetica, Arial-Unicode, Arial, Sans-serif">from the Noun Project</text></svg>