<svg xmlns="http://www.w3.org/2000/svg" xmlns:xlink="http://www.w3.org/1999/xlink" version="1.1" x="0px" y="0px" viewBox="0 0 32 71.3125" enable-background="new 0 0 32 57.05" xml:space="preserve"><g><path d="M30.25,16.57c-1.53-2.45-3.91-5.33-6.7-8.12C19.35,4.24,13.84,0,11.02,0c-0.78,0-1.25,0.31-1.51,0.57   c-1.09,1.09-0.6,3.18,1.49,6.39l0.25,0.38l2.93,0.42l-1.33,1.78l0.49,0.61c1.08,1.33,2.28,2.65,3.56,3.96   c-0.47-0.02-0.94-0.04-1.41-0.04c-8.84,0-15.5,3.01-15.5,7V26v6.29v11.4v1.36v5c0,3.99,6.66,7,15.5,7s15.5-3.01,15.5-7v-5V26v-3.2   c0.18-0.1,0.33-0.21,0.43-0.31C32.47,21.45,32.09,19.51,30.25,16.57z M15.5,16.05c1.2,0,2.41,0.07,3.61,0.2   c0.33,0.3,0.66,0.6,0.99,0.89c0.09,0.08,0.18,0.16,0.27,0.23c0.28,0.25,0.56,0.49,0.84,0.72c0.07,0.06,0.15,0.12,0.22,0.18   c0.73,0.61,1.47,1.19,2.19,1.72c0.07,0.05,0.13,0.1,0.2,0.15c0.34,0.25,0.68,0.49,1.02,0.71c0.02,0.02,0.05,0.03,0.07,0.05   c0.37,0.24,0.73,0.47,1.08,0.68c0.05,0.03,0.09,0.05,0.13,0.08c0.32,0.18,0.63,0.35,0.93,0.5c0.04,0.02,0.08,0.04,0.13,0.06   c0.34,0.17,0.67,0.32,0.98,0.43c-1.44,1.42-4.67,2.71-8.98,3.19c-0.18,0.02-0.37,0.04-0.56,0.06c-0.19,0.02-0.38,0.03-0.57,0.05   c-0.26,0.02-0.52,0.04-0.78,0.05c-0.15,0.01-0.31,0.02-0.46,0.02c-0.43,0.02-0.87,0.03-1.31,0.03c-7.96,0-13.5-2.63-13.5-5   S7.54,16.05,15.5,16.05z M2,35.18c0.78,0.27,1.72,0.55,2.83,0.81c6.66,1.56,7.51,1.76,8.18,7.13c0.06,0.52,0.05,1.24-0.4,1.74   c-0.5,0.57-1.42,0.69-2.09,0.69c-1.28,0-3.63-0.42-7.53-2.44C2.64,42.93,2.32,42.75,2,42.57V35.18z M29,50.05c0,2.37-5.54,5-13.5,5   S2,52.42,2,50.05v-1.22C4.71,51.27,9.87,53,15.5,53s10.79-1.73,13.5-4.17V50.05z M29,45.05c0,2.4-5.67,5.95-13.5,5.95   S2,47.45,2,45.05v-0.2c0.02,0.01,0.05,0.03,0.07,0.04c3.42,1.77,6.26,2.66,8.45,2.66c0,0,0,0,0,0c1.97,0,3.04-0.74,3.59-1.37   c0.74-0.84,1.05-1.98,0.88-3.31c-0.83-6.76-2.89-7.24-9.76-8.85C3.91,33.72,2.85,33.37,2,33.06v-3.51C4.62,31.64,9.57,33,15.5,33   s10.88-1.36,13.5-3.46V45.05z M29,26c0,2.37-5.54,5-13.5,5S2,28.37,2,26v-1.4c0.06,0.04,0.13,0.08,0.18,0.13   c0.23,0.17,0.47,0.34,0.73,0.51c0.11,0.07,0.21,0.13,0.32,0.2c0.32,0.19,0.66,0.37,1.03,0.54c0.05,0.02,0.09,0.05,0.14,0.07   c0.42,0.19,0.86,0.36,1.32,0.53c0.13,0.05,0.27,0.09,0.4,0.13c0.36,0.12,0.73,0.23,1.11,0.34c0.15,0.04,0.3,0.08,0.46,0.12   c0.49,0.12,0.99,0.24,1.52,0.34c0.04,0.01,0.07,0.02,0.11,0.02c0.56,0.1,1.15,0.19,1.74,0.26c0.17,0.02,0.35,0.04,0.52,0.06   c0.45,0.05,0.92,0.09,1.39,0.12c0.19,0.01,0.37,0.03,0.56,0.04c0.64,0.03,1.29,0.06,1.96,0.06c0.64,0,1.27-0.02,1.89-0.05   c0.19-0.01,0.38-0.02,0.57-0.03c0.49-0.03,0.98-0.08,1.46-0.13c0.32-0.04,0.64-0.08,0.95-0.12c0.26-0.04,0.52-0.07,0.77-0.12   c0.33-0.06,0.66-0.11,0.98-0.18c0.05-0.01,0.1-0.02,0.15-0.03c0.74-0.15,1.44-0.33,2.1-0.54c0.03-0.01,0.06-0.02,0.09-0.03   c1.05-0.32,1.99-0.71,2.81-1.14c0.03-0.02,0.07-0.03,0.1-0.05c0.6-0.32,1.16-0.66,1.63-1.03V26z M30,21.05l-0.16-0.01   c-0.52-0.03-1.35-0.34-2.42-0.93c-0.01-0.01-0.03-0.02-0.04-0.03c-0.33-0.19-0.69-0.4-1.07-0.65c-0.08-0.05-0.17-0.12-0.26-0.17   c-0.27-0.17-0.54-0.37-0.83-0.57c-0.18-0.12-0.35-0.25-0.53-0.38c-0.3-0.22-0.61-0.46-0.94-0.71c-0.14-0.11-0.28-0.22-0.42-0.33   c-0.42-0.34-0.85-0.7-1.3-1.08c-0.07-0.06-0.14-0.12-0.21-0.18c-0.51-0.45-1.04-0.92-1.59-1.43c-0.47-0.44-0.95-0.9-1.43-1.38   c-1.22-1.22-2.37-2.47-3.41-3.72l2.42-3.22l-5.38-0.77C11,3.2,10.94,2.25,10.95,2c0.02,0,0.04,0,0.07,0c1.6,0,6.2,2.94,11.12,7.86   C27.85,15.57,30.21,20.01,30,21.05z"/><rect x="6.5" y="15.97" transform="matrix(0.4961 0.8682 -0.8682 0.4961 21.1438 3.5654)" width="2" height="8.06"/><rect x="7.09" y="20" transform="matrix(-0.8321 0.5547 -0.5547 -0.8321 34.5493 31.5393)" width="10.82" height="2"/><rect x="12" y="21" transform="matrix(-0.8 0.6 -0.6 -0.8 43.8 29.4)" width="10" height="2"/><rect x="18.3" y="22" transform="matrix(-0.7809 0.6247 -0.6247 -0.7809 52.6567 27.529)" width="6.4" height="2"/></g><text x="0" y="72.05" fill="#000000" font-size="5px" font-weight="bold" font-family="'Helvetica Neue', Helvetica, Arial-Unicode, Arial, Sans-serif">Created by Ben Davis</text><text x="0" y="77.05" fill="#000000" font-size="5px" font-weight="bold" font-family="'Helvetica Neue', Helvetica, Arial-Unicode, Arial, Sans-serif">from the Noun Project</text></svg>