<svg xmlns="http://www.w3.org/2000/svg" xmlns:xlink="http://www.w3.org/1999/xlink" viewBox="0 0 24 30" version="1.1" x="0px" y="0px"><title>drink_070-milk_can-juice-carton-paper</title><desc>Created with Sketch.</desc><g stroke="none" stroke-width="1" fill="none" fill-rule="evenodd"><g transform="translate(-476.000000, -332.000000)" fill="#000000"><g transform="translate(481.000000, 332.000000)"><path d="M0,6.5 L0,23.5 C0,23.7761424 0.223857625,24 0.5,24 L10.5,24 C10.7761424,24 11,23.7761424 11,23.5 L11,6.5 C11,6.22385763 10.7761424,6 10.5,6 L0.5,6 C0.223857625,6 0,6.22385763 0,6.5 Z M1,7 L10,7 L10,23 L1,23 L1,7 Z"/><path d="M13.8535534,3.85355339 C14.0488155,3.65829124 14.0488155,3.34170876 13.8535534,3.14644661 C13.6582912,2.95118446 13.3417088,2.95118446 13.1464466,3.14644661 L10.1464466,6.14644661 C9.95118446,6.34170876 9.95118446,6.65829124 10.1464466,6.85355339 C10.3417088,7.04881554 10.6582912,7.04881554 10.8535534,6.85355339 L13.8535534,3.85355339 Z"/><path d="M13.2763932,3.9472136 C13.5233825,4.07070822 13.823719,3.97059605 13.9472136,3.7236068 C14.0707082,3.47661755 13.970596,3.17628103 13.7236068,3.0527864 L11.7236068,2.0527864 C11.4766175,1.92929178 11.176281,2.02940395 11.0527864,2.2763932 C10.9292918,2.52338245 11.029404,2.82371897 11.2763932,2.9472136 L13.2763932,3.9472136 Z"/><path d="M1.98507125,2.62126781 C2.05204561,2.35337036 1.88916527,2.08190311 1.62126781,2.01492875 C1.35337036,1.94795439 1.08190311,2.11083473 1.01492875,2.37873219 L0.0149287499,6.37873219 C-0.0520456136,6.64662964 0.110834733,6.91809689 0.378732187,6.98507125 C0.646629641,7.05204561 0.918096887,6.88916527 0.98507125,6.62126781 L1.98507125,2.62126781 Z"/><path d="M1,2.5 C1,2.77614237 1.22385763,3 1.5,3 C1.77614237,3 2,2.77614237 2,2.5 L2,0.5 C2,0.223857625 1.77614237,0 1.5,0 C1.22385763,0 1,0.223857625 1,0.5 L1,2.5 Z"/><path d="M11.9850713,2.62126781 C12.0520456,2.35337036 11.8891653,2.08190311 11.6212678,2.01492875 C11.3533704,1.94795439 11.0819031,2.11083473 11.0149287,2.37873219 L10.0149287,6.37873219 C9.94795439,6.64662964 10.1108347,6.91809689 10.3787322,6.98507125 C10.6466296,7.05204561 10.9180969,6.88916527 10.9850713,6.62126781 L11.9850713,2.62126781 Z"/><path d="M11,2.5 C11,2.77614237 11.2238576,3 11.5,3 C11.7761424,3 12,2.77614237 12,2.5 L12,0.5 C12,0.223857625 11.7761424,0 11.5,0 C11.2238576,0 11,0.223857625 11,0.5 L11,2.5 Z"/><path d="M11.3888889,1 C11.6650313,1 11.8888889,0.776142375 11.8888889,0.5 C11.8888889,0.223857625 11.6650313,0 11.3888889,0 L1.61111111,0 C1.33496874,0 1.11111111,0.223857625 1.11111111,0.5 C1.11111111,0.776142375 1.33496874,1 1.61111111,1 L11.3888889,1 Z"/><path d="M14,3.5 C14,3.22385763 13.7761424,3 13.5,3 C13.2238576,3 13,3.22385763 13,3.5 L13,20.5 C13,20.7761424 13.2238576,21 13.5,21 C13.7761424,21 14,20.7761424 14,20.5 L14,3.5 Z"/><path d="M13.8535534,20.8535534 C14.0488155,20.6582912 14.0488155,20.3417088 13.8535534,20.1464466 C13.6582912,19.9511845 13.3417088,19.9511845 13.1464466,20.1464466 L10.1464466,23.1464466 C9.95118446,23.3417088 9.95118446,23.6582912 10.1464466,23.8535534 C10.3417088,24.0488155 10.6582912,24.0488155 10.8535534,23.8535534 L13.8535534,20.8535534 Z"/></g></g></g><text x="0" y="39" fill="#000000" font-size="5px" font-weight="bold" font-family="'Helvetica Neue', Helvetica, Arial-Unicode, Arial, Sans-serif">Created by Pham Thi Dieu Linh</text><text x="0" y="44" fill="#000000" font-size="5px" font-weight="bold" font-family="'Helvetica Neue', Helvetica, Arial-Unicode, Arial, Sans-serif">from the Noun Project</text></svg>