<svg xmlns="http://www.w3.org/2000/svg" xmlns:xlink="http://www.w3.org/1999/xlink" version="1.1" x="0px" y="0px" viewBox="0 0 100 125" enable-background="new 0 0 100 100" xml:space="preserve"><g><path fill="#000000" d="M80.337,3.417C79.849,2.835,79.129,2.5,78.369,2.5H26.495c-0.759,0-1.479,0.335-1.967,0.917   s-0.694,1.348-0.563,2.095l13.074,74.562c-0.003,0.055-0.017,0.107-0.017,0.163v9.415c0,4.627,3.766,8.393,8.394,8.393h14.034   c4.629,0,8.394-3.766,8.394-8.393v-9.415c0-0.057-0.013-0.111-0.017-0.167L80.898,5.512C81.03,4.765,80.824,3.998,80.337,3.417z    M75.312,7.637l-0.79,4.506H30.343l-0.79-4.506H75.312z M63.032,77.669h-21.2l-10.589-60.39h42.378L63.032,77.669z M62.706,89.652   c0,1.795-1.461,3.256-3.257,3.256H45.416c-1.796,0-3.256-1.461-3.256-3.256v-6.847h20.547V89.652z"/><path fill="#000000" d="M58.34,29.468H46.525c-1.419,0-2.568,1.15-2.568,2.568v30.992c0,1.419,1.149,2.568,2.568,2.568H58.34   c1.419,0,2.568-1.149,2.568-2.568V32.037C60.908,30.618,59.759,29.468,58.34,29.468z M55.771,60.46h-6.678V34.605h6.678V60.46z"/></g><text x="0" y="115" fill="#000000" font-size="5px" font-weight="bold" font-family="'Helvetica Neue', Helvetica, Arial-Unicode, Arial, Sans-serif">Created by Andrey Vasiliev</text><text x="0" y="120" fill="#000000" font-size="5px" font-weight="bold" font-family="'Helvetica Neue', Helvetica, Arial-Unicode, Arial, Sans-serif">from the Noun Project</text></svg>