<?xml version="1.0" encoding="UTF-8"?>
<svg width="100px" height="100px" viewBox="0 0 100 100" version="1.1" xmlns="http://www.w3.org/2000/svg" xmlns:xlink="http://www.w3.org/1999/xlink">
    <!-- Generator: Sketch 52.6 (67491) - http://www.bohemiancoding.com/sketch -->
    <title>Slice 1</title>
    <desc>Created with Sketch.</desc>
    <g id="Page-1" stroke="none" stroke-width="1" fill="none" fill-rule="evenodd">
        <g id="Group-2">
            <g id="Group" transform="translate(5.000000, 32.000000)">
                <path d="M61.636,52.718 C61.041,52.111 60.026,51.984 59.279,51.984 C58.051,51.984 56.957,52.316 56.946,52.319 C56.826,52.356 56.697,52.379 56.572,52.383 C56.554,52.384 56.474,52.385 56.455,52.385 C55.911,52.385 53.114,52.27 51.558,49.993 C50.272,48.112 50.26,45.409 51.521,41.952 C51.487,41.822 51.451,41.679 51.416,41.544 C51.392,41.452 51.369,41.361 51.345,41.268 C51.282,41.021 51.218,40.767 51.153,40.506 C51.121,40.379 51.09,40.254 51.058,40.124 C50.998,39.88 50.938,39.631 50.877,39.378 C50.841,39.226 50.805,39.076 50.768,38.921 C50.71,38.676 50.653,38.425 50.595,38.172 C50.556,38.001 50.517,37.831 50.478,37.656 C50.422,37.404 50.366,37.148 50.31,36.889 C50.271,36.709 50.232,36.53 50.194,36.346 C50.139,36.086 50.086,35.822 50.032,35.557 C49.994,35.368 49.955,35.18 49.918,34.988 C49.866,34.722 49.815,34.453 49.765,34.183 C49.729,33.989 49.692,33.797 49.657,33.601 C49.607,33.326 49.56,33.049 49.513,32.772 C49.48,32.579 49.447,32.387 49.415,32.193 C49.369,31.91 49.326,31.626 49.283,31.342 C49.254,31.151 49.224,30.961 49.197,30.771 C49.155,30.479 49.118,30.187 49.08,29.895 C49.057,29.714 49.032,29.533 49.01,29.352 C48.973,29.047 48.942,28.745 48.91,28.442 C48.892,28.274 48.873,28.106 48.857,27.939 C48.827,27.623 48.803,27.311 48.78,26.998 C48.769,26.848 48.754,26.696 48.745,26.547 C48.723,26.216 48.709,25.891 48.696,25.566 C48.691,25.439 48.682,25.309 48.678,25.183 C48.667,24.836 48.665,24.497 48.665,24.159 C48.665,24.06 48.661,23.958 48.662,23.86 C48.665,23.471 48.678,23.092 48.697,22.719 C48.699,22.677 48.699,22.632 48.701,22.59 C48.724,22.176 48.758,21.772 48.802,21.382 C48.811,21.304 48.818,21.224 48.827,21.146 C48.859,20.855 48.89,20.562 48.919,20.264 C48.933,20.115 48.945,19.963 48.959,19.812 C48.98,19.579 49,19.345 49.019,19.109 C49.032,18.945 49.043,18.779 49.055,18.614 C49.071,18.391 49.087,18.168 49.101,17.943 C49.112,17.768 49.122,17.593 49.132,17.418 C49.144,17.199 49.156,16.979 49.167,16.759 C49.176,16.58 49.184,16.4 49.192,16.221 C49.201,16.008 49.21,15.794 49.218,15.581 C49.225,15.392 49.232,15.204 49.237,15.015 C49.243,14.815 49.249,14.616 49.254,14.417 C49.259,14.216 49.264,14.016 49.269,13.816 C49.273,13.636 49.276,13.457 49.279,13.278 C49.283,13.061 49.286,12.844 49.289,12.629 C49.291,12.49 49.291,12.353 49.292,12.214 C49.294,11.959 49.296,11.704 49.297,11.453 C49.297,11.436 49.297,11.42 49.297,11.404 C49.303,8.894 49.24,6.56 49.167,4.716 L49.097,4.708 L48.886,4.684 C48.816,4.875 48.745,5.068 48.67,5.274 C48.656,5.312 48.643,5.348 48.629,5.387 C48.53,5.661 48.425,5.953 48.319,6.251 C48.298,6.311 48.277,6.367 48.256,6.428 C48.14,6.754 48.021,7.095 47.899,7.444 C47.888,7.477 47.877,7.507 47.865,7.54 C47.732,7.924 47.596,8.321 47.458,8.728 C47.427,8.819 47.396,8.915 47.365,9.007 C47.261,9.317 47.156,9.63 47.051,9.951 C46.995,10.121 46.939,10.297 46.883,10.47 C46.802,10.721 46.721,10.971 46.639,11.226 C46.578,11.418 46.517,11.614 46.456,11.809 C46.379,12.055 46.302,12.301 46.226,12.551 C46.165,12.752 46.104,12.954 46.044,13.156 C45.97,13.402 45.897,13.648 45.825,13.896 C45.764,14.103 45.705,14.312 45.646,14.52 C45.576,14.766 45.506,15.013 45.438,15.26 C45.38,15.468 45.324,15.676 45.268,15.885 C45.201,16.133 45.136,16.381 45.072,16.629 C45.019,16.835 44.966,17.041 44.915,17.246 C44.853,17.494 44.794,17.74 44.735,17.986 C44.687,18.187 44.64,18.387 44.594,18.586 C44.537,18.837 44.484,19.085 44.431,19.332 C44.391,19.521 44.35,19.71 44.312,19.896 C44.26,20.154 44.214,20.406 44.167,20.659 C44.136,20.827 44.103,20.998 44.075,21.164 C44.027,21.444 43.987,21.716 43.947,21.987 C43.928,22.117 43.905,22.251 43.888,22.378 C43.835,22.773 43.791,23.158 43.759,23.528 C43.759,23.53 43.759,23.533 43.758,23.535 C43.503,26.479 43.474,29.67 43.474,33.024 C43.5,34.58 43.549,36.042 43.595,37.383 C43.671,39.543 43.735,41.41 43.679,43.001 C43.674,43.131 43.653,43.262 43.613,43.387 C43.566,43.536 43.503,43.722 43.431,43.924 C43.433,52.452 45.628,55.08 47.487,55.765 C48.68,56.204 49.773,56.427 50.737,56.427 C52.337,56.427 53.385,55.833 54.399,55.257 C55.239,54.781 56.109,54.288 57.148,54.288 C57.727,54.288 58.296,54.444 58.837,54.752 C61.35,56.185 61.28,58.771 61.235,60.484 C61.217,61.16 61.19,62.181 61.416,62.34 C62.477,63.083 63.259,63.521 63.822,63.779 C62.96,62.317 62.222,59.706 62.309,55.045 C62.328,53.976 62.102,53.193 61.636,52.718 Z" id="Path"></path>
                <path d="M43.993,9.943 C44.201,9.295 44.41,8.661 44.619,8.042 C44.657,7.929 44.694,7.82 44.732,7.708 C44.945,7.081 45.157,6.467 45.363,5.882 C43.531,7.427 41.056,10.02 39.922,13.461 C39.006,16.237 38.533,19.857 38.075,23.359 C37.487,27.851 36.932,32.093 35.467,34.744 C34.93,35.715 34.573,36.869 34.228,37.987 C33.373,40.751 32.308,44.192 27.962,44.192 C26.766,44.192 25.393,43.926 23.766,43.38 C22.396,42.921 21.19,42.506 20.115,42.137 C15.855,40.675 13.717,39.942 11.805,39.942 C11.259,39.942 10.712,39.998 10.082,40.118 C8.27,40.463 6.395,41.475 4.996,42.484 C7.904,42.593 11.717,43.232 14.967,45.429 C16.124,46.212 17.244,47.114 18.429,48.069 C21.582,50.61 24.841,53.238 28.577,53.238 C29.938,53.238 31.286,52.901 32.698,52.206 C37.486,49.851 39.679,45.58 40.523,43.411 C40.523,43.366 40.523,43.313 40.524,43.274 C40.489,43.141 40.473,43 40.478,42.855 C40.574,40.084 40.572,37.293 40.568,34.595 C40.567,34.071 40.569,33.562 40.569,33.046 C40.521,30.115 40.557,26.836 40.865,23.283 C40.865,23.28 40.865,23.277 40.866,23.275 C40.916,22.704 40.995,22.099 41.086,21.482 C41.104,21.359 41.121,21.238 41.141,21.113 C41.237,20.508 41.349,19.888 41.477,19.253 C41.5,19.14 41.525,19.026 41.549,18.912 C41.675,18.312 41.811,17.703 41.959,17.085 C41.979,17.002 41.997,16.92 42.017,16.837 C42.18,16.171 42.355,15.5 42.538,14.827 C42.578,14.68 42.618,14.534 42.659,14.387 C42.845,13.717 43.036,13.048 43.234,12.383 C43.256,12.309 43.279,12.238 43.301,12.164 C43.491,11.533 43.685,10.91 43.881,10.294 C43.919,10.176 43.956,10.06 43.993,9.943 Z" id="Path"></path>
                <path d="M77.844,45.745 C77.227,45.698 76.616,45.674 76.03,45.674 C74.867,45.674 73.95,45.765 73.142,45.845 C72.495,45.908 71.936,45.964 71.37,45.964 C69.064,45.964 67.417,44.987 64.593,41.941 C59.136,36.059 56.324,31.75 54.886,27.07 C53.45,22.399 52.563,11.255 52.526,10.783 C52.523,10.749 52.521,10.713 52.521,10.679 C52.515,9.948 52.409,8.83 52.162,7.765 C52.165,7.886 52.166,8.017 52.168,8.14 C52.168,8.141 52.168,8.142 52.168,8.142 C52.179,8.742 52.187,9.363 52.191,10.001 C52.193,10.219 52.194,10.437 52.195,10.658 C52.196,10.91 52.196,11.162 52.195,11.418 C52.194,11.715 52.192,12.016 52.189,12.317 C52.187,12.525 52.186,12.73 52.183,12.939 C52.177,13.411 52.167,13.887 52.155,14.365 C52.15,14.555 52.144,14.745 52.138,14.936 C52.127,15.303 52.114,15.67 52.099,16.038 C52.092,16.212 52.086,16.385 52.078,16.559 C52.055,17.072 52.028,17.584 51.996,18.093 C51.988,18.222 51.978,18.349 51.97,18.477 C51.943,18.887 51.912,19.294 51.879,19.698 C51.866,19.858 51.852,20.017 51.838,20.175 C51.794,20.67 51.746,21.16 51.691,21.641 C51.689,21.661 51.687,21.682 51.685,21.702 C51.677,21.773 51.674,21.849 51.666,21.921 C51.637,22.206 51.61,22.494 51.594,22.792 C51.584,22.973 51.582,23.163 51.576,23.35 C51.57,23.548 51.561,23.742 51.559,23.945 C51.557,24.155 51.562,24.371 51.565,24.585 C51.568,24.774 51.568,24.96 51.574,25.152 C51.581,25.376 51.594,25.604 51.606,25.832 C51.616,26.022 51.624,26.211 51.637,26.404 C51.652,26.636 51.672,26.871 51.691,27.105 C51.707,27.3 51.722,27.494 51.741,27.69 C51.763,27.925 51.789,28.162 51.815,28.399 C51.837,28.6 51.859,28.8 51.883,29.002 C51.911,29.238 51.942,29.475 51.974,29.712 C52.001,29.918 52.029,30.124 52.059,30.33 C52.092,30.563 52.127,30.795 52.163,31.028 C52.196,31.24 52.229,31.452 52.263,31.663 C52.3,31.89 52.338,32.117 52.377,32.344 C52.414,32.561 52.453,32.778 52.491,32.994 C52.53,33.213 52.57,33.431 52.611,33.648 C52.653,33.871 52.696,34.093 52.739,34.314 C52.779,34.519 52.819,34.725 52.86,34.928 C52.907,35.16 52.955,35.39 53.003,35.618 C53.042,35.805 53.081,35.992 53.121,36.176 C53.174,36.421 53.227,36.661 53.281,36.9 C53.317,37.061 53.353,37.225 53.389,37.383 C53.447,37.637 53.505,37.884 53.563,38.131 C53.596,38.27 53.628,38.412 53.661,38.548 C53.727,38.824 53.792,39.091 53.857,39.356 C53.88,39.451 53.904,39.551 53.927,39.644 C54.013,39.989 54.097,40.323 54.18,40.643 C54.183,40.653 54.185,40.664 54.188,40.675 C54.19,40.683 54.192,40.69 54.194,40.698 C54.278,40.783 54.353,40.879 54.415,40.986 C54.465,41.071 59.747,49.815 70.555,50.801 C71.554,50.893 72.505,50.939 73.381,50.939 C76.418,50.939 78.117,50.408 79.615,49.94 C81.171,49.454 82.692,49.053 84.59,49.516 C83.022,47.731 80.764,45.968 77.844,45.745 Z" id="Path"></path>
                <path d="M56.325,49.478 C56.677,49.385 57.381,49.221 58.233,49.136 C56.229,47.672 54.725,46.124 53.682,44.881 C53.353,46.41 53.435,47.596 53.953,48.354 C54.608,49.312 55.895,49.457 56.325,49.478 Z" id="Path"></path>
                <path d="M89.882,52.385 C89.725,52.02 85.955,43.451 78.065,42.85 C77.374,42.798 76.69,42.772 76.03,42.772 C74.723,42.772 73.687,42.874 72.856,42.957 C72.285,43.013 71.793,43.062 71.37,43.062 C70.328,43.062 69.384,42.84 66.721,39.968 C61.585,34.432 58.96,30.448 57.661,26.219 C56.365,22.001 55.49,11.423 55.424,10.607 C55.413,9.625 55.186,3.453 51.471,2.146 L51.338,1.935 C51.103,1.563 50.712,1.317 50.275,1.267 L47.635,0.964 C47.2,0.912 46.763,1.065 46.45,1.373 L46.002,1.815 C45.042,2.401 39.28,6.138 37.164,12.553 C36.163,15.589 35.672,19.348 35.196,22.984 C34.67,27.009 34.125,31.172 32.926,33.341 C32.245,34.573 31.843,35.873 31.454,37.13 C30.5,40.212 29.986,41.29 27.962,41.29 C27.097,41.29 25.996,41.068 24.69,40.629 C23.326,40.172 22.126,39.76 21.057,39.392 C15.115,37.354 12.999,36.607 9.538,37.267 C5.616,38.013 1,41.382 0.111,43.512 C-0.09,43.995 -0.015,44.548 0.306,44.961 C0.627,45.375 1.144,45.583 1.664,45.506 C1.673,45.505 2.617,45.369 4.034,45.369 C6.617,45.369 10.328,45.797 13.342,47.835 C14.398,48.549 15.47,49.413 16.607,50.329 C19.987,53.054 23.817,56.141 28.577,56.141 C30.367,56.141 32.184,55.693 33.98,54.81 C37.129,53.262 39.321,51.023 40.825,48.9 C41.518,54.132 43.408,57.354 46.482,58.487 C48.018,59.053 49.41,59.329 50.736,59.329 C53.101,59.329 54.679,58.435 55.83,57.782 C56.343,57.491 56.873,57.19 57.147,57.19 C57.178,57.19 57.252,57.19 57.398,57.273 C58.304,57.79 58.378,58.624 58.331,60.405 C58.292,61.857 58.244,63.664 59.75,64.717 C62.02,66.306 63.696,67.046 65.024,67.046 C66.065,67.046 66.698,66.592 67.045,66.212 C67.818,65.363 67.76,64.264 67.742,64.052 C67.688,63.473 67.295,62.986 66.752,62.807 C66.579,62.676 65.093,61.359 65.211,55.099 C65.229,54.151 65.107,53.305 64.851,52.562 C66.5,53.112 68.31,53.518 70.292,53.699 C71.379,53.798 72.418,53.848 73.382,53.848 C76.863,53.848 78.954,53.194 80.481,52.717 C81.431,52.42 82.117,52.206 82.857,52.206 C83.655,52.206 84.935,52.432 87.785,54.192 C88.02,54.338 88.284,54.408 88.548,54.408 C88.887,54.408 89.226,54.289 89.496,54.055 C89.976,53.642 90.132,52.966 89.882,52.385 Z M43.235,12.382 C43.036,13.047 42.845,13.716 42.66,14.386 C42.619,14.533 42.579,14.679 42.539,14.826 C42.356,15.499 42.18,16.171 42.018,16.836 C41.998,16.92 41.98,17.001 41.96,17.084 C41.812,17.701 41.675,18.31 41.55,18.911 C41.526,19.025 41.501,19.139 41.478,19.252 C41.349,19.887 41.238,20.507 41.142,21.112 C41.122,21.237 41.105,21.358 41.087,21.481 C40.995,22.099 40.916,22.703 40.867,23.274 C40.867,23.277 40.867,23.28 40.866,23.282 C40.558,26.836 40.522,30.115 40.57,33.045 C40.57,33.561 40.569,34.07 40.569,34.594 C40.573,37.292 40.576,40.083 40.479,42.854 C40.474,42.999 40.49,43.139 40.525,43.273 C40.525,43.312 40.524,43.364 40.524,43.41 C39.68,45.579 37.487,49.85 32.699,52.205 C31.286,52.9 29.938,53.237 28.578,53.237 C24.842,53.237 21.583,50.609 18.43,48.068 C17.245,47.113 16.125,46.211 14.968,45.428 C11.718,43.232 7.905,42.592 4.997,42.483 C6.397,41.474 8.272,40.462 10.083,40.117 C10.712,39.997 11.26,39.941 11.806,39.941 C13.718,39.941 15.856,40.674 20.116,42.136 C21.191,42.505 22.396,42.919 23.767,43.379 C25.394,43.925 26.768,44.191 27.963,44.191 C32.308,44.191 33.373,40.75 34.229,37.986 C34.574,36.869 34.931,35.714 35.468,34.743 C36.934,32.092 37.489,27.85 38.076,23.358 C38.533,19.857 39.007,16.236 39.923,13.46 C41.057,10.019 43.532,7.426 45.364,5.881 C45.158,6.465 44.946,7.079 44.733,7.707 C44.695,7.819 44.658,7.928 44.62,8.041 C44.411,8.66 44.202,9.294 43.994,9.942 C43.957,10.058 43.92,10.175 43.883,10.292 C43.687,10.908 43.493,11.532 43.303,12.162 C43.28,12.237 43.257,12.309 43.235,12.382 Z M61.415,62.34 C61.188,62.181 61.216,61.16 61.234,60.484 C61.279,58.772 61.349,56.185 58.836,54.752 C58.295,54.444 57.726,54.288 57.147,54.288 C56.107,54.288 55.238,54.78 54.398,55.257 C53.384,55.833 52.336,56.427 50.736,56.427 C49.772,56.427 48.679,56.204 47.486,55.765 C45.627,55.08 43.433,52.453 43.43,43.924 C43.502,43.722 43.565,43.536 43.612,43.387 C43.652,43.262 43.673,43.132 43.678,43.001 C43.734,41.41 43.669,39.543 43.594,37.383 C43.548,36.042 43.499,34.579 43.473,33.024 C43.474,29.67 43.503,26.479 43.757,23.535 C43.757,23.533 43.757,23.53 43.758,23.528 C43.79,23.158 43.834,22.773 43.887,22.378 C43.904,22.251 43.927,22.117 43.946,21.987 C43.986,21.716 44.026,21.444 44.074,21.164 C44.102,20.998 44.136,20.828 44.166,20.659 C44.212,20.407 44.259,20.154 44.311,19.896 C44.349,19.71 44.39,19.52 44.43,19.332 C44.483,19.085 44.536,18.837 44.593,18.586 C44.638,18.387 44.686,18.187 44.734,17.986 C44.792,17.74 44.852,17.494 44.914,17.246 C44.965,17.041 45.018,16.835 45.071,16.629 C45.135,16.381 45.2,16.134 45.267,15.885 C45.323,15.677 45.379,15.469 45.437,15.26 C45.505,15.013 45.575,14.767 45.645,14.52 C45.704,14.312 45.764,14.104 45.824,13.896 C45.896,13.648 45.97,13.402 46.043,13.156 C46.104,12.954 46.164,12.751 46.225,12.551 C46.301,12.302 46.378,12.056 46.455,11.809 C46.516,11.614 46.576,11.418 46.638,11.226 C46.719,10.971 46.8,10.721 46.882,10.47 C46.938,10.297 46.994,10.121 47.05,9.951 C47.155,9.63 47.26,9.317 47.364,9.007 C47.395,8.915 47.426,8.819 47.457,8.728 C47.595,8.321 47.731,7.924 47.864,7.54 C47.875,7.507 47.886,7.477 47.898,7.444 C48.02,7.094 48.139,6.754 48.255,6.428 C48.277,6.367 48.297,6.311 48.318,6.251 C48.424,5.953 48.529,5.661 48.628,5.387 C48.642,5.348 48.655,5.313 48.669,5.274 C48.744,5.067 48.815,4.875 48.885,4.684 L49.096,4.708 L49.166,4.716 C49.239,6.559 49.301,8.894 49.296,11.404 C49.296,11.421 49.296,11.437 49.296,11.453 C49.295,11.705 49.293,11.96 49.291,12.214 C49.29,12.352 49.289,12.49 49.288,12.629 C49.286,12.844 49.282,13.061 49.278,13.278 C49.275,13.457 49.272,13.636 49.268,13.816 C49.264,14.016 49.259,14.216 49.253,14.417 C49.248,14.616 49.242,14.815 49.236,15.015 C49.23,15.204 49.223,15.392 49.217,15.581 C49.209,15.794 49.2,16.008 49.191,16.221 C49.183,16.4 49.175,16.58 49.166,16.759 C49.155,16.979 49.143,17.199 49.131,17.418 C49.121,17.593 49.111,17.769 49.1,17.943 C49.086,18.168 49.07,18.391 49.054,18.614 C49.042,18.779 49.031,18.945 49.018,19.109 C49,19.345 48.979,19.578 48.958,19.812 C48.945,19.963 48.933,20.115 48.918,20.264 C48.89,20.561 48.858,20.854 48.826,21.146 C48.817,21.224 48.81,21.304 48.801,21.382 C48.756,21.773 48.723,22.176 48.7,22.59 C48.698,22.632 48.698,22.677 48.696,22.719 C48.677,23.092 48.664,23.471 48.661,23.86 C48.66,23.958 48.664,24.06 48.664,24.159 C48.664,24.497 48.666,24.836 48.677,25.183 C48.681,25.309 48.69,25.439 48.695,25.566 C48.709,25.891 48.723,26.216 48.744,26.547 C48.754,26.696 48.768,26.848 48.779,26.998 C48.803,27.311 48.826,27.623 48.856,27.939 C48.872,28.106 48.891,28.274 48.909,28.442 C48.941,28.745 48.972,29.047 49.009,29.352 C49.031,29.533 49.056,29.714 49.079,29.895 C49.117,30.187 49.154,30.479 49.196,30.771 C49.223,30.962 49.253,31.152 49.282,31.342 C49.325,31.626 49.368,31.91 49.414,32.193 C49.446,32.387 49.479,32.579 49.512,32.772 C49.559,33.049 49.606,33.326 49.656,33.601 C49.691,33.796 49.728,33.989 49.764,34.183 C49.814,34.453 49.865,34.722 49.917,34.988 C49.955,35.18 49.993,35.368 50.031,35.557 C50.085,35.822 50.138,36.086 50.193,36.346 C50.232,36.529 50.27,36.708 50.309,36.889 C50.365,37.147 50.42,37.403 50.477,37.656 C50.516,37.83 50.555,38 50.594,38.172 C50.652,38.425 50.709,38.675 50.767,38.921 C50.804,39.076 50.84,39.227 50.876,39.378 C50.937,39.632 50.997,39.881 51.057,40.124 C51.089,40.254 51.12,40.379 51.152,40.506 C51.217,40.767 51.281,41.021 51.344,41.268 C51.368,41.362 51.391,41.453 51.415,41.544 C51.45,41.679 51.486,41.822 51.52,41.952 C50.259,45.408 50.271,48.112 51.557,49.993 C53.114,52.27 55.91,52.385 56.454,52.385 C56.473,52.385 56.553,52.384 56.571,52.383 C56.697,52.378 56.825,52.356 56.945,52.319 C56.956,52.316 58.051,51.984 59.278,51.984 C60.025,51.984 61.04,52.112 61.635,52.718 C62.101,53.192 62.328,53.976 62.307,55.045 C62.22,59.706 62.958,62.317 63.82,63.779 C63.257,63.521 62.476,63.083 61.415,62.34 Z M53.683,44.881 C54.726,46.124 56.23,47.672 58.234,49.136 C57.382,49.221 56.678,49.385 56.326,49.478 C55.895,49.457 54.609,49.313 53.954,48.354 C53.435,47.597 53.354,46.41 53.683,44.881 Z M79.616,49.947 C78.118,50.415 76.42,50.946 73.382,50.946 C72.506,50.946 71.555,50.9 70.556,50.808 C59.748,49.821 54.466,41.078 54.416,40.993 C54.354,40.886 54.279,40.79 54.195,40.705 C54.193,40.697 54.191,40.69 54.189,40.682 C54.186,40.672 54.184,40.661 54.181,40.65 C54.098,40.329 54.014,39.996 53.928,39.651 C53.905,39.558 53.881,39.458 53.858,39.363 C53.793,39.098 53.728,38.832 53.662,38.555 C53.629,38.419 53.597,38.276 53.564,38.138 C53.506,37.891 53.448,37.644 53.39,37.39 C53.354,37.231 53.318,37.068 53.282,36.907 C53.229,36.668 53.175,36.428 53.122,36.183 C53.082,35.999 53.043,35.811 53.004,35.625 C52.956,35.396 52.908,35.167 52.861,34.935 C52.82,34.732 52.78,34.527 52.74,34.321 C52.697,34.1 52.654,33.878 52.612,33.655 C52.571,33.438 52.532,33.22 52.492,33.001 C52.453,32.785 52.415,32.569 52.378,32.351 C52.339,32.125 52.301,31.898 52.264,31.67 C52.23,31.458 52.196,31.247 52.164,31.035 C52.128,30.802 52.094,30.57 52.06,30.337 C52.03,30.131 52.003,29.925 51.975,29.719 C51.944,29.482 51.913,29.245 51.884,29.009 C51.86,28.807 51.838,28.607 51.816,28.406 C51.79,28.169 51.764,27.932 51.742,27.697 C51.723,27.501 51.708,27.307 51.692,27.112 C51.673,26.877 51.653,26.642 51.638,26.411 C51.625,26.218 51.617,26.03 51.607,25.839 C51.595,25.611 51.583,25.383 51.575,25.159 C51.569,24.967 51.568,24.78 51.566,24.592 C51.563,24.378 51.558,24.161 51.56,23.952 C51.562,23.749 51.571,23.555 51.577,23.357 C51.583,23.171 51.585,22.981 51.595,22.799 C51.612,22.5 51.638,22.212 51.667,21.928 C51.674,21.856 51.677,21.78 51.686,21.709 C51.688,21.689 51.69,21.668 51.692,21.648 C51.747,21.167 51.795,20.677 51.839,20.182 C51.853,20.024 51.867,19.865 51.88,19.705 C51.913,19.301 51.944,18.894 51.971,18.484 C51.98,18.356 51.989,18.229 51.997,18.1 C52.029,17.591 52.056,17.079 52.079,16.566 C52.087,16.392 52.093,16.219 52.1,16.045 C52.115,15.677 52.128,15.31 52.139,14.943 C52.145,14.752 52.151,14.562 52.156,14.372 C52.168,13.894 52.178,13.418 52.184,12.946 C52.187,12.736 52.188,12.532 52.19,12.324 C52.193,12.022 52.195,11.722 52.196,11.425 C52.197,11.169 52.197,10.917 52.196,10.665 C52.195,10.443 52.194,10.226 52.192,10.008 C52.188,9.37 52.18,8.749 52.169,8.149 C52.169,8.148 52.169,8.147 52.169,8.147 C52.167,8.024 52.166,7.893 52.163,7.772 C52.41,8.837 52.516,9.955 52.522,10.686 C52.522,10.72 52.524,10.756 52.527,10.79 C52.564,11.263 53.451,22.406 54.887,27.077 C56.324,31.757 59.137,36.065 64.594,41.948 C67.418,44.994 69.065,45.971 71.371,45.971 C71.937,45.971 72.496,45.915 73.143,45.852 C73.951,45.772 74.868,45.681 76.031,45.681 C76.617,45.681 77.227,45.705 77.845,45.752 C80.765,45.974 83.024,47.738 84.592,49.529 C82.693,49.06 81.171,49.461 79.616,49.947 Z" id="Shape" fill="#000000" fill-rule="nonzero"></path>
            </g>
            <rect id="Rectangle" x="0" y="0" width="100" height="100"></rect>
        </g>
    </g>
</svg>