<?xml version="1.0" encoding="UTF-8"?>
<svg width="100px" height="100px" viewBox="0 0 100 100" version="1.1" xmlns="http://www.w3.org/2000/svg" xmlns:xlink="http://www.w3.org/1999/xlink">
    <!-- Generator: Sketch 52.6 (67491) - http://www.bohemiancoding.com/sketch -->
    <title>Slice 1</title>
    <desc>Created with Sketch.</desc>
    <g id="Page-1" stroke="none" stroke-width="1" fill="none" fill-rule="evenodd">
        <g id="brokenGlass" transform="translate(20.000000, 6.000000)" fill="#000000" fill-rule="nonzero">
            <g id="Group" transform="translate(0.000000, 0.637820)">
                <path d="M7.8125,0.36218 C7.07056088,0.437508648 6.43213974,0.919335922 6.15625,1.61218 C2.211168,11.27828 0,21.24053 0,30.36218 C0,38.99151 2.070004,46.96678 6.96875,52.86218 C11.550993,58.376591 18.58023,61.900364 28,62.33093 L28,80.39343 C23.393885,80.508546 19.248991,81.015443 16.03125,81.86218 C14.192541,82.34608 12.674915,82.93343 11.4375,83.70593 C10.200085,84.47833 9,85.64998 9,87.36218 L9,90.36218 C9.0001101,91.4667039 9.89547611,92.3620699 11,92.36218 L49,92.36218 C50.1045239,92.3620699 50.9998899,91.4667039 51,90.36218 L51,87.36218 C51,85.64998 49.799915,84.47833 48.5625,83.70593 C47.325085,82.93343 45.807459,82.34608 43.96875,81.86218 C40.751009,81.015443 36.606115,80.508546 32,80.39343 L32,62.33093 C41.41977,61.900364 48.449007,58.376591 53.03125,52.86218 C57.929996,46.96678 60,38.99151 60,30.36218 C60,21.24053 57.788832,11.27828 53.84375,1.61218 C53.5395067,0.860184072 52.8111991,0.366416158 52,0.36218 L39,0.36218 C38.247828,0.362844364 37.5596188,0.785428957 37.21875,1.45593 L31.21875,13.45593 C30.9038502,14.0756907 30.933325,14.8145047 31.296596,15.4072099 C31.6598669,15.9999151 32.3048275,16.3614958 33,16.36218 L39.46875,16.36218 L27.125,29.83093 L29.875,22.01843 C30.0865008,21.4093228 29.9914031,20.7356116 29.619568,20.2088452 C29.2477329,19.6820789 28.6447652,19.3668641 28,19.36218 L20.71875,19.36218 L25.90625,2.95593 C26.0947019,2.3494777 25.9839674,1.68956896 25.6078829,1.1778474 C25.2317984,0.666125852 24.6350567,0.363403105 24,0.36218 L8,0.36218 C7.93753436,0.359248994 7.87496564,0.359248994 7.8125,0.36218 Z M9.40625,4.36218 L21.28125,4.36218 L16.09375,20.76843 C15.9052981,21.3748823 16.0160326,22.034791 16.3921171,22.5465126 C16.7682016,23.0582341 17.3649433,23.3609569 18,23.36218 L25.1875,23.36218 L20.125,37.70593 C19.8409949,38.5914867 20.2048006,39.5559608 21.0029125,40.0333361 C21.8010243,40.5107114 22.8228642,40.3750347 23.46875,39.70593 L45.46875,15.70593 C45.998675,15.1215182 46.1355926,14.2802147 45.8183261,13.557927 C45.5010595,12.8356392 44.7888798,12.3673037 44,12.36218 L36.25,12.36218 L40.25,4.36218 L50.59375,4.36218 C54.055965,13.22319 56,22.26775 56,30.36218 C56,38.34517 54.052005,45.34808 49.9375,50.29968 C45.822995,55.25118 39.526056,58.36218 30,58.36218 C20.473944,58.36218 14.177005,55.25118 10.0625,50.29968 C5.947995,45.34808 4,38.34517 4,30.36218 C4,22.26775 5.944035,13.22319 9.40625,4.36218 Z M30,84.36218 C35.121762,84.36218 39.746418,84.89738 42.9375,85.73718 C44.533041,86.15708 45.757103,86.65613 46.4375,87.08093 C46.947798,87.399455 47.001265,87.584894 47,87.51843 L47.0000213,88.36218 L12.9999787,88.36218 L13,87.51843 C12.998735,87.584894 13.052202,87.399455 13.5625,87.08093 C14.242897,86.65613 15.466959,86.15708 17.0625,85.73718 C20.253582,84.89738 24.878238,84.36218 30,84.36218 Z" id="Shape"></path>
            </g>
        </g>
        <rect id="Rectangle" x="-54" y="0" width="100" height="100"></rect>
    </g>
</svg>