<?xml version="1.0" encoding="UTF-8"?>
<svg width="100px" height="100px" viewBox="0 0 100 100" version="1.1" xmlns="http://www.w3.org/2000/svg" xmlns:xlink="http://www.w3.org/1999/xlink">
    <!-- Generator: Sketch 52.6 (67491) - http://www.bohemiancoding.com/sketch -->
    <title>Slice 1</title>
    <desc>Created with Sketch.</desc>
    <g id="Page-1" stroke="none" stroke-width="1" fill="none" fill-rule="evenodd">
        <g id="diaper" transform="translate(9.000000, 39.000000)" fill="#000000" fill-rule="nonzero">
            <path d="M76,0 L6,0 C3.925,0 0,1.254 0,6 L0,21 C0,21.36 0.469,57 41,57 C81.531,57 82,21.36 82,21 L82,6 C82,1.254 78.075,0 76,0 Z M80,6 L80,20.033 C78.852,20.063 77.744,20.138 76.683,20.264 C75.926,19.498 75.245,18.4 74.647,17 L76,17 C76.552,17 77,16.552 77,16 L77,6 C77,5.448 76.552,5 76,5 L72.183,5 C72.087,3.75 72.042,2.71 72.02,2 L75.995,2 C76.405,2.003 80,2.147 80,6 Z M58.08,12.667 C58.447,12.21 58.666,11.63 58.666,11 C58.666,10.37 58.446,9.79 58.08,9.333 C58.447,8.876 58.666,8.296 58.666,7.666 C58.666,7.436 58.637,7.212 58.582,6.999 L75,6.999 L75,14.999 L58.582,14.999 C58.637,14.786 58.666,14.562 58.666,14.332 C58.667,13.703 58.447,13.124 58.08,12.667 Z M6,2 L9.979,2 C9.958,2.71 9.912,3.75 9.816,5 L6,5 C5.448,5 5,5.448 5,6 L5,16 C5,16.552 5.448,17 6,17 L7.353,17 C6.756,18.4 6.075,19.498 5.318,20.264 C4.256,20.138 3.149,20.062 2.001,20.033 L2.001,6 C2,2.147 5.595,2.003 6,2 Z M23.92,9.333 C23.553,9.79 23.333,10.37 23.333,11 C23.333,11.63 23.553,12.21 23.919,12.667 C23.552,13.124 23.333,13.704 23.333,14.334 C23.333,14.564 23.362,14.788 23.417,15.001 L7,15.001 L7,7.001 L23.418,7.001 C23.363,7.214 23.334,7.438 23.334,7.668 C23.333,8.297 23.553,8.876 23.92,9.333 Z M2.038,22.035 C25.675,22.721 29.341,46.444 29.902,53.935 C5.085,48.888 2.335,27.126 2.038,22.035 Z M31.931,54.306 C31.507,47.614 28.511,24.654 7.623,20.621 C8.329,19.654 8.95,18.429 9.494,17 L26,17 C26.552,17 27,16.552 27,16 C27,15.448 26.552,15 26,15 C25.632,15 25.333,14.701 25.333,14.333 C25.333,13.965 25.632,13.666 26,13.666 C26.552,13.666 27,13.218 27,12.666 C27,12.114 26.552,11.666 26,11.666 C25.632,11.666 25.333,11.367 25.333,10.999 C25.333,10.631 25.632,10.332 26,10.332 C26.552,10.332 27,9.884 27,9.332 C27,8.78 26.552,8.332 26,8.332 C25.632,8.332 25.333,8.033 25.333,7.665 C25.333,7.297 25.632,7 26,7 C26.552,7 27,6.552 27,6 C27,5.448 26.552,5 26,5 L11.823,5 C11.917,3.741 11.961,2.706 11.981,2 L70.018,2 C70.039,2.706 70.082,3.741 70.176,5 L56,5 C55.448,5 55,5.448 55,6 C55,6.552 55.448,7 56,7 C56.368,7 56.667,7.299 56.667,7.667 C56.667,8.035 56.368,8.333 56,8.333 C55.448,8.333 55,8.781 55,9.333 C55,9.885 55.448,10.333 56,10.333 C56.368,10.333 56.667,10.632 56.667,11 C56.667,11.368 56.368,11.667 56,11.667 C55.448,11.667 55,12.115 55,12.667 C55,13.219 55.448,13.667 56,13.667 C56.368,13.667 56.667,13.966 56.667,14.334 C56.667,14.702 56.368,15 56,15 C55.448,15 55,15.448 55,16 C55,16.552 55.448,17 56,17 L72.506,17 C73.05,18.429 73.671,19.653 74.377,20.621 C53.478,24.655 50.49,47.639 50.069,54.318 C47.23,54.766 44.212,55 41,55 C37.699,55 34.697,54.745 31.931,54.306 Z M52.097,53.959 C52.652,46.497 56.297,22.728 79.952,22.035 C79.78,24.546 78.968,31.291 75.132,38.004 C70.273,46.506 62.547,51.845 52.097,53.959 Z" id="Shape"></path>
        </g>
        <rect id="Rectangle" x="0" y="0" width="100" height="100"></rect>
    </g>
</svg>