<?xml version="1.0" encoding="UTF-8"?>
<svg width="100px" height="100px" viewBox="0 0 100 100" version="1.1" xmlns="http://www.w3.org/2000/svg" xmlns:xlink="http://www.w3.org/1999/xlink">
    <!-- Generator: Sketch 52.6 (67491) - http://www.bohemiancoding.com/sketch -->
    <title>Custom Preset</title>
    <desc>Created with Sketch.</desc>
    <g id="Custom-Preset" stroke="none" stroke-width="1" fill="none" fill-rule="evenodd">
        <g id="dirtyTissue" transform="translate(6.000000, 11.000000)" fill="#000000" fill-rule="nonzero">
            <path d="M87.1253676,43.153821 C87.1171868,43.1253679 87.1090059,43.0969149 87.0994615,43.0684618 C86.6181537,41.4818645 85.9050545,39.8139727 84.8442684,38.2002772 C83.8830161,36.7545903 82.4649986,35.9213219 81.0933394,35.1165065 C79.8143967,34.3645326 78.6090818,33.6559157 77.8209914,32.4893398 C76.739753,30.8891934 77.1256174,27.9544626 77.4992105,25.1159303 C77.7773601,23.0022738 78.065054,20.818162 77.8169009,18.8454159 C77.3437739,15.2454252 76.4411513,12.9163383 74.975412,11.5167183 C67.863509,4.72862905 50.1805582,0 38.7587,0 C35.8803972,0 33.4070475,0.291305228 31.4136422,0.864431328 C28.6771411,1.64756817 25.4634226,3.37643083 21.8556589,6.00766224 C19.8281666,7.49670617 18.5710395,10.0588373 17.3548169,12.5356092 C16.4521942,14.3769292 15.516848,16.2819299 14.3647088,17.4945726 C12.843067,19.0906542 10.9900999,20.2504555 9.19848935,21.3709645 C6.76059006,22.8979458 4.23815511,24.4750588 2.80650284,27.0927411 C1.64209232,29.2104624 0.826732267,31.1723692 0.378147889,32.9310399 C0.368603541,32.9608478 0.360422671,32.9920107 0.352241801,33.0231736 C0.352241801,33.0272383 0.350878322,33.031303 0.349514844,33.0340129 C-0.145427798,35.0460513 -0.114067796,37.7748361 0.439504415,41.1390727 C0.867636618,43.7703042 2.80650284,45.8731214 4.68128557,47.9054835 C6.23428741,49.5882793 7.83773796,51.3266263 8.5153867,53.2831135 C8.68582149,53.7695255 8.00135536,55.3425737 7.59231185,56.281525 C6.80149441,58.0943919 5.98477088,59.9736494 6.64060396,61.6456059 C9.25302849,68.3591752 11.8109139,73.8926196 12.3767574,75.1025525 C12.4490217,75.4128265 12.6044583,75.6377412 12.8457939,75.832848 C13.0353174,76.0184704 13.2616548,76.1444768 13.5057175,76.2244164 C13.7852305,76.3599072 14.1151923,76.4940431 14.5092375,76.6552771 C15.2359715,76.9492922 16.2885768,77.3693137 17.5906986,77.8719846 C19.9631509,78.793322 23.6622677,80.1793929 27.7976976,81.5695286 C38.5200913,85.173584 46.7186867,87 52.1671462,87 C53.8155915,87 55.2472438,86.8279267 56.4089273,86.4891997 C65.8046566,83.8132563 79.1353845,70.6720032 84.7774579,60.7120743 C85.5805467,59.2961954 84.9833431,57.7082431 84.4079553,56.1704225 C84.0207274,55.1379826 83.5816874,53.9714068 83.6471344,53.0419399 C83.9675518,51.9512389 84.5333953,51.742583 85.4510162,51.4011462 C86.316825,51.0813879 88.1179799,50.4120634 87.9939033,48.2442105 C87.921639,46.8323963 87.6898477,45.0534021 87.1253676,43.153821 Z M79.3549045,38.0403981 C80.4865915,38.7056579 81.465569,39.2801389 81.9891447,40.0659856 C82.4172769,40.7190513 82.7731447,41.3870209 83.0758369,42.0536357 L51.9994383,44.3691735 L73.6460206,15.7684197 C73.9446224,16.589494 74.2241355,17.7167775 74.4272937,19.2749217 C74.6195442,20.8073227 74.3727546,22.6865802 74.1109668,24.6742303 C73.6542015,28.1387301 73.182438,31.7197521 74.9835929,34.3835013 C76.2025426,36.1882388 77.876894,37.171902 79.3549045,38.0403981 Z M38.824147,34.7086792 C38.6741644,34.5826728 38.5023661,34.4837645 38.316933,34.4160191 C37.8356252,34.2385261 37.3624982,34.2751086 37.0161747,34.3022068 L36.9289121,34.3103362 C33.4915832,34.1829749 27.3463862,33.7575338 21.1657389,33.2887356 C24.6439721,28.8798648 30.4373917,22.0714519 33.6633814,20.4360779 C36.2485364,21.4685179 40.2012601,25.312392 42.1319455,27.1916494 L42.3678272,27.419274 C42.3691907,27.419274 42.3705542,27.4219838 42.3719177,27.4233387 L42.4032777,27.4599212 C42.6132533,27.7051596 43.0018447,28.1590537 43.609956,28.2958995 C47.8421928,29.4109888 56.8029726,26.6618804 62.7436477,24.5211257 L48.6902764,43.0914952 C44.8207248,39.7733254 41.3288567,36.8006572 38.824147,34.7086792 Z M5.80888217,28.7159209 C6.81649267,26.8759558 8.76490324,25.6551837 11.0214599,24.2433695 C12.9003331,23.0686642 15.0287228,21.7354347 16.8476029,19.8263693 C18.3624274,18.2343524 19.4123057,16.0922428 20.4294605,14.0219433 C21.4643406,11.9123515 22.5346711,9.73094953 23.8831512,8.74186666 C27.1132314,6.38568158 30.0460734,4.788245 32.3626231,4.12704988 C34.0478823,3.6419928 36.2008146,3.39539954 38.7587,3.39539954 C49.7619703,3.39539954 64.9579366,7.93569638 71.4685457,12.9922132 L66.6241071,19.3927987 C60.1203154,22.0687421 49.0665964,25.7473174 44.8507213,25.0888321 C44.8179978,25.0536045 44.7839109,25.0197318 44.7552778,24.9912788 L44.5207596,24.7650091 C41.2852254,21.6175577 37.5806547,18.1760913 34.5319171,17.135522 C33.9974336,16.9377054 33.2161605,16.898413 32.5930509,17.1842986 C27.7636106,19.2613727 19.487297,29.8255906 17.0916655,32.9771067 C11.8095504,32.5625049 6.95147703,32.1587423 4.28451337,31.9351824 C4.67446818,30.9339054 5.18168213,29.8594633 5.80888217,28.7159209 Z M10.7324025,57.6269487 C11.5300373,55.7978228 12.3522148,53.9063712 11.7495573,52.1761536 C10.8442077,49.5530517 8.90943194,47.4583638 7.20372052,45.6075595 C5.59754302,43.8692124 4.08135509,42.2243541 3.81684029,40.5930448 C3.47188027,38.4997119 3.35462113,36.6976842 3.46097244,35.2750308 C9.29120588,35.7655075 29.4216003,37.4361091 36.8566477,37.7070907 C36.9289121,37.7084456 37.0025399,37.7070907 37.0966199,37.703026 C40.9170863,40.9019638 46.7582275,45.908349 52.7316262,51.0583545 C54.0242037,55.2707636 56.7620682,64.8458987 57.4465343,69.9295136 C53.3192854,69.201928 47.7153893,67.5502951 42.2764742,65.9474389 C36.1735451,64.1508309 30.4114856,62.454486 26.2365148,61.8434225 C26.2187896,61.8407127 26.1887931,61.835293 26.1710679,61.8325832 C25.8042922,61.7716123 24.8348591,61.6103783 24.116306,62.4124838 C22.9982538,63.6982916 23.8258851,65.2632104 24.4312695,66.402688 C24.5062608,66.5408886 24.6017043,66.7224463 24.6889669,66.8972294 C21.8038467,68.0001246 17.2580099,70.6625189 14.7860236,72.163757 C13.7375088,69.8617682 11.802733,65.4867702 9.83250679,60.4221239 C9.7057033,59.9817788 10.3738077,58.4493778 10.7324025,57.6269487 Z M55.4626733,83.2238713 C54.603682,83.4731744 53.4951741,83.5991808 52.1712366,83.5991808 C42.5123559,83.5991808 24.9357565,77.1051066 17.8265804,74.3112862 C20.8180519,72.5404214 24.81168,70.3156624 26.638741,69.8224759 C27.4868245,69.6056906 27.8481463,68.8889443 28.0267619,68.5285387 C28.5953324,67.5462304 28.2844593,66.5070159 27.8454193,65.577549 C31.6249813,66.3525564 36.5321399,67.7982433 41.3043141,69.2032829 C47.6104015,71.0608618 54.1291915,72.9821214 58.6545762,73.548473 C58.9681762,73.5986046 59.922611,73.7517092 60.6070772,72.9658625 C60.8743189,72.6582984 61.0229381,72.2640202 61.0229381,71.8575478 C61.0229381,68.3117534 59.0145344,60.5372911 57.5024369,55.1745651 C64.6784235,61.3800439 71.3076553,67.1465325 74.0059789,69.4932332 C67.9425907,76.1133139 60.5961693,81.7605706 55.4626733,83.2238713 Z M84.2579727,48.2184672 C83.1453743,48.6317142 81.0742507,49.401302 80.3093394,52.2994502 C80.2888872,52.37668 80.2752524,52.4525549 80.265708,52.5324944 C80.0584593,54.29252 80.6952037,55.9915747 81.2078716,57.357322 C81.4233012,57.9345128 81.7464455,58.7921696 81.7518994,59.1308966 C80.2902507,61.6957375 78.3895618,64.3540671 76.2434469,66.9324571 C72.9833702,64.0952796 64.0375887,56.3153977 55.293602,48.7739795 C54.8504716,48.3905406 54.4087046,48.0098114 53.9669376,47.6304372 L84.173437,45.37858 C84.3888666,46.3676629 84.5074892,47.29442 84.5633918,48.104655 C84.4638579,48.1425924 84.3534161,48.1818847 84.2579727,48.2184672 Z" id="Shape"></path>
        </g>
    </g>
</svg>