<?xml version="1.0" encoding="UTF-8"?>
<svg width="100px" height="100px" viewBox="0 0 100 100" version="1.1" xmlns="http://www.w3.org/2000/svg" xmlns:xlink="http://www.w3.org/1999/xlink">
    <!-- Generator: Sketch 52.6 (67491) - http://www.bohemiancoding.com/sketch -->
    <title>Custom Preset</title>
    <desc>Created with Sketch.</desc>
    <g id="Custom-Preset" stroke="none" stroke-width="1" fill="none" fill-rule="evenodd">
        <g id="fishBone" transform="translate(0.000000, 43.000000)" fill="#000000">
            <g id="Group">
                <path d="M52.9155779,50.2522613 C52.5613065,50.2522613 52.2035176,50.138191 51.901005,49.9040201 C44.3130653,44.0603015 39.9603015,35.221608 39.9603015,25.6537688 C39.9603015,15.4753769 45.0025126,5.99145729 53.4467337,0.285427136 C54.2080402,-0.229145729 55.2452261,-0.027638191 55.7592965,0.732663317 C56.2728643,1.49547739 56.0748744,2.53015075 55.3100503,3.04472362 C47.7844221,8.13065327 43.2899497,16.5829146 43.2899497,25.6537688 C43.2899497,34.179397 47.1693467,42.0572864 53.9341709,47.2668342 C54.6628141,47.8296482 54.7959799,48.8733668 54.2366834,49.6015075 C53.9085427,50.0276382 53.4140704,50.2522613 52.9155779,50.2522613 Z" id="Path"></path>
                <path d="M74.6366834,42.041206 C74.2824121,42.041206 73.9246231,41.9271357 73.621608,41.6934673 C68.5452261,37.781407 65.6346734,31.8673367 65.6346734,25.4683417 C65.6346734,18.6577889 69.0070352,12.3135678 74.658794,8.4959799 C75.4231156,7.98190955 76.4572864,8.18190955 76.9713568,8.94371859 C77.4849246,9.70552764 77.2869347,10.7407035 76.5221106,11.2552764 C71.7904523,14.4527638 68.9648241,19.7668342 68.9648241,25.4688442 C68.9648241,30.8261307 71.4040201,35.778392 75.6542714,39.0567839 C76.3824121,39.6190955 76.519598,40.6628141 75.9567839,41.3914573 C75.6281407,41.8165829 75.1371859,42.041206 74.6366834,42.041206 Z" id="Path"></path>
                <path d="M63.8236181,46.7336683 C63.4693467,46.7336683 63.1115578,46.6201005 62.8085427,46.3859296 C56.2949749,41.3713568 52.560804,33.7849246 52.560804,25.5753769 C52.560804,16.8407035 56.8864322,8.70150754 64.1351759,3.80502513 C64.8964824,3.29145729 65.9336683,3.49145729 66.4477387,4.25226131 C66.9613065,5.01507538 66.7633166,6.04974874 65.9984925,6.56432161 C59.6703518,10.8407035 55.8914573,17.9477387 55.8914573,25.5753769 C55.8914573,32.7442211 59.1532663,39.3683417 64.841206,43.7487437 C65.5698492,44.3115578 65.7030151,45.3552764 65.1437186,46.0834171 C64.8155779,46.5090452 64.321608,46.7336683 63.8236181,46.7336683 Z" id="Path"></path>
                <path d="M77.8396985,27.318593 L28.7211055,27.318593 C27.8015075,27.318593 27.0562814,26.5733668 27.0562814,25.6537688 C27.0562814,24.7341709 27.8015075,23.9889447 28.7211055,23.9889447 L77.8396985,23.9889447 C78.759799,23.9889447 79.5045226,24.7341709 79.5045226,25.6537688 C79.5045226,26.5728643 78.759799,27.318593 77.8396985,27.318593 Z" id="Path"></path>
                <path d="M28.1653266,47.2050251 C28.1648241,47.2050251 28.1648241,47.2050251 28.1638191,47.2050251 C24.040201,47.2050251 0,29.8819095 0,25.3839196 C0,21.3643216 22.958794,2.75025126 27.9155779,2.75025126 C29.3698492,2.75025126 30.3864322,3.75125628 30.3864322,5.18442211 L30.3864322,45.0693467 C30.3864322,45.7291457 30.121608,46.3115578 29.640201,46.7080402 C29.3653266,46.9351759 28.8869347,47.2050251 28.1653266,47.2050251 Z M3.40653266,25.3698492 C5.22211055,28.6462312 21.8427136,41.2829146 27.0562814,43.5336683 L27.0562814,6.28994975 C22.2296482,8.14020101 5.24371859,21.7236181 3.40653266,25.3698492 Z" id="Shape" fill-rule="nonzero"></path>
                <path d="M96.5251256,44.5452261 C94.7979899,44.5452261 92.3301508,43.6603015 88.980402,41.8361809 C84.2226131,39.2502513 76.1743719,32.9286432 76.1743719,25.6532663 C76.1743719,18.5236181 83.9467337,12.4462312 89.7939698,8.49497487 C91.4070352,7.16432161 92.9869347,6.44321608 94.3693467,6.44321608 C95.9170854,6.44321608 97.1432161,7.31155779 97.7286432,8.82512563 C99.0979899,12.3557789 96.7628141,19.620603 90.6979899,25.7442211 C93.9366834,29.461809 101.423116,38.6914573 99.6376884,42.7301508 C99.338191,43.4065327 98.5351759,44.5452261 96.5251256,44.5452261 Z M94.3693467,9.77336683 C94.1613065,9.77336683 93.3542714,9.87336683 91.7809045,11.1628141 C88.6522613,13.2864322 79.5045226,19.4673367 79.5045226,25.6532663 C79.5045226,30.9648241 86.1221106,36.4929648 90.5708543,38.9120603 C94.4502513,41.0226131 96.1025126,41.2442211 96.6125628,41.2145729 C96.6708543,39.7869347 94.079397,34.3788945 87.1562814,26.7743719 C86.5386935,26.0944724 86.5869347,25.0427136 87.2668342,24.4231156 C93.540201,18.698995 95.3904523,12.0100503 94.6231156,10.0291457 C94.5256281,9.77336683 94.4798995,9.77336683 94.3693467,9.77336683 Z" id="Shape" fill-rule="nonzero"></path>
                <path d="M19.5386935,26.6437186 C16.2241206,26.6437186 13.5281407,23.9477387 13.5281407,20.6336683 C13.5281407,17.3190955 16.2241206,14.6231156 19.5386935,14.6231156 C22.8532663,14.6231156 25.5492462,17.3190955 25.5492462,20.6336683 C25.5492462,23.9477387 22.8532663,26.6437186 19.5386935,26.6437186 Z M19.5386935,17.9532663 C18.060804,17.9532663 16.8582915,19.1557789 16.8582915,20.6336683 C16.8582915,22.1115578 18.060804,23.3140704 19.5386935,23.3140704 C21.0165829,23.3140704 22.2190955,22.1115578 22.2190955,20.6336683 C22.2190955,19.1557789 21.0165829,17.9532663 19.5386935,17.9532663 Z" id="Shape" fill-rule="nonzero"></path>
            </g>
        </g>
    </g>
</svg>