<?xml version="1.0" encoding="UTF-8"?>
<svg width="100px" height="100px" viewBox="0 0 100 100" version="1.1" xmlns="http://www.w3.org/2000/svg" xmlns:xlink="http://www.w3.org/1999/xlink">
    <!-- Generator: Sketch 52.6 (67491) - http://www.bohemiancoding.com/sketch -->
    <title>Custom Preset</title>
    <desc>Created with Sketch.</desc>
    <g id="Custom-Preset" stroke="none" stroke-width="1" fill="none" fill-rule="evenodd">
        <g id="brokenGlass" transform="translate(21.000000, 4.000000)" fill="#000000" fill-rule="nonzero">
            <g id="Group">
                <path d="M7.68229167,0.358285591 C6.9527182,0.432804254 6.32493741,0.90945059 6.05364583,1.59484473 C2.1743152,11.1570082 0,21.0121372 0,30.0357049 C0,38.5722465 2.03550393,46.4617609 6.85260417,52.2937695 C11.3584764,57.7488857 18.2705595,61.2347687 27.5333333,61.6607049 L27.5333333,79.5289845 C23.0039869,79.6428627 18.9281745,80.1443092 15.7640625,80.9819415 C13.9559986,81.4606383 12.4636664,82.0416727 11.246875,82.8058662 C10.0300836,83.5699609 8.85,84.7290125 8.85,86.4228017 L8.85,89.3905437 C8.85010827,90.4831909 9.73055151,91.3689294 10.8166667,91.3690383 L48.1833333,91.3690383 C49.2694485,91.3689294 50.1498917,90.4831909 50.15,89.3905437 L50.15,86.4228017 C50.15,84.7290125 48.9699164,83.5699609 47.753125,82.8058662 C46.5363336,82.0416727 45.0440013,81.4606383 43.2359375,80.9819415 C40.0718255,80.1443092 35.9960131,79.6428627 31.4666667,79.5289845 L31.4666667,61.6607049 C40.7294405,61.2347687 47.6415235,57.7488857 52.1473958,52.2937695 C56.9644961,46.4617609 59,38.5722465 59,30.0357049 C59,21.0121372 56.8256848,11.1570082 52.9463542,1.59484473 C52.6471816,0.850934781 51.9310124,0.362476199 51.1333333,0.358285591 L38.35,0.358285591 C37.6103642,0.358942812 36.9336251,0.776983485 36.5984375,1.44027484 L30.6984375,13.3112426 C30.388786,13.9243392 30.4177696,14.6552089 30.774986,15.241541 C31.1322025,15.827873 31.7664137,16.1855658 32.45,16.1862426 L38.8109375,16.1862426 L26.6729167,29.5101673 L29.3770833,21.7816727 C29.5850591,21.1791151 29.4915464,20.512648 29.1259085,19.9915458 C28.7602707,19.4704436 28.1673525,19.1586182 27.5333333,19.1539845 L20.3734375,19.1539845 L25.4744792,2.92414581 C25.6597902,2.32421449 25.5509013,1.67140155 25.1810848,1.16518238 C24.8112684,0.658963209 24.2244724,0.359495545 23.6,0.358285591 L7.86666667,0.358285591 C7.80524212,0.355386102 7.74371621,0.355386102 7.68229167,0.358285591 Z M9.24947917,4.31527484 L20.9265625,4.31527484 L15.8255208,20.5451135 C15.6402098,21.1450449 15.7490987,21.7978578 16.1189152,22.304077 C16.4887316,22.8102961 17.0755276,23.1097638 17.7,23.1109738 L24.7677083,23.1109738 L19.7895833,37.3004899 C19.5103116,38.1765245 19.868054,39.1306279 20.6528639,39.6028701 C21.4376739,40.0751124 22.4424831,39.9408946 23.0776042,39.2789845 L44.7109375,15.537049 C45.2320304,14.9589212 45.3666661,14.126664 45.0546873,13.4121428 C44.7427085,12.6976216 44.0423985,12.234322 43.2666667,12.2292533 L35.6458333,12.2292533 L39.5791667,4.31527484 L49.7505208,4.31527484 C53.1550322,13.0810052 55.0666667,22.0283118 55.0666667,30.0357049 C55.0666667,37.9328563 53.1511382,44.8604662 49.1052083,49.7588232 C45.0592784,54.6570813 38.8672884,57.7346297 29.5,57.7346297 C20.1327116,57.7346297 13.9407216,54.6570813 9.89479167,49.7588232 C5.84886175,44.8604662 3.93333333,37.9328563 3.93333333,30.0357049 C3.93333333,22.0283118 5.84496775,13.0810052 9.24947917,4.31527484 Z M29.5,83.4550598 C34.5363993,83.4550598 39.0839777,83.9845049 42.221875,84.8152748 C43.7908237,85.2306598 44.9944846,85.7243437 45.6635417,86.1445759 C46.1653347,86.4596759 46.2179106,86.6431209 46.2166667,86.5773716 L46.2166877,87.412049 L12.7833123,87.412049 L12.7833333,86.5773716 C12.7820894,86.6431209 12.8346653,86.4596759 13.3364583,86.1445759 C14.0055154,85.7243437 15.2091764,85.2306598 16.778125,84.8152748 C19.9160223,83.9845049 24.4636007,83.4550598 29.5,83.4550598 Z" id="Shape"></path>
            </g>
        </g>
    </g>
</svg>