<?xml version="1.0" encoding="UTF-8"?>
<svg width="100px" height="100px" viewBox="0 0 100 100" version="1.1" xmlns="http://www.w3.org/2000/svg" xmlns:xlink="http://www.w3.org/1999/xlink">
    <!-- Generator: Sketch 52.6 (67491) - http://www.bohemiancoding.com/sketch -->
    <title>Custom Preset</title>
    <desc>Created with Sketch.</desc>
    <g id="Custom-Preset" stroke="none" stroke-width="1" fill="none" fill-rule="evenodd">
        <g id="medicinePlasticStrip" transform="translate(49.500000, 65.000000) rotate(-90.000000) translate(-49.500000, -65.000000) translate(17.500000, 19.500000)" fill="#000000">
            <g id="Group" transform="translate(0.500000, 0.500000)">
                <path d="M15.8869565,0 C7.5326087,0 0.684782609,6.81818182 0.684782609,15.1363636 L0.684782609,74.8636364 C0.684782609,83.1818182 7.5326087,90 15.8869565,90 L47.1130435,90 C55.4673913,90 62.3152174,83.1818182 62.3152174,74.8636364 L62.3152174,15.1363636 C62.3152174,6.81818182 55.4673913,0 47.1130435,0 L15.8869565,0 Z M59.576087,15.1363636 L59.576087,74.8636364 C59.576087,81.6818182 53.9608696,87.2727273 47.1130435,87.2727273 L15.8869565,87.2727273 C9.03913043,87.2727273 3.42391304,81.6818182 3.42391304,74.8636364 L3.42391304,15.1363636 C3.42391304,8.31818182 9.03913043,2.72727273 15.8869565,2.72727273 L47.1130435,2.72727273 C53.9608696,2.72727273 59.576087,8.31818182 59.576087,15.1363636 Z" id="Shape" fill-rule="nonzero"></path>
                <path d="M31.5,23.5909091 C30.6782609,23.5909091 30.1304348,24.1363636 30.1304348,24.9545455 L30.1304348,65.0454545 C30.1304348,65.8636364 30.6782609,66.4090909 31.5,66.4090909 C32.3217391,66.4090909 32.8695652,65.8636364 32.8695652,65.0454545 L32.8695652,24.9545455 C32.8695652,24.1363636 32.3217391,23.5909091 31.5,23.5909091 Z" id="Path"></path>
                <path d="M17.3934783,8.04545455 L9.58695652,15.8181818 C7.5326087,17.8636364 7.5326087,21 9.58695652,23.0454545 C11.6413043,25.0909091 14.7913043,25.0909091 16.8456522,23.0454545 L24.6521739,15.2727273 C26.7065217,13.2272727 26.7065217,10.0909091 24.6521739,8.04545455 C22.5978261,6.13636364 19.3108696,6.13636364 17.3934783,8.04545455 Z M14.9282609,21.1363636 C13.9695652,22.0909091 12.4630435,22.0909091 11.5043478,21.1363636 C10.5456522,20.1818182 10.5456522,18.6818182 11.5043478,17.7272727 L14.3804348,14.8636364 L17.6673913,18.2727273 L14.9282609,21.1363636 Z M22.5978261,13.3636364 L19.7217391,16.2272727 L16.4347826,12.9545455 L19.3108696,10.0909091 C20.2695652,9.13636364 21.776087,9.13636364 22.7347826,10.0909091 C23.5565217,10.9090909 23.5565217,12.4090909 22.5978261,13.3636364 Z" id="Shape" fill-rule="nonzero"></path>
                <path d="M17.3934783,27.6818182 L9.58695652,35.4545455 C7.5326087,37.5 7.5326087,40.6363636 9.58695652,42.6818182 C11.6413043,44.7272727 14.7913043,44.7272727 16.8456522,42.6818182 L24.6521739,34.9090909 C26.7065217,32.8636364 26.7065217,29.7272727 24.6521739,27.6818182 C22.5978261,25.7727273 19.3108696,25.7727273 17.3934783,27.6818182 Z M14.9282609,40.7727273 C13.9695652,41.7272727 12.4630435,41.7272727 11.5043478,40.7727273 C10.5456522,39.8181818 10.5456522,38.3181818 11.5043478,37.3636364 L14.3804348,34.5 L17.6673913,37.9090909 L14.9282609,40.7727273 Z M22.5978261,33 L19.7217391,35.8636364 L16.4347826,32.5909091 L19.3108696,29.7272727 C20.2695652,28.7727273 21.776087,28.7727273 22.7347826,29.7272727 C23.5565217,30.5454545 23.5565217,32.0454545 22.5978261,33 Z" id="Shape" fill-rule="nonzero"></path>
                <path d="M17.3934783,47.3181818 L13.5586957,51.1363636 C13.5586957,51.1363636 13.5586957,51.1363636 13.5586957,51.1363636 L9.58695652,55.0909091 C7.5326087,57.1363636 7.5326087,60.2727273 9.58695652,62.3181818 C11.6413043,64.3636364 14.7913043,64.3636364 16.8456522,62.3181818 L24.6521739,54.5454545 C26.7065217,52.5 26.7065217,49.3636364 24.6521739,47.3181818 C22.5978261,45.4090909 19.3108696,45.4090909 17.3934783,47.3181818 Z M14.9282609,60.4090909 C13.9695652,61.3636364 12.4630435,61.3636364 11.5043478,60.4090909 C10.5456522,59.4545455 10.5456522,57.9545455 11.5043478,57 L14.3804348,54.1363636 L17.6673913,57.5454545 L14.9282609,60.4090909 Z M22.5978261,52.6363636 L19.7217391,55.5 L16.4347826,52.2272727 L19.3108696,49.3636364 C20.2695652,48.4090909 21.776087,48.4090909 22.7347826,49.3636364 C23.5565217,50.1818182 23.5565217,51.6818182 22.5978261,52.6363636 Z" id="Shape" fill-rule="nonzero"></path>
                <path d="M17.3934783,66.9545455 L9.58695652,74.7272727 C7.5326087,76.7727273 7.5326087,79.9090909 9.58695652,81.9545455 C11.6413043,84 14.7913043,84 16.8456522,81.9545455 L24.6521739,74.1818182 C26.7065217,72.1363636 26.7065217,69 24.6521739,66.9545455 C22.5978261,65.0454545 19.3108696,65.0454545 17.3934783,66.9545455 Z M14.9282609,79.9090909 C13.9695652,80.8636364 12.4630435,80.8636364 11.5043478,79.9090909 C10.5456522,78.9545455 10.5456522,77.4545455 11.5043478,76.5 L14.3804348,73.6363636 L17.6673913,77.0454545 L14.9282609,79.9090909 Z M22.5978261,72.2727273 L19.7217391,75.1363636 L16.4347826,71.7272727 L19.3108696,68.8636364 C20.2695652,67.9090909 21.776087,67.9090909 22.7347826,68.8636364 C23.5565217,69.8181818 23.5565217,71.3181818 22.5978261,72.2727273 Z" id="Shape" fill-rule="nonzero"></path>
                <path d="M38.3478261,15.8181818 C36.2934783,17.8636364 36.2934783,21 38.3478261,23.0454545 C40.4021739,25.0909091 43.5521739,25.0909091 45.6065217,23.0454545 L53.4130435,15.2727273 C55.4673913,13.2272727 55.4673913,10.0909091 53.4130435,8.04545455 C51.4956522,6.13636364 48.0717391,6.13636364 46.1543478,8.04545455 L38.3478261,15.8181818 Z M43.6891304,21.1363636 C42.7304348,22.0909091 41.223913,22.0909091 40.2652174,21.1363636 C39.3065217,20.1818182 39.3065217,18.6818182 40.2652174,17.7272727 L43.1413043,14.8636364 L46.4282609,18.2727273 L43.6891304,21.1363636 Z M51.4956522,10.0909091 C52.4543478,11.0454545 52.4543478,12.5454545 51.4956522,13.5 L48.6195652,16.3636364 L45.1956522,12.9545455 L48.0717391,10.0909091 C49.0304348,9.13636364 50.5369565,9.13636364 51.4956522,10.0909091 Z" id="Shape" fill-rule="nonzero"></path>
                <path d="M46.1543478,27.6818182 L38.3478261,35.4545455 C36.2934783,37.5 36.2934783,40.6363636 38.3478261,42.6818182 C40.4021739,44.7272727 43.5521739,44.7272727 45.6065217,42.6818182 L53.4130435,34.9090909 C55.4673913,32.8636364 55.4673913,29.7272727 53.4130435,27.6818182 C51.4956522,25.7727273 48.0717391,25.7727273 46.1543478,27.6818182 Z M43.6891304,40.7727273 C42.7304348,41.7272727 41.223913,41.7272727 40.2652174,40.7727273 C39.3065217,39.8181818 39.3065217,38.3181818 40.2652174,37.3636364 L43.1413043,34.5 L46.4282609,37.9090909 L43.6891304,40.7727273 Z M51.4956522,33 L48.6195652,35.8636364 L45.1956522,32.5909091 L48.0717391,29.7272727 C49.0304348,28.7727273 50.5369565,28.7727273 51.4956522,29.7272727 C52.4543478,30.5454545 52.4543478,32.0454545 51.4956522,33 Z" id="Shape" fill-rule="nonzero"></path>
                <path d="M46.1543478,47.3181818 L42.3195652,51.1363636 C42.3195652,51.1363636 42.3195652,51.1363636 42.3195652,51.1363636 C42.3195652,51.1363636 42.3195652,51.1363636 42.3195652,51.1363636 L38.3478261,55.0909091 C36.2934783,57.1363636 36.2934783,60.2727273 38.3478261,62.3181818 C40.4021739,64.3636364 43.5521739,64.3636364 45.6065217,62.3181818 L53.4130435,54.5454545 C55.4673913,52.5 55.4673913,49.3636364 53.4130435,47.3181818 C51.4956522,45.4090909 48.0717391,45.4090909 46.1543478,47.3181818 Z M43.6891304,60.4090909 C42.7304348,61.3636364 41.223913,61.3636364 40.2652174,60.4090909 C39.3065217,59.4545455 39.3065217,57.9545455 40.2652174,57 L43.1413043,54.1363636 L46.4282609,57.5454545 L43.6891304,60.4090909 Z M51.4956522,52.6363636 L48.6195652,55.5 L45.1956522,52.2272727 L48.0717391,49.3636364 C49.0304348,48.4090909 50.5369565,48.4090909 51.4956522,49.3636364 C52.4543478,50.1818182 52.4543478,51.6818182 51.4956522,52.6363636 Z" id="Shape" fill-rule="nonzero"></path>
                <path d="M46.1543478,66.9545455 L38.3478261,74.7272727 C36.2934783,76.7727273 36.2934783,79.9090909 38.3478261,81.9545455 C40.4021739,84 43.5521739,84 45.6065217,81.9545455 L53.4130435,74.1818182 C55.4673913,72.1363636 55.4673913,69 53.4130435,66.9545455 C51.4956522,65.0454545 48.0717391,65.0454545 46.1543478,66.9545455 Z M43.6891304,79.9090909 C42.7304348,80.8636364 41.223913,80.8636364 40.2652174,79.9090909 C39.3065217,78.9545455 39.3065217,77.4545455 40.2652174,76.5 L43.1413043,73.6363636 L46.4282609,77.0454545 L43.6891304,79.9090909 Z M51.4956522,72.2727273 L48.6195652,75.1363636 L45.1956522,71.7272727 L48.0717391,68.8636364 C49.0304348,67.9090909 50.5369565,67.9090909 51.4956522,68.8636364 C52.4543478,69.8181818 52.4543478,71.3181818 51.4956522,72.2727273 Z" id="Shape" fill-rule="nonzero"></path>
            </g>
        </g>
    </g>
</svg>