<?xml version="1.0" encoding="UTF-8"?>
<svg width="100px" height="100px" viewBox="0 0 100 100" version="1.1" xmlns="http://www.w3.org/2000/svg" xmlns:xlink="http://www.w3.org/1999/xlink">
    <!-- Generator: Sketch 52.6 (67491) - http://www.bohemiancoding.com/sketch -->
    <title>Slice 1</title>
    <desc>Created with Sketch.</desc>
    <g id="Page-1" stroke="none" stroke-width="1" fill="none" fill-rule="evenodd">
        <g id="noun_Garbage_1351636" fill="#9D9FA0" fill-rule="nonzero">
            <path d="M16.8028169,86.7971014 C15.2470852,86.7971014 13.9859155,88.0948268 13.9859155,89.6956522 C13.9859155,91.2964775 15.2470852,92.5942029 16.8028169,92.5942029 C18.3585486,92.5942029 19.6197183,91.2964775 19.6197183,89.6956522 C19.6197183,88.0948268 18.3585486,86.7971014 16.8028169,86.7971014 Z M16.8028169,91.1449275 C16.0249511,91.1449275 15.3943662,90.4960649 15.3943662,89.6956522 C15.3943662,88.8952395 16.0249511,88.2463768 16.8028169,88.2463768 C17.5806827,88.2463768 18.2112676,88.8952395 18.2112676,89.6956522 C18.2112676,90.4960649 17.5806827,91.1449275 16.8028169,91.1449275 Z" id="Shape"></path>
            <path d="M99.0093041,52.3679179 C100.417755,56.2563974 84.2857228,0.275362319 84.2857228,0.275362319 C83.6041601,0.281281301 83.1216038,0.281281301 82.838054,0.275362319 C66.0277013,-0.0755467597 40.3868476,-0.0755467597 5.91549296,0.275362319 C3.89435924,0.16981469 1.98127267,1.21928841 0.939927769,3.00483885 C-0.101417128,4.79038929 -0.101417128,7.02120492 0.939927769,8.80675535 C1.98127267,10.5923058 3.89435924,11.6417795 5.91549296,11.5362319 L12.1126761,81.9275362 C9.1728245,83.6783889 7.46946133,87.0091014 7.73175502,90.4938764 C7.99404871,93.9786514 10.175504,96.9997629 13.3422927,98.2639463 C16.5090814,99.5281296 20.099845,98.8112903 22.5774648,96.4202899 C22.7560073,96.4742047 22.9407252,96.5034466 23.1267606,96.5072464 L63.1408451,96.5072464 C67.8548257,96.5314181 71.7933848,92.8195809 72.1830986,87.9855072 L78.8732394,11.5942029 L79.2816901,11.5942029 C79.4677399,11.5905757 79.65248,11.5613303 79.8309859,11.5072464 L91.2929971,54.8676547 C93.5946974,56.357359 98.2261767,56.1352727 99.0093041,52.3679179 Z M16.8028169,94.4492754 C14.5926731,94.466076 12.6805804,92.8696912 12.241184,90.640819 C11.8017876,88.4119468 12.9581962,86.1750664 15,85.3043478 C16.7224087,84.5698339 18.705077,84.9727006 20.0268608,86.3257768 C21.3486446,87.678853 21.7504176,89.7168778 21.045517,91.4929887 C20.3406163,93.2690996 18.6672326,94.4351028 16.8028169,94.4492754 Z M5.91549296,7.24637681 C5.43853157,7.29862045 4.97441434,7.06621788 4.72005506,6.64777194 C4.46569579,6.229326 4.46569579,5.69821023 4.72005506,5.27976429 C4.97441434,4.86131835 5.43853157,4.62891578 5.91549296,4.68115942 L78.9859155,4.68115942 C79.6232529,4.75096973 80.1067504,5.30425203 80.1067504,5.96376812 C80.1067504,6.6232842 79.6232529,7.1765665 78.9859155,7.24637681 L5.91549296,7.24637681 Z M80.9391457,6.2996773 C80.9391457,6.2996773 80.8220132,4.45953845 83.4589575,5.20362498 L96.5081729,51.6398664 C96.5081729,53.9354539 94.4034194,53.6148261 93.7585222,51.6398664 L80.9391457,6.2996773 Z" id="Shape"></path>
        </g>
    </g>
</svg>