<svg xmlns="http://www.w3.org/2000/svg" xmlns:xlink="http://www.w3.org/1999/xlink" version="1.1" x="0px" y="0px" viewBox="0 0 100 125" style="enable-background:new 0 0 100 100;" xml:space="preserve"><g><path d="M23.532,12.252h52.956c0.458,0,0.83-0.372,0.83-0.83s-0.372-0.83-0.83-0.83H23.532c-0.458,0-0.83,0.372-0.83,0.83   S23.073,12.252,23.532,12.252z"/><path d="M23.532,89.41h52.956c0.458,0,0.83-0.372,0.83-0.83s-0.372-0.83-0.83-0.83H23.532c-0.458,0-0.83,0.372-0.83,0.83   S23.073,89.41,23.532,89.41z"/><path d="M79.563,8.588c0-0.285-0.143-0.536-0.362-0.686l-3.494-3.489c-0.323-0.324-0.849-0.324-1.173,0l-3.002,3.001l-3.006-3.001   c-0.323-0.324-0.849-0.324-1.173,0L64.35,7.414l-3.005-2.999c-0.324-0.322-0.849-0.323-1.173,0.001l-3.003,2.999l-3.005-3   c-0.324-0.322-0.849-0.322-1.173,0l-3.004,3l-3.003-2.999c-0.324-0.324-0.849-0.324-1.173,0l-3.002,2.999l-3.005-3   c-0.324-0.322-0.849-0.323-1.173,0.001l-3.003,3L32.62,4.415c-0.324-0.322-0.849-0.323-1.173,0.001l-3.003,3.002l-3.003-3   c-0.324-0.324-0.85-0.324-1.174,0l-3.59,3.587c-0.156,0.156-0.244,0.368-0.243,0.589l0.016,7.045c0,0.03,0.014,0.055,0.017,0.083   c0.003,0.029-0.005,0.056,0.001,0.085c0.027,0.132,2.756,13.446,2.756,34.195c0,20.745-2.729,34.06-2.756,34.191   c-0.006,0.029,0.002,0.056-0.001,0.085c-0.003,0.029-0.017,0.054-0.017,0.083l-0.016,7.045c0,0.221,0.087,0.433,0.243,0.589   l3.59,3.587c0.324,0.324,0.85,0.324,1.174,0l3.003-3l3.003,3.002c0.324,0.324,0.849,0.323,1.173,0.001l3.005-3.001l3.003,3   c0.324,0.324,0.849,0.323,1.173,0.001l3.005-3l3.002,2.999c0.324,0.324,0.849,0.324,1.173,0l3.003-2.999l3.004,3   c0.324,0.322,0.849,0.322,1.173,0l3.005-3l3.003,2.999c0.324,0.324,0.849,0.323,1.173,0.001l3.005-2.999l3.001,3.001   c0.162,0.162,0.375,0.243,0.587,0.243s0.425-0.081,0.586-0.243l3.006-3.001l3.002,3.001c0.324,0.324,0.85,0.324,1.173,0   l3.571-3.565c0.163-0.151,0.265-0.367,0.265-0.606c0-0.001,0-0.002,0-0.003v-6.865c0.026-0.113,0.033-0.232,0.007-0.353   c-0.027-0.132-2.757-13.43-2.757-34.191c0-20.749,2.729-34.063,2.757-34.195c0.025-0.121,0.019-0.24-0.007-0.353V8.77   C79.556,8.711,79.563,8.65,79.563,8.588z M24.854,6.179l3.003,3c0.324,0.324,0.85,0.324,1.174,0l3.003-3.002l3.005,3   c0.324,0.322,0.849,0.323,1.173-0.001l3.003-3l3.005,3c0.324,0.322,0.849,0.323,1.173-0.001l3.002-2.999L49.4,9.175   c0.324,0.324,0.849,0.323,1.173,0.001l3.004-3l3.005,3c0.324,0.322,0.849,0.323,1.173-0.001l3.003-2.999l3.005,3   c0.324,0.322,0.849,0.323,1.173-0.001l3.001-3.001l3.005,3.001c0.323,0.324,0.849,0.324,1.173,0l3.002-3.001l2.762,2.758v5.875   H22.108l-0.013-5.871L24.854,6.179z M77.883,91.068l-2.762,2.758l-3.002-3.001c-0.162-0.162-0.375-0.243-0.587-0.243   s-0.425,0.081-0.586,0.243l-3.005,3.001l-3.001-3.001c-0.324-0.324-0.849-0.323-1.173-0.001l-3.005,3l-3.003-2.999   c-0.324-0.324-0.849-0.323-1.173-0.001l-3.005,3l-3.004-3c-0.324-0.322-0.849-0.323-1.173,0.001l-3.003,2.999l-3.002-2.999   c-0.324-0.324-0.849-0.323-1.173-0.001l-3.005,3l-3.003-3c-0.324-0.324-0.849-0.323-1.173-0.001l-3.005,3l-3.003-3.002   c-0.324-0.324-0.85-0.324-1.174,0l-3.003,3l-2.759-2.757l0.013-5.871h55.774V91.068z M77.736,83.533H22.282   c0.628-3.482,2.602-15.839,2.602-33.531c0-17.696-1.974-30.053-2.602-33.535h55.454c-0.628,3.482-2.603,15.84-2.603,33.535   C75.133,67.694,77.108,80.051,77.736,83.533z"/></g><text x="0" y="115" fill="#000000" font-size="5px" font-weight="bold" font-family="'Helvetica Neue', Helvetica, Arial-Unicode, Arial, Sans-serif">Created by Juan Pablo Bravo</text><text x="0" y="120" fill="#000000" font-size="5px" font-weight="bold" font-family="'Helvetica Neue', Helvetica, Arial-Unicode, Arial, Sans-serif">from the Noun Project</text></svg>