<svg xmlns="http://www.w3.org/2000/svg" xmlns:xlink="http://www.w3.org/1999/xlink" version="1.1" x="0px" y="0px" viewBox="0 0 100 125" enable-background="new 0 0 100 100" xml:space="preserve"><g><path fill="#000000" d="M8.983,49.23c-0.194,0-0.388-0.074-0.535-0.223c-1.467-1.478-3.215-3.945-3.212-7.309   c0.002-3.631,1.745-5.816,3.377-7.58c1.633-1.764,12.743-9.275,14.953-10.762c0.149-0.1,3.665-2.404,9.776-2.941   c5.914-0.519,10.917,1.339,12.203,2.032c0.63,0.34,8.11,4.417,11.303,6.157c0.943,0.515,1.555,0.848,1.583,0.862   c0.365,0.198,0.501,0.656,0.304,1.022c-0.199,0.366-0.656,0.502-1.021,0.304c-0.025-0.014-0.64-0.348-1.587-0.864   c-3.192-1.74-10.669-5.816-11.296-6.153c-1.183-0.637-5.809-2.346-11.355-1.858c-5.732,0.504-8.936,2.603-9.069,2.692   c-4.86,3.271-13.426,9.172-14.686,10.534c-1.567,1.692-2.974,3.467-2.977,6.557c-0.002,2.851,1.508,4.97,2.775,6.247   c0.293,0.295,0.292,0.772-0.004,1.066C9.367,49.157,9.175,49.23,8.983,49.23z"/></g><g><path fill="#000000" d="M65.966,81.229c-1.373,0-2.797-0.122-4.234-0.36c-5.028-0.835-8.661-2.818-8.813-2.902l-0.082-0.049   l-42.597-27.77c-0.076-0.05-0.763-0.506-1.591-1.341c-0.184-0.185-0.182-0.482,0.002-0.666s0.482-0.183,0.666,0.002   c0.773,0.778,1.41,1.197,1.437,1.215l42.582,27.759l0.052,0.031c0.132,0.073,3.626,1.981,8.498,2.79   c1.386,0.23,2.759,0.347,4.08,0.347c4.88,0,9.132-1.524,12.643-4.533c1.327-1.139,11.464-11.695,11.895-12.144   c0.181-0.188,0.479-0.192,0.666-0.014c0.188,0.181,0.194,0.479,0.014,0.666C90.75,64.712,80.584,75.3,79.22,76.469   C75.587,79.583,71.004,81.229,65.966,81.229z"/></g><g><path fill="#000000" d="M90.843,64.689c-0.197,0-0.396-0.077-0.543-0.231c-0.288-0.301-0.279-0.777,0.021-1.066   c0.35-0.335,3.39-3.442,2.402-8.937c-1.017-5.651-9.048-9.841-9.389-10.016l-18.622-9.958c-0.367-0.196-0.506-0.653-0.31-1.02   c0.196-0.367,0.653-0.505,1.02-0.309l18.611,9.952c0.913,0.469,9.045,4.815,10.173,11.085c1.127,6.266-2.432,9.897-2.841,10.29   C91.219,64.619,91.03,64.689,90.843,64.689z"/></g><g><path fill="#000000" d="M65.961,80.16c-1.315,0-2.668-0.114-4.055-0.345c-4.844-0.805-8.326-2.703-8.473-2.785   c-0.01-0.004-0.019-0.011-0.029-0.018L10.822,49.253c-0.174-0.114-4.24-2.832-4.236-7.555c0.002-3.146,1.429-4.947,3.018-6.663   S23.785,24.836,24.32,24.477c0.137-0.091,3.372-2.209,9.141-2.716c6.548-0.576,11.397,1.851,11.444,1.875   c0.807,0.436,12.072,6.534,12.185,6.596c0.229,0.123,0.315,0.41,0.19,0.638c-0.124,0.229-0.409,0.314-0.639,0.19   c-0.113-0.062-11.376-6.16-12.183-6.594c-0.919-0.496-5.466-2.246-10.915-1.767c-5.511,0.484-8.667,2.54-8.699,2.561   c-4.5,3.029-13.336,9.106-14.548,10.416C8.782,37.31,7.53,38.89,7.528,41.7c-0.003,4.205,3.772,6.74,3.811,6.765l42.564,27.749   c0.247,0.132,3.646,1.928,8.188,2.678c6.239,1.029,11.564-0.299,15.821-3.95c1.291-1.104,11.733-11.98,11.838-12.089   c0.007-0.007,0.014-0.015,0.021-0.02c0.126-0.118,3.123-2.988,2.179-8.238c-0.95-5.293-8.902-9.42-8.983-9.461l-18.85-10.18   c-0.229-0.124-0.314-0.409-0.19-0.638c0.123-0.229,0.409-0.315,0.637-0.191l18.844,10.175c0.335,0.171,8.437,4.375,9.471,10.128   c1.021,5.67-2.198,8.843-2.455,9.086c-0.543,0.563-10.578,11.016-11.896,12.144C75.053,78.635,70.764,80.16,65.961,80.16z"/></g><g><path fill="#000000" d="M86.007,64.549c-0.145,0-0.287-0.066-0.379-0.191c-2.609-3.541-7.339-5.988-7.386-6.013L51.919,44.272   c-0.229-0.122-0.315-0.408-0.193-0.637c0.122-0.229,0.409-0.316,0.638-0.193l26.315,14.069c0.193,0.099,4.964,2.564,7.707,6.286   c0.154,0.211,0.11,0.505-0.1,0.66C86.202,64.519,86.104,64.549,86.007,64.549z"/></g><g><path fill="#000000" d="M7.118,43.205c-0.019,0-0.038-0.001-0.056-0.003c-0.259-0.03-0.443-0.265-0.412-0.523   c0.297-2.504,1.622-4.118,2.954-5.557c1.589-1.717,14.181-10.199,14.716-10.559c0.137-0.091,3.372-2.209,9.141-2.716   c6.547-0.576,11.397,1.851,11.444,1.875c0.807,0.435,10.426,5.643,10.522,5.695c0.229,0.124,0.314,0.41,0.19,0.639   c-0.125,0.229-0.41,0.313-0.64,0.19c-0.097-0.052-9.713-5.26-10.52-5.694c-0.919-0.495-5.467-2.246-10.915-1.767   c-5.532,0.486-8.667,2.541-8.699,2.561c-4.5,3.03-13.336,9.107-14.549,10.417c-1.277,1.38-2.446,2.803-2.709,5.028   C7.557,43.028,7.353,43.205,7.118,43.205z"/></g><g><path fill="#000000" d="M92.551,58.64c-0.24,0-0.446-0.184-0.468-0.427c-0.031-0.318-0.075-0.643-0.135-0.966   c-0.95-5.294-8.902-9.421-8.983-9.462l-20.84-11.288c-0.229-0.124-0.314-0.41-0.189-0.639c0.124-0.229,0.409-0.313,0.639-0.19   l20.831,11.282c0.335,0.171,8.437,4.375,9.471,10.129c0.063,0.349,0.111,0.7,0.145,1.044c0.023,0.259-0.167,0.488-0.425,0.513   C92.58,58.639,92.564,58.64,92.551,58.64z"/></g><g><path fill="#000000" d="M64.409,96.02c-2.28,0-4.534-0.406-6.239-1.047c-3.567-1.339-6.822-3.669-6.959-3.769   c-0.337-0.243-33.751-24.322-36.446-26.181c-2.919-2.014-3.857-4.302-4.349-6.071c-0.474-1.703-2.104-9.979-2.174-10.331   c-0.08-0.409,0.186-0.805,0.594-0.885c0.407-0.08,0.805,0.185,0.885,0.593c0.017,0.086,1.689,8.571,2.147,10.219   c0.45,1.619,1.247,3.506,3.752,5.233c2.708,1.867,36.135,25.957,36.472,26.2c0.031,0.021,3.232,2.313,6.606,3.579   c3.348,1.256,8.005,1.263,10.831,0.017c2.812-1.241,4.895-3.188,6.141-4.352c0.121-0.113,0.235-0.219,0.341-0.318   c1.19-1.098,8.739-9.204,8.814-9.286c0.041-0.041,2.969-3.1,3.578-6.497c0.902-5.019,1.689-9.283,1.697-9.327   c0.076-0.409,0.471-0.678,0.878-0.603c0.409,0.074,0.679,0.468,0.604,0.877c-0.008,0.043-0.795,4.304-1.694,9.319   c-0.693,3.857-3.836,7.132-3.971,7.27c-0.302,0.324-7.653,8.219-8.885,9.355c-0.104,0.096-0.216,0.2-0.335,0.312   c-1.315,1.229-3.515,3.285-6.561,4.629C68.442,95.705,66.416,96.02,64.409,96.02z"/></g><g><path fill="#000000" d="M30.737,74.813c-0.244,0-0.451-0.188-0.469-0.436l-0.754-9.846c-0.02-0.258,0.174-0.484,0.434-0.505   c0.257-0.019,0.485,0.175,0.505,0.435l0.754,9.845c0.02,0.258-0.175,0.485-0.434,0.505C30.762,74.812,30.75,74.813,30.737,74.813z"/></g><g><path fill="#000000" d="M34.72,77.489c-0.244,0-0.451-0.188-0.469-0.436l-0.754-9.846c-0.02-0.259,0.175-0.484,0.434-0.504   c0.257-0.02,0.485,0.174,0.505,0.433l0.754,9.845c0.02,0.26-0.175,0.487-0.434,0.506C34.744,77.488,34.731,77.489,34.72,77.489z"/></g><g><path fill="#000000" d="M38.535,80.163c-0.244,0-0.451-0.188-0.469-0.435l-0.753-9.845c-0.02-0.259,0.174-0.486,0.434-0.506   c0.258-0.02,0.485,0.174,0.505,0.434l0.754,9.846c0.02,0.259-0.175,0.485-0.434,0.505C38.56,80.163,38.547,80.163,38.535,80.163z"/></g><g><path fill="#000000" d="M42.582,83.225c-0.244,0-0.45-0.187-0.469-0.434l-0.754-9.845c-0.02-0.26,0.174-0.486,0.434-0.506   c0.258-0.021,0.485,0.173,0.505,0.433l0.754,9.846c0.02,0.26-0.175,0.486-0.434,0.506C42.606,83.225,42.594,83.225,42.582,83.225z"/></g><g><path fill="#000000" d="M46.966,86.151c-0.244,0-0.451-0.188-0.469-0.435l-0.753-9.846c-0.02-0.26,0.174-0.486,0.434-0.505   c0.258-0.021,0.485,0.173,0.506,0.434l0.754,9.845c0.019,0.259-0.175,0.486-0.435,0.506C46.99,86.151,46.978,86.151,46.966,86.151z   "/></g><g><path fill="#000000" d="M50.94,88.974c-0.244,0-0.45-0.188-0.469-0.437l-0.753-9.845c-0.02-0.26,0.174-0.485,0.434-0.505   c0.256-0.021,0.486,0.175,0.507,0.434l0.753,9.845c0.02,0.259-0.174,0.485-0.434,0.506C50.965,88.973,50.952,88.974,50.94,88.974z"/></g><g><path fill="#000000" d="M26.851,71.836c-0.244,0-0.45-0.187-0.469-0.435l-0.753-9.845c-0.021-0.259,0.174-0.485,0.434-0.506   c0.256-0.021,0.485,0.175,0.505,0.435l0.753,9.844c0.02,0.26-0.174,0.486-0.433,0.507C26.875,71.836,26.863,71.836,26.851,71.836z"/></g><g><path fill="#000000" d="M23.035,69.199c-0.244,0-0.451-0.188-0.469-0.437l-0.753-9.845c-0.021-0.258,0.174-0.484,0.434-0.505   c0.258-0.021,0.485,0.175,0.505,0.435l0.753,9.845c0.021,0.259-0.174,0.485-0.434,0.505C23.059,69.198,23.047,69.199,23.035,69.199   z"/></g><g><path fill="#000000" d="M19.644,66.914c-0.244,0-0.45-0.188-0.469-0.436l-0.754-9.844c-0.02-0.26,0.175-0.486,0.434-0.507   c0.258-0.019,0.486,0.175,0.506,0.435l0.754,9.845c0.02,0.26-0.174,0.486-0.434,0.505C19.667,66.914,19.656,66.914,19.644,66.914z"/></g><g><path fill="#000000" d="M62.75,78.33c-5.529,0-9.659-2.579-9.843-2.695L17.853,52.266c-0.017-0.012-0.032-0.023-0.047-0.036   c-0.417-0.361-0.947-0.741-1.561-1.182c-1.413-1.013-3.17-2.273-4.713-4.151c-2.345-2.855-0.921-6.724,1.53-9.292   c1.275-1.336,8.15-6.52,8.442-6.74c0.014-0.011,0.028-0.021,0.043-0.03l6.218-3.674c6.345-3.749,15.39-0.185,15.771-0.032   c0.015,0.006,0.03,0.013,0.044,0.021l10.559,5.586c0.23,0.122,0.317,0.407,0.196,0.638c-0.122,0.23-0.407,0.317-0.637,0.196   l-10.535-5.575c-0.492-0.19-9.119-3.45-14.919-0.023l-6.195,3.661c-0.428,0.323-7.118,5.376-8.306,6.622   c-2.165,2.268-3.462,5.634-1.484,8.043c1.464,1.783,3.166,3.003,4.534,3.984c0.622,0.446,1.161,0.833,1.605,1.215L53.42,74.846   c0.037,0.022,4.561,2.836,10.265,2.517c5.238-0.296,10.868-1.378,16.551-7.257c5.43-5.617,6.248-7.561,6.97-9.276   c0.637-1.512,2.191-6.773-4.527-11.006c-6.786-4.276-21.588-12.339-21.735-12.42c-0.229-0.125-0.313-0.411-0.188-0.639   c0.124-0.229,0.41-0.313,0.639-0.189c0.149,0.081,14.978,8.159,21.788,12.451c7.346,4.628,5.602,10.484,4.894,12.168   c-0.755,1.792-1.609,3.822-7.162,9.565c-5.908,6.112-11.746,7.237-17.174,7.543C63.404,78.321,63.074,78.33,62.75,78.33z"/></g><g><path fill="#000000" d="M52.406,34.728c-0.146,0-0.289-0.067-0.381-0.194c-0.153-0.21-0.107-0.505,0.104-0.658l5.665-4.128   c0.21-0.153,0.505-0.107,0.658,0.104s0.106,0.504-0.104,0.658l-5.664,4.128C52.6,34.698,52.502,34.728,52.406,34.728z"/></g><g><path fill="#000000" d="M58.072,30.883c-0.233,0-0.463-0.108-0.61-0.31c-0.245-0.336-0.171-0.808,0.165-1.053l2.534-1.846   c0.338-0.246,0.809-0.171,1.054,0.165c0.246,0.337,0.172,0.808-0.165,1.053l-2.534,1.847C58.38,30.835,58.227,30.883,58.072,30.883   z"/></g><g><path fill="#000000" d="M68.563,23.929c-0.285,0-0.558-0.162-0.685-0.438c-0.174-0.377-0.01-0.825,0.368-1   c3.24-1.497,7.747-3.417,7.792-3.436c0.383-0.163,0.826,0.015,0.989,0.398s-0.016,0.826-0.398,0.989   c-0.045,0.019-4.532,1.929-7.751,3.417C68.776,23.907,68.669,23.929,68.563,23.929z"/></g><g><path fill="#000000" d="M31.897,55.693c-6.932,0-14.522-3.913-14.915-4.118c-0.23-0.12-0.32-0.404-0.2-0.635   c0.121-0.231,0.405-0.321,0.636-0.2c0.115,0.06,11.558,5.957,18.811,3.329c5.527-2.005,6.008-4.762,6.517-7.682   c0.159-0.909,0.323-1.849,0.641-2.77c1.051-3.049,5.146-7.09,8.738-9.74c0.011-0.008,0.022-0.015,0.032-0.022   c0.23-0.143,5.709-3.498,10.635-4.598c3.676-0.822,6.506-2.562,8.647-5.316c1.521-1.955,4.466-4.448,4.59-4.552   c0.2-0.168,0.496-0.143,0.664,0.056c0.168,0.199,0.143,0.496-0.056,0.664c-0.029,0.025-2.994,2.535-4.454,4.411   c-2.282,2.935-5.287,4.785-9.187,5.657c-4.641,1.038-9.993,4.267-10.329,4.471c-4.167,3.08-7.539,6.807-8.391,9.278   c-0.293,0.85-0.443,1.712-0.603,2.625c-0.533,3.055-1.084,6.215-7.124,8.404C35.103,55.479,33.518,55.693,31.897,55.693z"/></g><g><path fill="#000000" d="M65.067,34.57c-0.206,0-0.413-0.084-0.561-0.25c-0.279-0.31-0.253-0.786,0.056-1.064   c0.99-0.888,3.453-3.156,4.968-5.031c1.932-2.391,6.131-8.823,6.173-8.887c0.228-0.349,0.694-0.447,1.044-0.22   c0.348,0.228,0.446,0.694,0.22,1.043c-0.175,0.266-4.284,6.56-6.263,9.011c-1.584,1.96-4.118,4.293-5.134,5.205   C65.427,34.506,65.246,34.57,65.067,34.57z"/></g><g><path fill="#000000" d="M39.202,53.525l-0.335-0.455c0.225-0.165,22.429-16.508,23.853-17.624c0.535-0.418,1.322-1.089,2.159-1.84   l0.377,0.42c-0.847,0.76-1.643,1.44-2.188,1.866C61.637,37.013,39.427,53.36,39.202,53.525z"/></g><g><path fill="#000000" d="M64.379,28.512c-0.847,0-1.766-0.184-2.718-0.556c-1.913-0.747-7.417-5.972-7.743-6.283   c-0.253-0.209-5.955-4.931-9.724-9.436c-1.589-1.898-2.045-3.306-1.525-4.707l0.53,0.196c-0.445,1.201-0.032,2.402,1.429,4.148   c3.801,4.542,9.599,9.32,9.656,9.368l0.016,0.014c0.058,0.054,5.738,5.459,7.566,6.173c2.062,0.804,3.928,0.665,5.122-0.383   c0.704-0.62,1.772-2.116,1.303-3.796l0.545-0.152c0.545,1.95-0.67,3.667-1.475,4.373C66.574,28.163,65.547,28.512,64.379,28.512z"/></g><g><path fill="#000000" d="M68.563,23.929c-0.331,0-0.633-0.218-0.727-0.551c-0.087-0.312-0.235-0.626-0.441-0.934   c-0.958-1.434-2.454-3.802-4.038-6.309c-2.271-3.593-4.843-7.666-5.517-8.452c-2.101-2.45-4.476-3.693-7.06-3.693   c-3.025,0-4.818,1.26-4.836,1.272c-0.018,0.013-0.037,0.025-0.057,0.037c-0.015,0.009-1.659,1.003-2.249,2.592   c-0.145,0.39-0.578,0.589-0.969,0.445c-0.39-0.145-0.589-0.578-0.444-0.969c0.74-1.994,2.608-3.191,2.869-3.351   c0.277-0.189,2.358-1.534,5.685-1.534c3.001,0,5.837,1.459,8.204,4.22c0.745,0.868,3.126,4.637,5.646,8.627   c1.579,2.499,3.07,4.859,4.018,6.277c0.294,0.44,0.509,0.899,0.64,1.365c0.112,0.401-0.122,0.817-0.523,0.929   C68.699,23.92,68.63,23.929,68.563,23.929z"/></g><g><path fill="#000000" d="M60.608,29.027c-0.128,0-0.257-0.033-0.376-0.102c-2.059-1.189-5.164-4.122-5.491-4.433   c-0.56-0.451-7.667-6.209-11.533-10.803c-2.197-2.611-1.352-5.81-0.506-7.289c0.206-0.361,0.667-0.486,1.028-0.28   c0.362,0.207,0.487,0.667,0.28,1.028c-0.651,1.139-1.31,3.594,0.352,5.569c3.845,4.569,11.275,10.559,11.349,10.619   c0.018,0.014,0.034,0.028,0.05,0.042c0.031,0.031,3.254,3.101,5.227,4.241c0.36,0.208,0.483,0.669,0.275,1.029   C61.122,28.892,60.869,29.027,60.608,29.027z"/></g><g><path fill="#000000" d="M53.688,17.451C53.688,17.451,53.688,17.451,53.688,17.451c-0.989,0-2.127-0.321-3.479-0.981   c-1.12-0.547-3.433-2.545-5.09-4.648c-2.059-2.61,0.107-4.974,0.129-4.997L45.273,6.8c0.068-0.058,1.7-1.406,3.522-2.037   c0.633-0.22,1.302-0.331,1.985-0.331c1.786,0,3.338,0.759,4.126,1.41c0.113,0.093,0.229,0.188,0.351,0.286   c1.057,0.858,2.373,1.926,3.699,4.049c1.744,2.791,0.266,4.42,0.202,4.488l-0.045,0.04c-0.02,0.013-1.878,1.292-3.419,2.209   C55.097,17.271,54.422,17.451,53.688,17.451z M45.649,7.223c-0.168,0.187-1.789,2.092-0.087,4.249   c1.585,2.012,3.853,3.981,4.895,4.49c2.18,1.064,3.707,1.208,4.949,0.468c1.42-0.846,3.117-2.004,3.357-2.169   c0.151-0.181,1.138-1.505-0.285-3.782c-1.277-2.043-2.552-3.078-3.577-3.91c-0.121-0.099-0.239-0.195-0.354-0.29   c-0.715-0.59-2.13-1.28-3.766-1.28c-0.621,0-1.227,0.1-1.801,0.299C47.341,5.866,45.812,7.091,45.649,7.223z"/></g><g><path fill="#000000" d="M63.615,27.287c-0.821,0-1.719-0.257-2.745-0.787c-2.137-1.101-6.016-5.483-6.18-5.67l-0.014-0.017   c-0.348-0.464-0.729-1.625,0.322-2.707l0.058-0.045l4.314-2.61c0.025-0.016,0.688-0.418,1.557-0.418   c0.838,0,1.593,0.379,2.186,1.097c1.492,1.811,4.006,5.797,4.347,6.672c0.324,0.833,0.602,2.404-1.174,3.57   C65.322,27.005,64.499,27.287,63.615,27.287z M55.123,20.467c0.216,0.243,4.012,4.503,6.006,5.531   c0.945,0.487,1.757,0.724,2.486,0.724c0.767,0,1.494-0.253,2.36-0.821c1.371-0.9,1.278-2.07,0.958-2.893   c-0.321-0.826-2.823-4.779-4.257-6.518c-0.488-0.591-1.077-0.891-1.749-0.891c-0.711,0-1.257,0.332-1.263,0.335l-4.285,2.593   C54.48,19.477,55.054,20.366,55.123,20.467z"/></g><text x="0" y="115" fill="#000000" font-size="5px" font-weight="bold" font-family="'Helvetica Neue', Helvetica, Arial-Unicode, Arial, Sans-serif">Created by Enrico Magistro</text><text x="0" y="120" fill="#000000" font-size="5px" font-weight="bold" font-family="'Helvetica Neue', Helvetica, Arial-Unicode, Arial, Sans-serif">from the Noun Project</text></svg>