<?xml version="1.0" encoding="UTF-8"?>
<svg width="100px" height="100px" viewBox="0 0 100 100" version="1.1" xmlns="http://www.w3.org/2000/svg" xmlns:xlink="http://www.w3.org/1999/xlink">
    <!-- Generator: Sketch 52.6 (67491) - http://www.bohemiancoding.com/sketch -->
    <title>Custom Preset</title>
    <desc>Created with Sketch.</desc>
    <g id="Custom-Preset" stroke="none" stroke-width="1" fill="none" fill-rule="evenodd">
        <g id="can" transform="translate(23.000000, 2.000000)" fill="#000000">
            <g id="Group">
                <path d="M51.0833333,27.7118966 C48.5333333,23.6144828 44.5666667,18.797931 39.9166667,14.1318966 C32.9166667,7.09103448 23.7333333,0 19.0333333,0 C17.7333333,0 16.95,0.518448276 16.5166667,0.953275862 C14.7,2.7762069 15.5166667,6.27155172 19,11.64 L19.4166667,12.2755172 L24.3,12.977931 L22.0833333,15.9548276 L22.9,16.975 C24.7,19.1993103 26.7,21.4068966 28.8333333,23.5977586 C28.05,23.5643103 27.2666667,23.5308621 26.4833333,23.5308621 C11.75,23.5308621 0.65,28.5648276 0.65,35.2377586 L0.65,43.4827586 L0.65,54.0022414 L0.65,73.0677586 L0.65,75.3422414 L0.65,83.7043103 C0.65,90.3772414 11.75,95.4112069 26.4833333,95.4112069 C41.2166667,95.4112069 52.3166667,90.3772414 52.3166667,83.7043103 L52.3166667,75.3422414 L52.3166667,43.4827586 L52.3166667,38.1310345 C52.6166667,37.9637931 52.8666667,37.7798276 53.0333333,37.6125862 C54.7833333,35.8732759 54.15,32.6287931 51.0833333,27.7118966 Z M26.5,26.8422414 C28.5,26.8422414 30.5166667,26.9593103 32.5166667,27.1767241 C33.0666667,27.6784483 33.6166667,28.1801724 34.1666667,28.6651724 C34.3166667,28.7989655 34.4666667,28.9327586 34.6166667,29.0498276 C35.0833333,29.467931 35.55,29.8693103 36.0166667,30.2539655 C36.1333333,30.3543103 36.2666667,30.4546552 36.3833333,30.555 C37.6,31.5751724 38.8333333,32.5451724 40.0333333,33.4315517 C40.15,33.5151724 40.25,33.5987931 40.3666667,33.6824138 C40.9333333,34.1005172 41.5,34.5018966 42.0666667,34.8698276 C42.1,34.9032759 42.15,34.92 42.1833333,34.9534483 C42.8,35.3548276 43.4,35.7394828 43.9833333,36.0906897 C44.0666667,36.1408621 44.1333333,36.1743103 44.2,36.2244828 C44.7333333,36.5255172 45.25,36.8098276 45.75,37.0606897 C45.8166667,37.0941379 45.8833333,37.1275862 45.9666667,37.1610345 C46.5333333,37.4453448 47.0833333,37.6962069 47.6,37.8801724 C45.2,40.255 39.8166667,42.4124138 32.6333333,43.2151724 C32.3333333,43.2486207 32.0166667,43.282069 31.7,43.3155172 C31.3833333,43.3489655 31.0666667,43.3656897 30.75,43.3991379 C30.3166667,43.4325862 29.8833333,43.4660345 29.45,43.4827586 C29.2,43.4994828 28.9333333,43.5162069 28.6833333,43.5162069 C27.9666667,43.5496552 27.2333333,43.5663793 26.5,43.5663793 C13.2333333,43.5663793 4,39.167931 4,35.2043103 C4,31.2406897 13.2333333,26.8422414 26.5,26.8422414 Z M4,58.8355172 C5.3,59.287069 6.86666667,59.7553448 8.71666667,60.1901724 C19.8166667,62.7991379 21.2333333,63.1336207 22.35,72.1144828 C22.45,72.9841379 22.4333333,74.1882759 21.6833333,75.0244828 C20.85,75.9777586 19.3166667,76.1784483 18.2,76.1784483 C16.0666667,76.1784483 12.15,75.4760345 5.65,72.0977586 C5.06666667,71.7967241 4.53333333,71.4956897 4,71.1946552 L4,58.8355172 Z M49,83.7043103 C49,87.667931 39.7666667,92.0663793 26.5,92.0663793 C13.2333333,92.0663793 4,87.667931 4,83.7043103 L4,81.6639655 C8.51666667,85.7446552 17.1166667,88.637931 26.5,88.637931 C35.8833333,88.637931 44.4833333,85.7446552 49,81.6639655 L49,83.7043103 Z M49,75.3422414 C49,79.3560345 39.55,85.2931034 26.5,85.2931034 C13.45,85.2931034 4,79.3560345 4,75.3422414 L4,75.0077586 C4.03333333,75.0244828 4.08333333,75.057931 4.11666667,75.0746552 C9.81666667,78.0348276 14.55,79.5232759 18.2,79.5232759 C18.2,79.5232759 18.2,79.5232759 18.2,79.5232759 C21.4833333,79.5232759 23.2666667,78.2856897 24.1833333,77.232069 C25.4166667,75.8272414 25.9333333,73.9206897 25.65,71.6963793 C24.2666667,60.3908621 20.8333333,59.5881034 9.38333333,56.8955172 C7.18333333,56.3937931 5.41666667,55.8084483 4,55.29 L4,49.4198276 C8.36666667,52.9151724 16.6166667,55.1896552 26.5,55.1896552 C36.3833333,55.1896552 44.6333333,52.9151724 49,49.4031034 L49,75.3422414 Z M49,43.4827586 C49,47.4463793 39.7666667,51.8448276 26.5,51.8448276 C13.2333333,51.8448276 4,47.4463793 4,43.4827586 L4,41.1413793 C4.1,41.2082759 4.21666667,41.2751724 4.3,41.3587931 C4.68333333,41.6431034 5.08333333,41.9274138 5.51666667,42.2117241 C5.7,42.3287931 5.86666667,42.4291379 6.05,42.5462069 C6.58333333,42.8639655 7.15,43.165 7.76666667,43.4493103 C7.85,43.4827586 7.91666667,43.532931 8,43.5663793 C8.7,43.8841379 9.43333333,44.1684483 10.2,44.4527586 C10.4166667,44.5363793 10.65,44.6032759 10.8666667,44.6701724 C11.4666667,44.8708621 12.0833333,45.0548276 12.7166667,45.2387931 C12.9666667,45.3056897 13.2166667,45.3725862 13.4833333,45.4394828 C14.3,45.6401724 15.1333333,45.8408621 16.0166667,46.0081034 C16.0833333,46.0248276 16.1333333,46.0415517 16.2,46.0415517 C17.1333333,46.2087931 18.1166667,46.3593103 19.1,46.4763793 C19.3833333,46.5098276 19.6833333,46.5432759 19.9666667,46.5767241 C20.7166667,46.6603448 21.5,46.7272414 22.2833333,46.7774138 C22.6,46.7941379 22.9,46.8275862 23.2166667,46.8443103 C24.2833333,46.8944828 25.3666667,46.9446552 26.4833333,46.9446552 C27.55,46.9446552 28.6,46.9112069 29.6333333,46.8610345 C29.95,46.8443103 30.2666667,46.8275862 30.5833333,46.8108621 C31.4,46.7606897 32.2166667,46.677069 33.0166667,46.5934483 C33.55,46.5265517 34.0833333,46.4596552 34.6,46.3927586 C35.0333333,46.3258621 35.4666667,46.2756897 35.8833333,46.192069 C36.4333333,46.0917241 36.9833333,46.0081034 37.5166667,45.8910345 C37.6,45.8743103 37.6833333,45.8575862 37.7666667,45.8408621 C39,45.59 40.1666667,45.2889655 41.2666667,44.9377586 C41.3166667,44.9210345 41.3666667,44.9043103 41.4166667,44.8875862 C43.1666667,44.3524138 44.7333333,43.7001724 46.1,42.9810345 C46.15,42.9475862 46.2166667,42.9308621 46.2666667,42.8974138 C47.2666667,42.3622414 48.2,41.7936207 48.9833333,41.1748276 L48.9833333,43.4827586 L49,43.4827586 Z M50.6666667,35.2043103 L50.4,35.1875862 C49.5333333,35.1374138 48.15,34.6189655 46.3666667,33.6322414 C46.35,33.6155172 46.3166667,33.5987931 46.3,33.582069 C45.75,33.2643103 45.15,32.9131034 44.5166667,32.495 C44.3833333,32.4113793 44.2333333,32.2943103 44.0833333,32.2106897 C43.6333333,31.9263793 43.1833333,31.5918966 42.7,31.2574138 C42.4,31.0567241 42.1166667,30.8393103 41.8166667,30.6218966 C41.3166667,30.2539655 40.8,29.8525862 40.25,29.4344828 C40.0166667,29.2505172 39.7833333,29.0665517 39.55,28.8825862 C38.85,28.3139655 38.1333333,27.7118966 37.3833333,27.0763793 C37.2666667,26.9760345 37.15,26.8756897 37.0333333,26.7753448 C36.1833333,26.0227586 35.3,25.2367241 34.3833333,24.3837931 C33.6,23.647931 32.8,22.8786207 32,22.0758621 C29.9666667,20.0355172 28.05,17.945 26.3166667,15.8544828 L30.35,10.4693103 L21.3833333,9.18155172 C19,5.35172414 18.9,3.76293103 18.9166667,3.34482759 C18.95,3.34482759 18.9833333,3.34482759 19.0333333,3.34482759 C21.7,3.34482759 29.3666667,8.26172414 37.5666667,16.49 C47.0833333,26.0394828 51.0166667,33.465 50.6666667,35.2043103 Z" id="Shape" fill-rule="nonzero"></path>
                <polygon id="Rectangle" transform="translate(13.167583, 33.446436) rotate(60.255829) translate(-13.167583, -33.446436) " points="11.4867027 26.7219748 14.8285113 26.7269258 14.8484639 40.1708976 11.5066553 40.1659466"></polygon>
                <polygon id="Rectangle" transform="translate(21.498917, 35.118934) rotate(146.311522) translate(-21.498917, -35.118934) " points="12.4749643 33.4625695 30.5281742 33.4338687 30.522869 36.7752977 12.4696591 36.8039985"></polygon>
                <polygon id="Rectangle" transform="translate(29.000000, 36.793103) rotate(143.130102) translate(-29.000000, -36.793103) " points="20.6590805 35.1365517 37.3464368 35.1089655 37.3409195 38.4496552 20.6535632 38.4772414"></polygon>
                <polygon id="Rectangle" transform="translate(36.498750, 38.464430) rotate(141.341087) translate(-36.498750, -38.464430) " points="31.160897 36.8031845 41.8422101 36.7852419 41.836603 40.1256758 31.1552899 40.1436184"></polygon>
            </g>
        </g>
    </g>
</svg>