<?xml version="1.0" encoding="UTF-8"?>
<svg width="100px" height="100px" viewBox="0 0 100 100" version="1.1" xmlns="http://www.w3.org/2000/svg" xmlns:xlink="http://www.w3.org/1999/xlink">
    <!-- Generator: Sketch 52.6 (67491) - http://www.bohemiancoding.com/sketch -->
    <title>Custom Preset</title>
    <desc>Created with Sketch.</desc>
    <g id="Custom-Preset" stroke="none" stroke-width="1" fill="none" fill-rule="evenodd">
        <g id="carton" transform="translate(23.000000, 3.000000)" fill="#000000">
            <g id="Group">
                <g>
                    <g>
                        <path d="M0,25.4583333 L0,92.0416667 C0,93.1232244 0.87752189,94 1.96,94 L41.16,94 C42.2424782,94 43.12,93.1232244 43.12,92.0416667 L43.12,25.4583333 C43.12,24.3767757 42.2424782,23.5 41.16,23.5 L1.96,23.5 C0.87752189,23.5 0,24.3767757 0,25.4583333 Z M3.92,27.4166667 L39.2,27.4166667 L39.2,90.0833333 L3.92,90.0833333 L3.92,27.4166667 Z" id="Shape" fill-rule="nonzero"></path>
                        <path d="M54.3059293,15.0930841 C55.0713568,14.3283074 55.0713568,13.0883593 54.3059293,12.3235826 C53.5405015,11.5588058 52.2994985,11.5588058 51.5340707,12.3235826 L39.7740707,24.0735826 C39.0086431,24.8383593 39.0086431,26.0783074 39.7740707,26.8430841 C40.5394985,27.6078609 41.7805015,27.6078609 42.5459293,26.8430841 L54.3059293,15.0930841 Z" id="Path"></path>
                        <path d="M52.0434613,15.4599199 C53.0116594,15.9436072 54.1889785,15.5515012 54.6730773,14.5841266 C55.1571761,13.6167521 54.7647363,12.440434 53.7965387,11.9567467 L45.9565387,8.04008007 C44.9883406,7.5563928 43.8110215,7.9484988 43.3269227,8.91587337 C42.8428239,9.88324793 43.2352637,11.059566 44.2034613,11.5432533 L52.0434613,15.4599199 Z" id="Path"></path>
                        <path d="M7.7814793,10.2666323 C8.04401879,9.21736724 7.40552786,8.15412051 6.35536982,7.89180427 C5.30521181,7.62948803 4.24106019,8.26743603 3.9785207,9.31670108 L0.0585206996,24.9833677 C-0.204018805,26.0326328 0.434472153,27.0958795 1.48463017,27.3581957 C2.53478819,27.620512 3.5989398,26.982564 3.8614793,25.9332989 L7.7814793,10.2666323 Z" id="Path"></path>
                        <path d="M3.92,9.79166667 C3.92,10.8732243 4.79752191,11.75 5.88,11.75 C6.96247809,11.75 7.84,10.8732243 7.84,9.79166667 L7.84,1.95833333 C7.84,0.876775698 6.96247809,0 5.88,0 C4.79752191,0 3.92,0.876775698 3.92,1.95833333 L3.92,9.79166667 Z" id="Path"></path>
                        <path d="M46.9814795,10.2666323 C47.2440188,9.21736724 46.605528,8.15412051 45.5553698,7.89180427 C44.505212,7.62948803 43.4410602,8.26743603 43.1785205,9.31670108 L39.2585205,24.9833677 C38.9959812,26.0326328 39.634472,27.0958795 40.6846302,27.3581957 C41.734788,27.620512 42.7989398,26.982564 43.0614795,25.9332989 L46.9814795,10.2666323 Z" id="Path"></path>
                        <path d="M43.12,9.79166667 C43.12,10.8732243 43.9975218,11.75 45.08,11.75 C46.1624782,11.75 47.04,10.8732243 47.04,9.79166667 L47.04,1.95833333 C47.04,0.876775698 46.1624782,0 45.08,0 C43.9975218,0 43.12,0.876775698 43.12,1.95833333 L43.12,9.79166667 Z" id="Path"></path>
                        <path d="M44.6444445,3.91666667 C45.7269227,3.91666667 46.6044445,3.03989097 46.6044445,1.95833333 C46.6044445,0.876775698 45.7269227,0 44.6444445,0 L6.31555555,0 C5.23307746,0 4.35555555,0.876775698 4.35555555,1.95833333 C4.35555555,3.03989097 5.23307746,3.91666667 6.31555555,3.91666667 L44.6444445,3.91666667 Z" id="Path"></path>
                        <path d="M54.88,13.7083333 C54.88,12.6267757 54.0024782,11.75 52.92,11.75 C51.8375218,11.75 50.96,12.6267757 50.96,13.7083333 L50.96,80.2916667 C50.96,81.3732244 51.8375218,82.25 52.92,82.25 C54.0024782,82.25 54.88,81.3732244 54.88,80.2916667 L54.88,13.7083333 Z" id="Path"></path>
                        <path d="M54.3059293,81.6764175 C55.0713568,80.9116405 55.0713568,79.6716928 54.3059293,78.9069159 C53.5405015,78.1421393 52.2994985,78.1421393 51.5340707,78.9069159 L39.7740707,90.6569158 C39.0086431,91.4216928 39.0086431,92.6616405 39.7740707,93.4264175 C40.5394985,94.191194 41.7805015,94.191194 42.5459293,93.4264175 L54.3059293,81.6764175 Z" id="Path"></path>
                    </g>
                </g>
            </g>
        </g>
    </g>
</svg>