<?xml version="1.0" encoding="UTF-8"?>
<svg width="100px" height="100px" viewBox="0 0 100 100" version="1.1" xmlns="http://www.w3.org/2000/svg" xmlns:xlink="http://www.w3.org/1999/xlink">
    <!-- Generator: Sketch 52.6 (67491) - http://www.bohemiancoding.com/sketch -->
    <title>Custom Preset</title>
    <desc>Created with Sketch.</desc>
    <g id="Custom-Preset" stroke="none" stroke-width="1" fill="none" fill-rule="evenodd">
        <g id="chipBag" transform="translate(19.000000, 2.000000)" fill="#000000">
            <g id="Group">
                <path d="M3.7086,8.79017391 L59.3124,8.79017391 C59.7933,8.79017391 60.1839,8.39391304 60.1839,7.90604348 C60.1839,7.41817391 59.7933,7.02191304 59.3124,7.02191304 L3.7086,7.02191304 C3.2277,7.02191304 2.8371,7.41817391 2.8371,7.90604348 C2.8371,8.39391304 3.22665,8.79017391 3.7086,8.79017391 Z" id="Path"></path>
                <path d="M3.7086,90.9802174 L59.3124,90.9802174 C59.7933,90.9802174 60.1839,90.5839565 60.1839,90.096087 C60.1839,89.6082174 59.7933,89.2119565 59.3124,89.2119565 L3.7086,89.2119565 C3.2277,89.2119565 2.8371,89.6082174 2.8371,90.096087 C2.8371,90.5839565 3.22665,90.9802174 3.7086,90.9802174 Z" id="Path"></path>
                <path d="M62.54115,4.88721739 C62.54115,4.58363043 62.391,4.31626087 62.16105,4.15647826 L58.49235,0.439934783 C58.1532,0.0948043478 57.6009,0.0948043478 57.2607,0.439934783 L54.1086,3.63665217 L50.9523,0.439934783 C50.61315,0.0948043478 50.06085,0.0948043478 49.72065,0.439934783 L46.5675,3.63665217 L43.41225,0.442065217 C43.07205,0.0990652174 42.5208,0.098 42.1806,0.443130435 L39.02745,3.63771739 L35.8722,0.442065217 C35.532,0.0990652174 34.98075,0.0990652174 34.64055,0.442065217 L31.48635,3.63771739 L28.3332,0.443130435 C27.993,0.098 27.44175,0.098 27.10155,0.443130435 L23.94945,3.63771739 L20.7942,0.442065217 C20.454,0.0990652174 19.90275,0.098 19.56255,0.443130435 L16.4094,3.63878261 L13.251,0.442065217 C12.9108,0.0990652174 12.35955,0.098 12.01935,0.443130435 L8.8662,3.64091304 L5.71305,0.44526087 C5.37285,0.100130435 4.82055,0.100130435 4.48035,0.44526087 L0.71085,4.26619565 C0.54705,4.43236957 0.45465,4.65819565 0.4557,4.8936087 L0.4725,12.3980652 C0.4725,12.4300217 0.4872,12.4566522 0.49035,12.4864783 C0.4935,12.5173696 0.4851,12.5461304 0.4914,12.5770217 C0.51975,12.7176304 3.3852,26.8999348 3.3852,49.0021304 C3.3852,71.1000652 0.51975,85.2834348 0.4914,85.4229783 C0.4851,85.4538696 0.4935,85.4826304 0.49035,85.5135217 C0.4872,85.544413 0.4725,85.5710435 0.4725,85.6019348 L0.4557,93.1063913 C0.4557,93.3418043 0.54705,93.5676304 0.71085,93.7338043 L4.48035,97.5547391 C4.82055,97.8998696 5.37285,97.8998696 5.71305,97.5547391 L8.8662,94.359087 L12.01935,97.5568696 C12.35955,97.902 12.9108,97.9009348 13.251,97.5579348 L16.40625,94.3612174 L19.5594,97.5568696 C19.8996,97.902 20.45085,97.9009348 20.79105,97.5579348 L23.9463,94.3622826 L27.0984,97.5568696 C27.4386,97.902 27.98985,97.902 28.33005,97.5568696 L31.4832,94.3622826 L34.6374,97.5579348 C34.9776,97.9009348 35.52885,97.9009348 35.86905,97.5579348 L39.0243,94.3622826 L42.17745,97.5568696 C42.51765,97.902 43.0689,97.9009348 43.4091,97.5579348 L46.56435,94.3633478 L49.7154,97.5600652 C49.8855,97.7326304 50.10915,97.818913 50.33175,97.818913 C50.55435,97.818913 50.778,97.7326304 50.94705,97.5600652 L54.10335,94.3633478 L57.25545,97.5600652 C57.59565,97.9051957 58.14795,97.9051957 58.4871,97.5600652 L62.23665,93.7625652 C62.4078,93.6017174 62.5149,93.3716304 62.5149,93.1170435 C62.5149,93.1159783 62.5149,93.114913 62.5149,93.1138478 L62.5149,85.8011304 C62.5422,85.6807609 62.54955,85.554 62.52225,85.4251087 C62.4939,85.2845 59.6274,71.1192391 59.6274,49.0042609 C59.6274,26.9020652 62.49285,12.7197609 62.52225,12.5791522 C62.5485,12.4502609 62.5422,12.3235 62.5149,12.2031304 L62.5149,5.08108696 C62.5338,5.01823913 62.54115,4.95326087 62.54115,4.88721739 Z M5.0967,2.3211087 L8.24985,5.51676087 C8.59005,5.8618913 9.14235,5.8618913 9.48255,5.51676087 L12.6357,2.31897826 L15.79095,5.51463043 C16.13115,5.85763043 16.6824,5.85869565 17.0226,5.51356522 L20.17575,2.31791304 L23.331,5.51356522 C23.6712,5.85656522 24.22245,5.85763043 24.56265,5.5125 L27.71475,2.31791304 L30.87,5.5125 C31.2102,5.85763043 31.76145,5.85656522 32.10165,5.51356522 L35.25585,2.31791304 L38.4111,5.51356522 C38.7513,5.85656522 39.30255,5.85763043 39.64275,5.5125 L42.7959,2.31791304 L45.95115,5.51356522 C46.29135,5.85656522 46.8426,5.85763043 47.1828,5.5125 L50.33385,2.31578261 L53.4891,5.5125 C53.82825,5.85763043 54.38055,5.85763043 54.72075,5.5125 L57.87285,2.31578261 L60.77295,5.25365217 L60.77295,11.5118043 L2.2134,11.5118043 L2.19975,5.25791304 L5.0967,2.3211087 Z M60.77715,92.7463478 L57.87705,95.6842174 L54.72495,92.4875 C54.55485,92.3149348 54.3312,92.2286522 54.1086,92.2286522 C53.886,92.2286522 53.66235,92.3149348 53.4933,92.4875 L50.33805,95.6842174 L47.187,92.4875 C46.8468,92.1423696 46.29555,92.1434348 45.95535,92.4864348 L42.8001,95.682087 L39.64695,92.4875 C39.30675,92.1423696 38.7555,92.1434348 38.4153,92.4864348 L35.26005,95.682087 L32.10585,92.4864348 C31.76565,92.1434348 31.2144,92.1423696 30.8742,92.4875 L27.72105,95.682087 L24.56895,92.4875 C24.22875,92.1423696 23.6775,92.1434348 23.3373,92.4864348 L20.18205,95.682087 L17.0289,92.4864348 C16.6887,92.1413043 16.13745,92.1423696 15.79725,92.4853696 L12.642,95.6810217 L9.48885,92.4832391 C9.14865,92.1381087 8.59635,92.1381087 8.25615,92.4832391 L5.103,95.6788913 L2.20605,92.742087 L2.2197,86.4881957 L60.7824,86.4881957 L60.7824,92.7463478 L60.77715,92.7463478 Z M60.6228,84.7199348 L2.3961,84.7199348 C3.0555,81.0108478 5.1282,67.8479565 5.1282,49.0021304 C5.1282,30.1520435 3.0555,16.9891522 2.3961,13.2800652 L60.6228,13.2800652 C59.9634,16.9891522 57.88965,30.1531087 57.88965,49.0021304 C57.88965,67.8479565 59.9634,81.0108478 60.6228,84.7199348 Z" id="Shape" fill-rule="nonzero"></path>
            </g>
        </g>
    </g>
</svg>