<?xml version="1.0" encoding="UTF-8"?>
<svg width="100px" height="100px" viewBox="0 0 100 100" version="1.1" xmlns="http://www.w3.org/2000/svg" xmlns:xlink="http://www.w3.org/1999/xlink">
    <!-- Generator: Sketch 52.6 (67491) - http://www.bohemiancoding.com/sketch -->
    <title>Custom Preset</title>
    <desc>Created with Sketch.</desc>
    <g id="Custom-Preset" stroke="none" stroke-width="1" fill="none" fill-rule="evenodd">
        <g id="envelop" transform="translate(4.000000, 29.000000)" fill="#000000" fill-rule="nonzero">
            <path d="M81.3874,0 L11.6126,0 C5.21006667,0 0,5.20290207 0,11.5978993 L0,56.4000364 C0,62.7960658 5.21006667,68 11.6126,68 L81.3863667,68 C87.7899333,68 93,62.7960658 93,56.4000364 L93,11.5978993 C93,5.20290207 87.7899333,0 81.3874,0 Z M11.6126,3.28522858 L81.3863667,3.28522858 C84.3355,3.28522858 86.924,4.8292757 88.4027,7.14534637 L52.6183667,40.9027989 C49.2435,44.0837836 43.7565,44.0837836 40.3826667,40.9027989 L4.59626667,7.14534637 C6.076,4.8292757 8.6645,3.28522858 11.6126,3.28522858 Z M3.3697,57.4920163 C3.3232,57.1338717 3.29013333,56.7715986 3.29013333,56.4000364 L3.29013333,11.5978993 C3.29013333,11.2284014 3.32216667,10.8650962 3.3697,10.5069516 L28.2730333,34 L3.3697,57.4920163 Z M81.3874,64.7137393 L11.6126,64.7137393 C8.66346667,64.7137393 6.07496667,63.1707243 4.59626667,60.8546536 L30.6693333,36.2593042 L38.1258667,43.2911177 C40.4333,45.4699168 43.4671667,46.5598324 46.5,46.5598324 C49.5328333,46.5598324 52.5677333,45.4699168 54.8751667,43.2911177 L62.3306667,36.2593042 L88.4027,60.8536215 C86.9250333,63.1707243 84.3355,64.7137393 81.3874,64.7137393 Z M89.7098667,11.5978993 L89.7098667,56.4000364 C89.7098667,56.7726307 89.6768,57.1338717 89.6303,57.4920163 L64.7269667,34 L89.6313333,10.5090158 C89.6768,10.8661283 89.7098667,11.2294335 89.7098667,11.5978993 Z" id="Shape"></path>
        </g>
    </g>
</svg>