<?xml version="1.0" encoding="UTF-8"?>
<svg width="100px" height="100px" viewBox="0 0 100 100" version="1.1" xmlns="http://www.w3.org/2000/svg" xmlns:xlink="http://www.w3.org/1999/xlink">
    <!-- Generator: Sketch 52.6 (67491) - http://www.bohemiancoding.com/sketch -->
    <title>Custom Preset</title>
    <desc>Created with Sketch.</desc>
    <g id="Custom-Preset" stroke="none" stroke-width="1" fill="none" fill-rule="evenodd">
        <g id="newspaper" transform="translate(5.000000, 29.000000)" fill="#000000" fill-rule="nonzero">
            <path d="M75.4954128,14.7798165 C75.4954128,15.793183 74.673917,16.6146789 73.6605505,16.6146789 L33.4770642,16.6146789 C32.4636977,16.6146789 31.6422018,15.793183 31.6422018,14.7798165 C31.6422018,13.76645 32.4636977,12.9449541 33.4770642,12.9449541 L73.6605505,12.9449541 C74.673917,12.9449541 75.4954128,13.76645 75.4954128,14.7798165 Z M33.4770642,26.6055046 L45.5688073,26.6055046 C46.5821739,26.6055046 47.4036697,25.7840087 47.4036697,24.7706422 C47.4036697,23.7572757 46.5821739,22.9357798 45.5688073,22.9357798 L33.4770642,22.9357798 C32.4636977,22.9357798 31.6422018,23.7572757 31.6422018,24.7706422 C31.6422018,25.7840087 32.4636977,26.6055046 33.4770642,26.6055046 Z M33.4770642,36.5688073 L45.5688073,36.5688073 C46.5821739,36.5688073 47.4036697,35.7473115 47.4036697,34.733945 C47.4036697,33.7205784 46.5821739,32.8990826 45.5688073,32.8990826 L33.4770642,32.8990826 C32.4636977,32.8990826 31.6422018,33.7205784 31.6422018,34.733945 C31.6422018,35.7473115 32.4636977,36.5688073 33.4770642,36.5688073 Z M33.4770642,46.5321101 L45.5688073,46.5321101 C46.5821739,46.5321101 47.4036697,45.7106142 47.4036697,44.6972477 C47.4036697,43.6838812 46.5821739,42.8623853 45.5688073,42.8623853 L33.4770642,42.8623853 C32.4636977,42.8623853 31.6422018,43.6838812 31.6422018,44.6972477 C31.6422018,45.7106142 32.4636977,46.5321101 33.4770642,46.5321101 Z M73.6605505,52.8256881 L33.4770642,52.8256881 C32.4636977,52.8256881 31.6422018,53.6471839 31.6422018,54.6605505 C31.6422018,55.673917 32.4636977,56.4954128 33.4770642,56.4954128 L73.6605505,56.4954128 C74.673917,56.4954128 75.4954128,55.673917 75.4954128,54.6605505 C75.4954128,53.6471839 74.673917,52.8256881 73.6605505,52.8256881 Z M75.4954128,24.7614679 L75.4954128,44.6788991 C75.4954128,45.6922656 74.673917,46.5137615 73.6605505,46.5137615 L55.7981651,46.5137615 C54.7847986,46.5137615 53.9633028,45.6922656 53.9633028,44.6788991 L53.9633028,24.7706422 C53.9633028,23.7572757 54.7847986,22.9357798 55.7981651,22.9357798 L73.6605505,22.9357798 C74.673917,22.9357798 75.4954128,23.7572757 75.4954128,24.7706422 L75.4954128,24.7614679 Z M71.8256881,26.5963303 L57.6330275,26.5963303 L57.6330275,42.8440367 L71.8256881,42.8440367 L71.8256881,26.5963303 Z M1.22226388e-15,57.5688073 L1.22226388e-15,21.7889908 C1.51003385e-08,20.7756243 0.821495883,19.9541285 1.83486239,19.9541285 C2.84822889,19.9541285 3.66972476,20.7756243 3.66972477,21.7889908 L3.66972477,57.5688073 C3.81446254,61.8040879 7.28976998,65.1626579 11.5275229,65.1626579 C15.7652759,65.1626579 19.2405833,61.8040879 19.3853211,57.5688073 L19.3853211,2.4587156 C19.3853211,1.44534908 20.206817,0.623853211 21.2201835,0.623853211 L85.8990826,0.623853211 C86.9124491,0.623853211 87.733945,1.44534908 87.733945,2.4587156 L87.733945,59.2018349 C87.7363942,61.8311667 86.6917238,64.353244 84.830784,66.2107409 C82.9698441,68.0682377 80.4458365,69.1082358 77.8165138,69.1009174 L11.5321101,69.1009174 C5.16519829,69.0958583 0.00505912977,63.9357191 1.22226388e-15,57.5688073 Z M19.9541284,65.4311927 L77.8165138,65.4311927 C79.466209,65.4311927 81.048337,64.7758538 82.2148477,63.6093431 C83.3813584,62.4428324 84.0366972,60.8607044 84.0366972,59.2110092 L84.0366972,4.29357798 L23.0642202,4.29357798 L23.0642202,57.5688073 C23.0674059,60.4884596 21.9586342,63.2997537 19.9633028,65.4311927 L19.9541284,65.4311927 Z M9.69724771,22.1743119 L9.69724771,57.5412844 C9.69724771,58.5546509 10.5187436,59.3761468 11.5321101,59.3761468 C12.5454766,59.3761468 13.3669725,58.5546509 13.3669725,57.5412844 L13.3669725,22.1743119 C13.3669725,21.1609454 12.5454766,20.3394495 11.5321101,20.3394495 C10.5187436,20.3394495 9.69724771,21.1609454 9.69724771,22.1743119 Z" id="Shape"></path>
        </g>
    </g>
</svg>