<?xml version="1.0" encoding="UTF-8"?>
<svg width="100px" height="100px" viewBox="0 0 100 100" version="1.1" xmlns="http://www.w3.org/2000/svg" xmlns:xlink="http://www.w3.org/1999/xlink">
    <!-- Generator: Sketch 52.6 (67491) - http://www.bohemiancoding.com/sketch -->
    <title>Custom Preset</title>
    <desc>Created with Sketch.</desc>
    <g id="Custom-Preset" stroke="none" stroke-width="1" fill="none" fill-rule="evenodd">
        <g id="toothPaste" transform="translate(22.000000, 6.000000)" fill="#000000" fill-rule="nonzero">
            <g id="Group">
                <path d="M56.348431,1.37317526 C55.8688448,0.809175258 55.1612586,0.484536082 54.4143621,0.484536082 L3.43474138,0.484536082 C2.68882759,0.484536082 1.98124138,0.809175258 1.50165517,1.37317526 C1.02206897,1.93717526 0.81962069,2.67948454 0.948362069,3.40338144 L13.7969483,75.6593402 C13.794,75.7126392 13.7802414,75.7630309 13.7802414,75.817299 L13.7802414,84.9411134 C13.7802414,89.4250103 17.4813103,93.0745361 22.0295172,93.0745361 L35.8215517,93.0745361 C40.3707414,93.0745361 44.0708276,89.4250103 44.0708276,84.9411134 L44.0708276,75.817299 C44.0708276,75.7620619 44.0580517,75.709732 44.0541207,75.6554639 L56.8997586,3.40338144 C57.0294828,2.67948454 56.8270345,1.93620619 56.348431,1.37317526 Z M51.410069,5.46265979 L50.6336897,9.82929897 L7.21639655,9.82929897 L6.44001724,5.46265979 L51.410069,5.46265979 Z M39.3417931,73.3287216 L18.5073103,73.3287216 L8.10087931,14.8064536 L49.7482241,14.8064536 L39.3417931,73.3287216 Z M39.0214138,84.9411134 C39.0214138,86.6805979 37.5856034,88.0964124 35.820569,88.0964124 L22.0295172,88.0964124 C20.2644828,88.0964124 18.8296552,86.6805979 18.8296552,84.9411134 L18.8296552,78.3058763 L39.0223966,78.3058763 L39.0223966,84.9411134 L39.0214138,84.9411134 Z" id="Shape"></path>
                <path d="M34.7306897,26.6184742 L23.1193966,26.6184742 C21.7248621,26.6184742 20.5956724,27.7329072 20.5956724,29.1070515 L20.5956724,59.1405361 C20.5956724,60.5156495 21.7248621,61.6291134 23.1193966,61.6291134 L34.7306897,61.6291134 C36.1252241,61.6291134 37.2544138,60.5156495 37.2544138,59.1405361 L37.2544138,29.1080206 C37.2544138,27.7329072 36.1252241,26.6184742 34.7306897,26.6184742 Z M32.2059828,56.6519588 L25.6431207,56.6519588 L25.6431207,31.5965979 L32.2059828,31.5965979 L32.2059828,56.6519588 Z" id="Shape"></path>
            </g>
        </g>
    </g>
</svg>